<?xml version="1.0" encoding="utf-8"?>
<!-- Generator: Adobe Illustrator 19.2.1, SVG Export Plug-In . SVG Version: 6.00 Build 0)  -->
<svg version="1.1" id="Layer_1" xmlns="http://www.w3.org/2000/svg" xmlns:xlink="http://www.w3.org/1999/xlink" x="0px" y="0px"
	 viewBox="0 0 512 512" style="enable-background:new 0 0 512 512;" xml:space="preserve">
<style type="text/css">
	.st0{fill:url(#SVGID_1_);stroke:url(#SVGID_2_);stroke-miterlimit:10;}
	.st1{fill:#FFFFFF;}
</style>
<g>
	<linearGradient id="SVGID_1_" gradientUnits="userSpaceOnUse" x1="371.0553" y1="421.8318" x2="156.5787" y2="50.3475">
		<stop  offset="0" style="stop-color:#793798"/>
		<stop  offset="0.7831" style="stop-color:#824CB4"/>
	</linearGradient>
	<linearGradient id="SVGID_2_" gradientUnits="userSpaceOnUse" x1="56.6895" y1="256.144" x2="455.3105" y2="256.144">
		<stop  offset="0" style="stop-color:#FFFFFF;stop-opacity:0.3"/>
		<stop  offset="1" style="stop-color:#FFFFFF;stop-opacity:0"/>
	</linearGradient>
	<path class="st0" d="M454.8,222.6c0-109.8-89-198.8-198.8-198.8s-198.8,89-198.8,198.8c0,87.6,56.7,162,135.4,188.5l63.4,77.2
		l63.4-77.2C398.1,384.6,454.8,310.2,454.8,222.6z"/>
	<path class="st1" d="M358.3,268.1l-28.3-29c6.5-3.6,10.9-10.6,10.9-18.5c0-11.7-9.5-21.2-21.2-21.2c-11.7,0-21.2,9.5-21.2,21.2
		c0,0.3,0,0.5,0,0.8l-19.8-8.9c-0.5-0.2-1-0.4-1.5-0.5c-0.3-0.8-0.8-1.5-1.5-2.2l-51.6-52.7c8.6-4.5,14.4-13.5,14.4-23.9
		c0-14.9-12.1-27-27-27s-27,12.1-27,27c0,10.3,5.8,19.3,14.4,23.9l-51.6,52.7c-2.7,2.8-2.7,7.2,0.1,9.9c1.4,1.3,3.1,2,4.9,2
		c1.8,0,3.6-0.7,5-2.1l47.2-48.2v55.2L166,317c-1.5,3.6,0.1,7.7,3.7,9.2c0.9,0.4,1.8,0.6,2.7,0.6c2.7,0,5.3-1.6,6.4-4.3l32.6-76.6
		l32.6,76.6c1.1,2.7,3.7,4.3,6.4,4.3c0.9,0,1.8-0.2,2.7-0.6c3.6-1.5,5.2-5.6,3.7-9.2l-38.5-90.4v-55.2l47.2,48.2
		c1,1.1,2.3,1.7,3.7,2c0.7,1.6,1.9,2.9,3.6,3.7l39.7,17.9v27.3l-21.6,46.4c-1.6,3.5-0.1,7.7,3.4,9.3c1,0.4,2,0.7,2.9,0.7
		c2.6,0,5.2-1.5,6.4-4.1l15.9-34.1l15.9,34.1c1.2,2.6,3.7,4.1,6.4,4.1c1,0,2-0.2,2.9-0.7c3.5-1.6,5-5.8,3.4-9.3l-21.6-46.4v-14.6
		l21.6,22.1c1.4,1.4,3.2,2.1,5,2.1c1.8,0,3.5-0.7,4.9-2C360.9,275.3,361,270.8,358.3,268.1z M211.5,120.2c7.2,0,13,5.8,13,13
		s-5.8,13-13,13s-13-5.8-13-13S204.3,120.2,211.5,120.2z M319.6,213.4c4,0,7.2,3.2,7.2,7.2s-3.2,7.2-7.2,7.2s-7.2-3.2-7.2-7.2
		S315.6,213.4,319.6,213.4z"/>
</g>
</svg>
