<?xml version="1.0" encoding="utf-8"?>
<!-- Generator: Adobe Illustrator 19.2.1, SVG Export Plug-In . SVG Version: 6.00 Build 0)  -->
<svg version="1.1" id="Layer_1" xmlns="http://www.w3.org/2000/svg" xmlns:xlink="http://www.w3.org/1999/xlink" x="0px" y="0px"
	 viewBox="0 0 512 512" style="enable-background:new 0 0 512 512;" xml:space="preserve">
<style type="text/css">
	.st0{fill:url(#SVGID_1_);}
	.st1{fill:#FFFFFF;}
</style>
<g>
	<linearGradient id="SVGID_1_" gradientUnits="userSpaceOnUse" x1="371.0553" y1="421.8318" x2="156.5787" y2="50.3474">
		<stop  offset="0" style="stop-color:#FB9F3F"/>
		<stop  offset="0.6344" style="stop-color:#E5A810"/>
	</linearGradient>
	<path class="st0" d="M454.8,222.6c0-109.8-89-198.8-198.8-198.8s-198.8,89-198.8,198.8c0,87.6,56.7,162,135.4,188.5l63.4,77.2
		l63.4-77.2C398.1,384.6,454.8,310.2,454.8,222.6z"/>
	<path class="st1" d="M361.4,301.5l-50.2-180.7c-1-3.5-4.5-5.7-8-5c-3.6-0.7-7.1,1.6-8,5.1l-6,23.5h-35.4l5.1-20
		c1-3.7-1.3-7.6-5-8.5c-3.7-1-7.6,1.3-8.5,5l-39,151.7c-0.1,0.6-0.2,0.8-0.2,1.4c-0.1,0.7-0.9,5.6-6.7,10.6
		c-6.3,5.4-19.6,11.8-47.1,11.8c-3.9,0-7,3.1-7,7s3.1,7,7,7h49.9c60.3,0,67-28.9,67.7-34.8l9.5-36.7l18.4,66.4
		c0.9,3.1,3.7,5.1,6.7,5.1c0.6,0,1.3-0.1,1.9-0.3c3.7-1,5.9-4.9,4.9-8.6l-6.8-24.5h35.7l7.9,28.3c0.9,3.1,3.7,5.1,6.7,5.1
		c0.6,0,1.3-0.1,1.9-0.3C360.3,309.1,362.5,305.3,361.4,301.5z M314.9,186.2h-22l10.6-41.1L314.9,186.2z M256.2,272.7
		c-0.1,0.5-0.2,1-0.2,1.5c0,0.2-2.2,20.8-48.9,22.2c10.5-8.2,12.5-17.6,12.9-20.7l30.2-117.2h35.4L256.2,272.7z M289.3,200.2
		c0.2,0,0.4,0,0.6,0h27.2c0.5,0,1.1-0.1,1.6-0.2l6.7,24.2h-35.7l-3.3-11.8c-0.1-0.2-0.1-0.4-0.2-0.5L289.3,200.2z M300.6,263
		l-6.9-24.8h34.9c0.3,0,0.5,0,0.8,0l6.9,24.8H300.6z"/>
</g>
</svg>
