<?xml version="1.0" encoding="utf-8"?>
<!-- Generator: Adobe Illustrator 19.2.1, SVG Export Plug-In . SVG Version: 6.00 Build 0)  -->
<svg version="1.1" id="Layer_1" xmlns="http://www.w3.org/2000/svg" xmlns:xlink="http://www.w3.org/1999/xlink" x="0px" y="0px"
	 viewBox="0 0 512 512" style="enable-background:new 0 0 512 512;" xml:space="preserve">
<style type="text/css">
	.st0{fill:url(#SVGID_1_);}
	.st1{fill:#FFFFFF;}
</style>
<g>
	<linearGradient id="SVGID_1_" gradientUnits="userSpaceOnUse" x1="371.0552" y1="421.8318" x2="156.5787" y2="50.3475">
		<stop  offset="0" style="stop-color:#62738C"/>
		<stop  offset="1" style="stop-color:#68739D"/>
	</linearGradient>
	<path class="st0" d="M454.8,222.6c0-109.8-89-198.8-198.8-198.8s-198.8,89-198.8,198.8c0,87.6,56.7,162,135.4,188.5l63.4,77.2
		l63.4-77.2C398.1,384.6,454.8,310.2,454.8,222.6z"/>
	<g>
		<path class="st1" d="M349.3,292.7l-15.8-26.6c-1.3-2.1-3.5-3.4-6-3.4h-19.7v-70.8h20.2c0.3,0,0.5,0,0.7,0c0,0,0.1,0,0.1,0
			c0.2,0,0.4-0.1,0.6-0.1c0.1,0,0.1,0,0.2,0c0.2,0,0.4-0.1,0.5-0.1c0.1,0,0.1-0.1,0.2-0.1c0.2-0.1,0.3-0.1,0.5-0.2
			c0.1,0,0.2-0.1,0.3-0.1c0.1-0.1,0.3-0.1,0.4-0.2c0.1-0.1,0.2-0.1,0.3-0.2c0.1-0.1,0.2-0.2,0.3-0.2c0.1-0.1,0.2-0.1,0.3-0.2
			c0.1-0.1,0.2-0.2,0.3-0.3c0.1-0.1,0.1-0.1,0.2-0.2c0.2-0.2,0.3-0.3,0.5-0.5c0,0,0,0,0,0c0,0,0,0,0,0c0.1-0.2,0.3-0.4,0.4-0.6
			c0,0,0.1-0.1,0.1-0.1c0.1-0.2,0.2-0.3,0.3-0.5c0-0.1,0.1-0.2,0.1-0.3c0.1-0.1,0.1-0.2,0.2-0.4c0-0.1,0.1-0.2,0.1-0.3
			c0-0.1,0.1-0.2,0.1-0.3c0-0.1,0.1-0.2,0.1-0.4c0-0.1,0.1-0.2,0.1-0.3c0-0.2,0.1-0.3,0.1-0.5c0-0.1,0-0.1,0-0.2c0-0.2,0-0.5,0-0.7
			c0,0,0,0,0,0c0,0,0-0.1,0-0.1c0-0.2,0-0.4,0-0.5c0-0.1,0-0.2,0-0.3c0-0.1,0-0.2-0.1-0.3c0-0.1-0.1-0.3-0.1-0.4
			c0-0.1,0-0.2-0.1-0.3c0-0.1-0.1-0.2-0.1-0.4c0-0.1-0.1-0.2-0.1-0.3c0-0.1-0.1-0.2-0.1-0.3c0-0.1-0.1-0.2-0.1-0.3
			c0-0.1-0.1-0.2-0.2-0.3c-0.1-0.1-0.1-0.2-0.2-0.3c-0.1-0.1-0.1-0.2-0.2-0.2c-0.1-0.1-0.1-0.2-0.2-0.3c-0.1-0.1-0.2-0.2-0.2-0.3
			c-0.1-0.1-0.1-0.2-0.2-0.2c-0.1-0.1-0.3-0.3-0.4-0.4c0,0-0.1,0-0.1-0.1l0,0c0,0,0,0,0,0L261,120.2c-1.4-1.1-3.1-1.7-4.8-1.6
			c-1.7-0.1-3.4,0.4-4.8,1.6L180,179.5c-2.3,1.9-3.1,5-2.1,7.8s3.6,4.6,6.6,4.6h19.7v70.8h-19.7c-2.5,0-4.8,1.3-6,3.4l-15.8,26.6
			c-2,3.3-0.9,7.6,2.4,9.6c1.1,0.7,2.4,1,3.6,1c2.4,0,4.7-1.2,6-3.4l13.8-23.1H256h67.5l13.8,23.1c1.3,2.2,3.6,3.4,6,3.4
			c1.2,0,2.4-0.3,3.6-1C350.2,300.3,351.3,296,349.3,292.7z M293.8,262.7h-15.9v-70.8h15.9V262.7z M256,262.7h-7.9v-70.8h15.9v70.8
			H256z M256.3,134.5l52.4,43.4H203.9L256.3,134.5z M218.2,191.9h15.9v70.8h-15.9V191.9z"/>
		<path class="st1" d="M306.3,289.3h-99.5c-3.9,0-7,3.1-7,7s3.1,7,7,7h99.5c3.9,0,7-3.1,7-7S310.2,289.3,306.3,289.3z"/>
	</g>
</g>
</svg>
