<?xml version="1.0" encoding="utf-8"?>
<!-- Generator: Adobe Illustrator 19.2.1, SVG Export Plug-In . SVG Version: 6.00 Build 0)  -->
<svg version="1.1" id="Layer_1" xmlns="http://www.w3.org/2000/svg" xmlns:xlink="http://www.w3.org/1999/xlink" x="0px" y="0px"
	 viewBox="0 0 512 512" style="enable-background:new 0 0 512 512;" xml:space="preserve">
<style type="text/css">
	.st0{fill:url(#SVGID_1_);}
	.st1{fill:#FFFFFF;}
</style>
<g>
	<linearGradient id="SVGID_1_" gradientUnits="userSpaceOnUse" x1="371.0552" y1="421.8318" x2="156.5787" y2="50.3476">
		<stop  offset="0" style="stop-color:#1CB0D4"/>
		<stop  offset="0.6863" style="stop-color:#56C8FF"/>
	</linearGradient>
	<path class="st0" d="M454.8,222.6c0-109.8-89-198.8-198.8-198.8s-198.8,89-198.8,198.8c0,87.6,56.7,162,135.4,188.5l63.4,77.2
		l63.4-77.2C398.1,384.6,454.8,310.2,454.8,222.6z"/>
	<g>
		<path class="st1" d="M363.3,263.5h-20.2v-62.5c0-0.8-0.2-1.6-0.4-2.4c-3.7-33-31.7-58.8-65.7-58.8h-39.2
			c-34,0-62.1,25.8-65.7,58.8c-0.3,0.7-0.4,1.5-0.4,2.4v69.5c0,3.9,3.1,7,7,7H208c3.2,11.9,14.1,20.6,27,20.6s23.7-8.7,27-20.6h40.7
			v13.6c0,3.9,3.1,7,7,7s7-3.1,7-7v-13.6h46.7c3.9,0,7-3.1,7-7S367.2,263.5,363.3,263.5z M185.7,205.9c0-28.8,23.4-52.2,52.2-52.2
			H277c28.8,0,52.2,23.4,52.2,52.2v57.6h-16.8v-72.8c0-3.9-3.1-7-7-7H279c-3.9,0-7,3.1-7,7v72.8h-9.8c-3-12.2-14-21.4-27.2-21.4
			s-24.2,9.1-27.2,21.4h-22.2V205.9z M298.4,263.5H286v-65.8h12.4V263.5z M235,284.1c-7.7,0-14-6.3-14-14c0-7.7,6.3-14,14-14
			s14,6.3,14,14C249,277.8,242.7,284.1,235,284.1z"/>
		<rect x="213.2" y="183.1" class="st1" width="33.4" height="33.4"/>
	</g>
</g>
</svg>
