<?xml version="1.0" encoding="utf-8"?>
<!-- Generator: Adobe Illustrator 19.2.1, SVG Export Plug-In . SVG Version: 6.00 Build 0)  -->
<svg version="1.1" id="Layer_1" xmlns="http://www.w3.org/2000/svg" xmlns:xlink="http://www.w3.org/1999/xlink" x="0px" y="0px"
	 viewBox="0 0 512 512" style="enable-background:new 0 0 512 512;" xml:space="preserve">
<style type="text/css">
	.st0{fill:url(#SVGID_1_);}
	.st1{fill:#FFFFFF;}
</style>
<g>
	<linearGradient id="SVGID_1_" gradientUnits="userSpaceOnUse" x1="371.0553" y1="421.8318" x2="156.5787" y2="50.3475">
		<stop  offset="0" style="stop-color:#674C3F"/>
		<stop  offset="0.7831" style="stop-color:#8E6D5D"/>
	</linearGradient>
	<path class="st0" d="M454.8,222.6c0-109.8-89-198.8-198.8-198.8s-198.8,89-198.8,198.8c0,87.6,56.7,162,135.4,188.5l63.4,77.2
		l63.4-77.2C398.1,384.6,454.8,310.2,454.8,222.6z"/>
	<g>
		<path class="st1" d="M338.8,206.4c-0.9-3.5-1.9-6.7-3.1-9.4l-1.9-4.1H163.4l-1.9,4.1c-4.1,9.1-6.3,25.2-6.3,35.7
			c0,44.4,41.9,80.4,93.4,80.4c25.8,0,49.3-9.1,66.2-23.7c4.5,1,9.1,1.6,13.8,1.6c28.2,0,51.2-19.2,51.2-42.7
			C379.8,227.9,362.4,210.3,338.8,206.4z M169.2,232.6c0-7.4,1.4-18.4,3.6-25.8h151.7c2.2,7.4,3.6,18.4,3.6,25.8
			c0,16.3-7,31.2-18.7,42.7c-1.1,0.6-2,1.4-2.7,2.5c-14.5,13-35.2,21.2-58.1,21.2C204.8,299.1,169.2,269.3,169.2,232.6z
			 M328.6,276.9c-0.7,0-1.3,0-1.9,0c9.8-12.7,15.4-27.9,15.4-44.3c0-3.4-0.2-7.3-0.7-11.4c14.3,4.1,24.4,14.8,24.4,26.9
			C365.8,264.1,349.1,276.9,328.6,276.9z"/>
		<path class="st1" d="M248.6,173.1c3.9,0,7-3.1,7-7v-62.4c0-3.9-3.1-7-7-7s-7,3.1-7,7v62.4C241.6,170,244.8,173.1,248.6,173.1z"/>
		<path class="st1" d="M212.2,173.1c3.9,0,7-3.1,7-7v-46.8c0-3.9-3.1-7-7-7s-7,3.1-7,7v46.8C205.2,170,208.4,173.1,212.2,173.1z"/>
		<path class="st1" d="M285.1,173.1c3.9,0,7-3.1,7-7v-46.8c0-3.9-3.1-7-7-7s-7,3.1-7,7v46.8C278.1,170,281.2,173.1,285.1,173.1z"/>
	</g>
</g>
</svg>
