<?xml version="1.0" encoding="utf-8"?>
<!-- Generator: Adobe Illustrator 19.2.1, SVG Export Plug-In . SVG Version: 6.00 Build 0)  -->
<svg version="1.1" id="Layer_1" xmlns="http://www.w3.org/2000/svg" xmlns:xlink="http://www.w3.org/1999/xlink" x="0px" y="0px"
	 viewBox="0 0 512 512" style="enable-background:new 0 0 512 512;" xml:space="preserve">
<style type="text/css">
	.st0{fill:url(#SVGID_1_);}
	.st1{fill:#FFFFFF;}
</style>
<g>
	<linearGradient id="SVGID_1_" gradientUnits="userSpaceOnUse" x1="371.0553" y1="421.8318" x2="156.5787" y2="50.3474">
		<stop  offset="0" style="stop-color:#0BA13E"/>
		<stop  offset="0.6099" style="stop-color:#35BF27"/>
	</linearGradient>
	<path class="st0" d="M454.8,222.6c0-109.8-89-198.8-198.8-198.8s-198.8,89-198.8,198.8c0,87.6,56.7,162,135.4,188.5l63.4,77.2
		l63.4-77.2C398.1,384.6,454.8,310.2,454.8,222.6z"/>
	<g>
		<path class="st1" d="M342.1,212.2c-0.8-3.4-1.8-6.5-3-9.1l-1.9-4.1H171l-1.9,4.1c-4,8.9-6.2,24.6-6.2,34.8
			c0,43.3,40.9,78.5,91.2,78.5c25.2,0,48-8.8,64.5-23.1c4.3,1,8.8,1.5,13.4,1.5c27.6,0,50.1-18.7,50.1-41.8
			C382.1,233.3,365.1,216.1,342.1,212.2z M176.9,237.9c0-7.2,1.3-17.8,3.5-24.9h81.9v18h-15.3v44.5h44.5V231h-15.3v-18h51.5
			c2.1,7.2,3.5,17.8,3.5,24.9c0,15.8-6.8,30.3-18.1,41.5c-1.1,0.6-2,1.4-2.6,2.5c-14.1,12.6-34.2,20.6-56.5,20.6
			C211.6,302.5,176.9,273.5,176.9,237.9z M277.6,245v16.5h-16.5V245H277.6z M332,280.9c-0.5,0-1,0-1.5,0
			c9.4-12.3,14.9-27.1,14.9-42.9c0-3.2-0.2-6.9-0.6-10.8c13.7,4,23.3,14.4,23.3,26C368.1,268.4,351.9,280.9,332,280.9z"/>
		<path class="st1" d="M254.1,180.1c3.9,0,7-3.1,7-7v-60.8c0-3.9-3.1-7-7-7s-7,3.1-7,7v60.8C247.1,177,250.3,180.1,254.1,180.1z"/>
		<path class="st1" d="M218.7,180.1c3.9,0,7-3.1,7-7v-45.6c0-3.9-3.1-7-7-7s-7,3.1-7,7v45.6C211.7,177,214.8,180.1,218.7,180.1z"/>
		<path class="st1" d="M289.6,180.1c3.9,0,7-3.1,7-7v-45.6c0-3.9-3.1-7-7-7s-7,3.1-7,7v45.6C282.6,177,285.7,180.1,289.6,180.1z"/>
	</g>
</g>
</svg>
