<?xml version="1.0" encoding="utf-8"?>
<!-- Generator: Adobe Illustrator 19.2.1, SVG Export Plug-In . SVG Version: 6.00 Build 0)  -->
<svg version="1.1" id="Layer_1" xmlns="http://www.w3.org/2000/svg" xmlns:xlink="http://www.w3.org/1999/xlink" x="0px" y="0px"
	 viewBox="0 0 512 512" style="enable-background:new 0 0 512 512;" xml:space="preserve">
<style type="text/css">
	.st0{fill:url(#SVGID_1_);}
	.st1{fill:#FFFFFF;}
</style>
<g>
	<linearGradient id="SVGID_1_" gradientUnits="userSpaceOnUse" x1="371.0553" y1="421.8318" x2="156.5787" y2="50.3474">
		<stop  offset="0" style="stop-color:#315DFF"/>
		<stop  offset="0.725" style="stop-color:#128FFF"/>
	</linearGradient>
	<path class="st0" d="M454.8,222.6c0-109.8-89-198.8-198.8-198.8s-198.8,89-198.8,198.8c0,87.6,56.7,162,135.4,188.5l63.4,77.2
		l63.4-77.2C398.1,384.6,454.8,310.2,454.8,222.6z"/>
	<path class="st1" d="M365.9,296.3c-2.7-2.7-7.2-2.7-9.9,0c-8.8,8.8-17.2,12.9-24.8,12.1c-10.3-1.1-16.7-10.7-16.9-10.9c0,0,0,0,0,0
		c-0.1-0.1-0.2-0.2-0.3-0.4c-0.1-0.1-0.1-0.1-0.2-0.2c-0.1-0.1-0.1-0.1-0.2-0.2c-0.1-0.1-0.2-0.2-0.3-0.4c0,0,0,0,0,0
		c-6.5-6.5-13-11-19.5-13.6l16.8-49.5H263v-40.6h57.1c3.9,0,7-3.1,7-7s-3.1-7-7-7H263v-26.1h28.2c3.9,0,7-3.1,7-7s-3.1-7-7-7H263
		V108c0-3.9-3.1-7-7-7s-7,3.1-7,7v30.4h-28.2c-3.9,0-7,3.1-7,7s3.1,7,7,7H249v26.1h-57.1c-3.9,0-7,3.1-7,7s3.1,7,7,7H249v40.6h-47.7
		l25.5,75.3c-0.2,0-0.3,0-0.5,0c-10.3-1.1-16.7-10.7-16.9-10.9c0,0,0,0,0,0c-0.1-0.1-0.2-0.2-0.3-0.4c-0.1-0.1-0.1-0.1-0.2-0.2
		c-0.1-0.1-0.1-0.1-0.2-0.2c-0.1-0.1-0.2-0.2-0.3-0.4c0,0,0,0,0,0c-12-12-24.2-17.4-36.3-16.1c-17,1.9-26.7,16.7-27.1,17.3
		c-2.1,3.2-1.1,7.5,2.1,9.6c3.2,2.1,7.6,1.2,9.7-2.1c0.1-0.1,6.6-9.9,16.9-10.9c7.5-0.8,15.7,3.2,24.4,11.7
		c2.2,3.2,11.5,14.9,26.5,16.5c1.2,0.1,2.4,0.2,3.6,0.2c10.9,0,21.9-5.5,32.7-16.3c0.4-0.4,0.7-0.7,0.9-1.1c0,0,0,0,0,0
		c0.1-0.1,6.6-9.9,16.9-10.9c7.5-0.8,15.7,3.2,24.4,11.7c2.2,3.2,11.5,14.9,26.5,16.5c1.2,0.1,2.4,0.2,3.6,0.2
		c10.9,0,21.9-5.5,32.7-16.3C368.7,303.4,368.7,299,365.9,296.3z M250.6,296.7c-3.5,3.5-6.9,6.2-10.3,8.1l-19.5-57.7H256h35.2
		L280,280c-1,0-1.9,0.1-2.9,0.2C262.1,281.8,252.9,293.5,250.6,296.7z"/>
</g>
</svg>
