<?xml version="1.0" encoding="utf-8"?>
<!-- Generator: Adobe Illustrator 19.2.1, SVG Export Plug-In . SVG Version: 6.00 Build 0)  -->
<svg version="1.1" id="Layer_1" xmlns="http://www.w3.org/2000/svg" xmlns:xlink="http://www.w3.org/1999/xlink" x="0px" y="0px"
	 viewBox="0 0 512 512" style="enable-background:new 0 0 512 512;" xml:space="preserve">
<style type="text/css">
	.st0{fill:url(#SVGID_1_);}
	.st1{fill:#FFFFFF;}
</style>
<g>
	<linearGradient id="SVGID_1_" gradientUnits="userSpaceOnUse" x1="371.0553" y1="421.8318" x2="156.5787" y2="50.3475">
		<stop  offset="0" style="stop-color:#315DFF"/>
		<stop  offset="0.725" style="stop-color:#128FFF"/>
	</linearGradient>
	<path class="st0" d="M454.8,222.6c0-109.8-89-198.8-198.8-198.8s-198.8,89-198.8,198.8c0,87.6,56.7,162,135.4,188.5l63.4,77.2
		l63.4-77.2C398.1,384.6,454.8,310.2,454.8,222.6z"/>
	<path class="st1" d="M334.3,257.2c-2.7-2.7-7.2-2.7-9.9,0c-2.7,2.7-2.7,7.2,0,9.9l12,12c-18.6,21.8-44.8,35-73.4,36.8V199h26.8
		c3.9,0,7-3.1,7-7c0-3.9-3.1-7-7-7H263v-22.6c13-3.2,22.7-14.9,22.7-28.9c0-16.4-13.3-29.7-29.7-29.7s-29.7,13.3-29.7,29.7
		c0,14,9.7,25.7,22.7,28.9V185h-26.8c-3.9,0-7,3.1-7,7c0,3.9,3.1,7,7,7H249v116.9c-28.6-1.8-54.7-15-73.4-36.8l12-12
		c2.7-2.7,2.7-7.2,0-9.9c-2.7-2.7-7.2-2.7-9.9,0L157,278l3.7,4.9c22.9,30.1,57.6,47.3,95.3,47.3s72.5-17.2,95.3-47.3l3.7-4.9
		L334.3,257.2z M240.3,133.5c0-8.7,7.1-15.7,15.7-15.7s15.7,7.1,15.7,15.7s-7.1,15.7-15.7,15.7S240.3,142.2,240.3,133.5z"/>
</g>
</svg>
