<?xml version="1.0" encoding="utf-8"?>
<!-- Generator: Adobe Illustrator 19.2.1, SVG Export Plug-In . SVG Version: 6.00 Build 0)  -->
<svg version="1.1" id="Layer_1" xmlns="http://www.w3.org/2000/svg" xmlns:xlink="http://www.w3.org/1999/xlink" x="0px" y="0px"
	 viewBox="0 0 512 512" style="enable-background:new 0 0 512 512;" xml:space="preserve">
<style type="text/css">
	.st0{fill:url(#SVGID_1_);}
	.st1{fill:#FFFFFF;}
</style>
<g>
	<linearGradient id="SVGID_1_" gradientUnits="userSpaceOnUse" x1="371.0552" y1="421.8318" x2="156.5787" y2="50.3476">
		<stop  offset="0" style="stop-color:#674C3F"/>
		<stop  offset="0.7831" style="stop-color:#8E6D5D"/>
	</linearGradient>
	<path class="st0" d="M454.8,222.6c0-109.8-89-198.8-198.8-198.8s-198.8,89-198.8,198.8c0,87.6,56.7,162,135.4,188.5l63.4,77.2
		l63.4-77.2C398.1,384.6,454.8,310.2,454.8,222.6z"/>
	<path class="st1" d="M360.2,178.8c-2.4-3-6.8-3.5-9.8-1.1l-13.6,10.9c-4.9-8.1-10.1-15.5-15.5-22.3l11.7-11.7L305.2,127L293.2,139
		c-29-21.2-52.6-18.8-53.6-18.6c-3.8,0.4-6.6,3.9-6.1,7.8s3.9,6.6,7.8,6.1c0.1,0,5-0.5,13,1.4c6.9,1.6,17.2,5.2,29,13.4L150.4,281.7
		l27.7,27.7l133.1-133.2c5,6.4,9.9,13.5,14.5,21.1l-13,10.4c-3,2.4-3.5,6.8-1.1,9.8c1.4,1.7,3.4,2.6,5.5,2.6c1.5,0,3.1-0.5,4.4-1.5
		l37.6-30.2C362.1,186.2,362.6,181.8,360.2,178.8z M313.1,154.7l-5.2,5.2c-0.3,0.2-0.6,0.4-0.9,0.6c-0.6,0.5-1,1-1.4,1.6L234,233.8
		l-7.9-7.9l79.1-79.1L313.1,154.7z M170.2,281.7l46-46l7.9,7.9l-46,46L170.2,281.7z"/>
</g>
</svg>
