<?xml version="1.0" encoding="utf-8"?>
<!-- Generator: Adobe Illustrator 19.2.1, SVG Export Plug-In . SVG Version: 6.00 Build 0)  -->
<svg version="1.1" id="Layer_1" xmlns="http://www.w3.org/2000/svg" xmlns:xlink="http://www.w3.org/1999/xlink" x="0px" y="0px"
	 viewBox="0 0 512 512" style="enable-background:new 0 0 512 512;" xml:space="preserve">
<style type="text/css">
	.st0{fill:url(#SVGID_1_);}
	.st1{fill:#FFFFFF;}
</style>
<g>
	<linearGradient id="SVGID_1_" gradientUnits="userSpaceOnUse" x1="371.0553" y1="421.8318" x2="156.5787" y2="50.3474">
		<stop  offset="0" style="stop-color:#1CB0D4"/>
		<stop  offset="0.6863" style="stop-color:#56C8FF"/>
	</linearGradient>
	<path class="st0" d="M454.8,222.6c0-109.8-89-198.8-198.8-198.8s-198.8,89-198.8,198.8c0,87.6,56.7,162,135.4,188.5l63.4,77.2
		l63.4-77.2C398.1,384.6,454.8,310.2,454.8,222.6z"/>
	<g>
		<path class="st1" d="M339.4,242.6v-29.1h-0.1c0.1-1.1,0-2.2-0.4-3.2l-24.9-68.1h-56.8h-2.6h-56.8L173,210.2
			c-0.4,1.1-0.5,2.2-0.4,3.2h-0.1v29.1c0,0.5,0,0.9,0,1.4c0,0.5,0,0.9,0,1.4v46.5h19v22.4c0,3.9,3.1,7,7,7s7-3.1,7-7v-22.4h100.8
			v22.4c0,3.9,3.1,7,7,7s7-3.1,7-7v-22.4h19v-46.5c0-0.5,0-0.9,0-1.4C339.5,243.5,339.5,243,339.4,242.6z M207.7,156.1h47h2.6h47
			l21,57.3H186.7L207.7,156.1z M186.6,243.2c0.4-5.7,5.2-10.2,11-10.2c6.1,0,11.1,5,11.1,11.1c0,6.1-5,11.1-11.1,11.1
			c-5.8,0-10.6-4.5-11-10.2V243.2z M325.4,277.9H186.6v-11.4c3.3,1.6,7.1,2.6,11,2.6c13.8,0,25.1-11.2,25.1-25.1
			c0-6.3-2.4-12.1-6.2-16.5h79.2c-3.9,4.4-6.2,10.2-6.2,16.5c0,13.8,11.2,25.1,25.1,25.1c4,0,7.7-0.9,11-2.6V277.9z M325.4,244.8
			c-0.4,5.7-5.2,10.2-11,10.2c-6.1,0-11.1-5-11.1-11.1c0-6.1,5-11.1,11.1-11.1c5.8,0,10.6,4.5,11,10.2V244.8z"/>
		<path class="st1" d="M267.1,247h-22.2c-3.9,0-7,3.1-7,7s3.1,7,7,7h22.2c3.9,0,7-3.1,7-7S271,247,267.1,247z"/>
	</g>
</g>
</svg>
