<?xml version="1.0" encoding="utf-8"?>
<!-- Generator: Adobe Illustrator 19.2.1, SVG Export Plug-In . SVG Version: 6.00 Build 0)  -->
<svg version="1.1" id="Layer_1" xmlns="http://www.w3.org/2000/svg" xmlns:xlink="http://www.w3.org/1999/xlink" x="0px" y="0px"
	 viewBox="0 0 512 512" style="enable-background:new 0 0 512 512;" xml:space="preserve">
<style type="text/css">
	.st0{fill:url(#SVGID_1_);}
	.st1{fill:#FFFFFF;}
</style>
<g>
	<linearGradient id="SVGID_1_" gradientUnits="userSpaceOnUse" x1="371.0075" y1="421.75" x2="156.5783" y2="50.3477">
		<stop  offset="0" style="stop-color:#1CB0D4"/>
		<stop  offset="0.6863" style="stop-color:#56C8FF"/>
	</linearGradient>
	<path class="st0" d="M454.8,222.6c0-109.8-89-198.8-198.8-198.8s-198.8,89-198.8,198.8c0,87.5,56.6,161.9,135.1,188.4l63.5,77.3
		l63.3-77.1C398,384.7,454.8,310.3,454.8,222.6z"/>
	<path class="st1" d="M346.8,304.4h-25.6l-9.1-26.3c-0.1-0.4-0.3-0.8-0.5-1.1c16.1-9,27.7-25.2,30.1-44.3c0.2-0.5,0.3-1,0.4-1.6
		c0.1-0.8,0.1-1.6-0.1-2.3c0.1-1.2,0.1-2.5,0.1-3.7c0-32.7-26.6-59.3-59.3-59.3c-4.7,0-9.2,0.6-13.6,1.6l-6.1-28.9h79.7
		c3.9,0,7-3.1,7-7s-3.1-7-7-7h-178c-3.9,0-7,3.1-7,7s3.1,7,7,7h84l7.1,33.8c-10.7,5.4-19.5,14-25.2,24.5c-0.9-0.5-2-0.8-3.1-0.8
		h-40.9c-0.8,0-1.5,0.1-2.2,0.3l-28.2-28.2c-2.7-2.7-7.2-2.7-9.9,0c-2.7,2.7-2.7,7.2,0,9.9l25,25l-25,25c-2.7,2.7-2.7,7.2,0,9.9
		c1.4,1.4,3.2,2.1,4.9,2.1s3.6-0.7,4.9-2.1l28.2-28.2c0.7,0.2,1.4,0.3,2.2,0.3h38.8c-1.3,4.8-2,9.9-2,15.1
		c0,24.1,14.4,44.8,35.1,54.1c-0.2,1.1-0.1,2.3,0.3,3.5l7.5,21.7h-37.5c-3.9,0-7,3.1-7,7s3.1,7,7,7h47.3c0,0,0,0,0,0c0,0,0,0,0,0h40
		c0,0,0,0,0,0c0,0,0,0,0,0h30.6c3.9,0,7-3.1,7-7S350.7,304.4,346.8,304.4z M328,222l-21.6-3.2l-9.9-37
		C313.8,187.3,326.7,203.1,328,222z M237.5,225.1c0-24.5,19.6-44.5,43.9-45.3l13.9,51.6l31.6,4.6c-4.9,19.8-22.8,34.5-44,34.5
		C257.8,270.4,237.5,250.1,237.5,225.1z M274,283.8c2.9,0.4,5.8,0.7,8.8,0.7c5.5,0,10.8-0.8,15.9-2.2c0,0.2,0.1,0.3,0.1,0.5
		l7.5,21.7h-25.2L274,283.8z"/>
</g>
</svg>
