<?xml version="1.0" encoding="utf-8"?>
<!-- Generator: Adobe Illustrator 19.2.1, SVG Export Plug-In . SVG Version: 6.00 Build 0)  -->
<svg version="1.1" id="Layer_1" xmlns="http://www.w3.org/2000/svg" xmlns:xlink="http://www.w3.org/1999/xlink" x="0px" y="0px"
	 viewBox="0 0 512 512" style="enable-background:new 0 0 512 512;" xml:space="preserve">
<style type="text/css">
	.st0{fill:url(#SVGID_1_);}
	.st1{fill:#FFFFFF;}
</style>
<g>
	<linearGradient id="SVGID_1_" gradientUnits="userSpaceOnUse" x1="371.0553" y1="421.8318" x2="156.5787" y2="50.3475">
		<stop  offset="0" style="stop-color:#674C3F"/>
		<stop  offset="0.7831" style="stop-color:#8E6D5D"/>
	</linearGradient>
	<path class="st0" d="M454.8,222.6c0-109.8-89-198.8-198.8-198.8s-198.8,89-198.8,198.8c0,87.6,56.7,162,135.4,188.5l63.4,77.2
		l63.4-77.2C398.1,384.6,454.8,310.2,454.8,222.6z"/>
	<path class="st1" d="M328.6,262.4c-4.1-11.3-10.6-21.1-18.3-27.6c-8.7-7.4-18.1-9.8-26.4-6.8c-5.6,2-9.9,6.3-12.8,12.2l-7.7-21.2
		l32.7-89.8c1.3-3.6-0.6-7.6-4.2-9c-3.6-1.3-7.6,0.6-9,4.2l-27,74.1l-27-74.1c-1.3-3.6-5.3-5.5-9-4.2c-3.6,1.3-5.5,5.3-4.2,9
		l32.7,89.8l-7.7,21.2c-2.9-6-7.2-10.2-12.8-12.2c-8.3-3-17.7-0.6-26.4,6.8c-7.7,6.5-14.1,16.3-18.3,27.6c-4.1,11.3-5.5,23-3.8,32.9
		c1.9,11.3,7.6,19.2,15.8,22.2c2.3,0.8,4.7,1.3,7.2,1.3c6.3,0,12.9-2.8,19.2-8.1c7.7-6.5,14.1-16.3,18.3-27.6c0.8-2.1,1.5-4.3,2-6.5
		c0.4-0.5,0.7-1.1,0.9-1.7l12.9-35.4l12.9,35.4c0.2,0.6,0.6,1.2,0.9,1.7c0.6,2.2,1.3,4.3,2,6.5c4.1,11.3,10.6,21.1,18.3,27.6
		c6.3,5.3,12.9,8.1,19.2,8.1c2.5,0,4.9-0.4,7.2-1.3c8.3-3,13.9-10.9,15.8-22.2C334.1,285.4,332.7,273.7,328.6,262.4z M212.8,300
		c-4.7,4-9.2,5.5-12.6,4.3c-3.3-1.2-5.8-5.4-6.8-11.4c-1.3-7.4-0.1-16.8,3.1-25.8c3.3-8.9,8.4-16.9,14.2-21.7
		c4.7-4,9.2-5.5,12.6-4.3c3.3,1.2,5.8,5.4,6.8,11.4c1.3,7.4,0.1,16.8-3.1,25.8C223.7,287.2,218.6,295.1,212.8,300z M318.6,292.9
		c-1,6-3.5,10.2-6.8,11.4c-3.3,1.2-7.9-0.4-12.6-4.3c-5.7-4.9-10.9-12.8-14.2-21.7c-3.3-8.9-4.4-18.3-3.1-25.8
		c1-6,3.5-10.2,6.8-11.4c0.7-0.3,1.5-0.4,2.3-0.4c3,0,6.6,1.6,10.2,4.7c5.7,4.9,10.9,12.8,14.2,21.7
		C318.7,276.1,319.8,285.5,318.6,292.9z"/>
</g>
</svg>
