<?xml version="1.0" encoding="utf-8"?>
<!-- Generator: Adobe Illustrator 19.2.1, SVG Export Plug-In . SVG Version: 6.00 Build 0)  -->
<svg version="1.1" id="Layer_1" xmlns="http://www.w3.org/2000/svg" xmlns:xlink="http://www.w3.org/1999/xlink" x="0px" y="0px"
	 viewBox="0 0 512 512" style="enable-background:new 0 0 512 512;" xml:space="preserve">
<style type="text/css">
	.st0{fill:url(#SVGID_1_);}
	.st1{fill:#FFFFFF;}
</style>
<g>
	<linearGradient id="SVGID_1_" gradientUnits="userSpaceOnUse" x1="371.0553" y1="421.8318" x2="156.5787" y2="50.3474">
		<stop  offset="0" style="stop-color:#0BA13E"/>
		<stop  offset="0.6099" style="stop-color:#35BF27"/>
	</linearGradient>
	<path class="st0" d="M454.8,222.6c0-109.8-89-198.8-198.8-198.8s-198.8,89-198.8,198.8c0,87.6,56.7,162,135.4,188.5l63.4,77.2
		l63.4-77.2C398.1,384.6,454.8,310.2,454.8,222.6z"/>
	<path class="st1" d="M363.8,229.6l-68.9-68.9c0,0,0-0.1,0-0.1v-46.9c0-3.9-3.1-7-7-7s-7,3.1-7,7v33.1L256,121.8L148.2,229.6
		c-2.7,2.7-2.7,7.2,0,9.9c2.7,2.7,7.2,2.7,9.9,0l29.6-29.6v81.5H256h68.4V210l29.6,29.6c1.4,1.4,3.2,2.1,5,2.1s3.6-0.7,5-2.1
		C366.6,236.8,366.6,232.4,363.8,229.6z M310.4,199.1v78.4H256h-54.4v-78.4c0-0.9-0.2-1.8-0.5-2.6l54.9-54.9l54.9,54.9
		C310.5,197.3,310.4,198.2,310.4,199.1z"/>
</g>
</svg>
