<?xml version="1.0" encoding="utf-8"?>
<!-- Generator: Adobe Illustrator 19.2.1, SVG Export Plug-In . SVG Version: 6.00 Build 0)  -->
<svg version="1.1" id="Layer_1" xmlns="http://www.w3.org/2000/svg" xmlns:xlink="http://www.w3.org/1999/xlink" x="0px" y="0px"
	 viewBox="0 0 512 512" style="enable-background:new 0 0 512 512;" xml:space="preserve">
<style type="text/css">
	.st0{fill:url(#SVGID_1_);}
	.st1{fill:#FFFFFF;}
</style>
<g>
	<linearGradient id="SVGID_1_" gradientUnits="userSpaceOnUse" x1="371.0553" y1="421.8318" x2="156.5787" y2="50.3475">
		<stop  offset="0" style="stop-color:#674C3F"/>
		<stop  offset="0.7831" style="stop-color:#8E6D5D"/>
	</linearGradient>
	<path class="st0" d="M454.8,222.6c0-109.8-89-198.8-198.8-198.8s-198.8,89-198.8,198.8c0,87.6,56.7,162,135.4,188.5l63.4,77.2
		l63.4-77.2C398.1,384.6,454.8,310.2,454.8,222.6z"/>
	<g>
		<path class="st1" d="M325.7,252.6c-4.2-0.8-10.2-1.4-17.7-2c-13.7-1-32.2-1.5-52-1.5s-38.2,0.5-52,1.5c-7.6,0.5-13.5,1.2-17.7,2
			c-3.9,0.7-12.2,2.2-12.2,9.5c0,19.1,8.8,32.6,26.1,40.1c12.7,5.5,29.8,7.9,55.7,7.9s43.1-2.5,55.7-7.9c17.3-7.5,26.1-21,26.1-40.1
			C337.9,254.9,329.6,253.4,325.7,252.6z M256,296.2c-23.9,0-39.3-2.1-50.1-6.8c-10.9-4.7-16.4-11.9-17.5-23
			c8.3-1.6,31.4-3.3,67.7-3.3c36.2,0,59.3,1.8,67.6,3.3C321.4,287.8,301.9,296.2,256,296.2z"/>
		<path class="st1" d="M186.2,223.2c-3.9,0-7,3.1-7,7c0,3.9,3.1,7,7,7h139.6c3.9,0,7-3.1,7-7c0-3.9-3.1-7-7-7H186.2z"/>
		<path class="st1" d="M186.3,206.2c4.2,0.8,10.2,1.4,17.7,2c13.7,1,32.2,1.5,52,1.5s38.2-0.5,52-1.5c7.6-0.5,13.5-1.2,17.7-2
			c3.9-0.7,12.2-2.2,12.2-9.5c0-38.9-36.7-70.6-81.9-70.6s-81.9,31.7-81.9,70.6C174.1,204,182.4,205.5,186.3,206.2z M205.8,158.7
			c0.1,4.3,3.6,7.8,7.9,7.8c4.4,0,8-3.6,8-8c0-3.5-2.3-6.5-5.5-7.6c11.2-6.8,24.9-10.8,39.8-10.8c3,0,6,0.2,8.9,0.5
			c-0.5,1-0.8,2.2-0.8,3.4c0,4.4,3.6,8,8,8c4.4,0,8-3.6,8-8c0-0.1,0-0.1,0-0.2c24,7.6,41.6,26.3,43.6,48.6
			c-8.3,1.6-31.4,3.3-67.7,3.3s-59.4-1.8-67.7-3.3C189.5,179.4,195.9,167.7,205.8,158.7z"/>
		<circle class="st1" cx="246.1" cy="170.1" r="8"/>
		<circle class="st1" cx="288" cy="178" r="8"/>
	</g>
</g>
</svg>
