<?xml version="1.0" encoding="utf-8"?>
<!-- Generator: Adobe Illustrator 19.2.1, SVG Export Plug-In . SVG Version: 6.00 Build 0)  -->
<svg version="1.1" id="Layer_1" xmlns="http://www.w3.org/2000/svg" xmlns:xlink="http://www.w3.org/1999/xlink" x="0px" y="0px"
	 viewBox="0 0 512 512" style="enable-background:new 0 0 512 512;" xml:space="preserve">
<style type="text/css">
	.st0{fill:url(#SVGID_1_);}
	.st1{fill:#442C1C;}
</style>
<g>
	<linearGradient id="SVGID_1_" gradientUnits="userSpaceOnUse" x1="371.0553" y1="421.8318" x2="156.5787" y2="50.3474">
		<stop  offset="0" style="stop-color:#FB9F3F"/>
		<stop  offset="0.6344" style="stop-color:#E5A810"/>
	</linearGradient>
	<path class="st0" d="M454.8,222.6c0-109.8-89-198.8-198.8-198.8s-198.8,89-198.8,198.8c0,87.6,56.7,162,135.4,188.5l63.4,77.2
		l63.4-77.2C398.1,384.6,454.8,310.2,454.8,222.6z"/>
	<g>
		<path class="st1" d="M308.5,255.5c-3.9,0-7,3.1-7,7c0,14.7-17,27.3-38.5,29.6v-26.6l35.7-40.3c1.8-2.1,2.3-5,1.1-7.5
			c-1.1-2.5-3.6-4.1-6.4-4.1H256h-37.4c-2.8,0-5.3,1.6-6.4,4.1c-1.1,2.5-0.7,5.5,1.1,7.5l35.7,40.3v26.6
			c-21.5-2.3-38.5-14.9-38.5-29.6c0-3.9-3.1-7-7-7s-7,3.1-7,7c0,12.2,6.5,23.6,18.3,31.9c11.1,7.8,25.7,12.1,41.1,12.1
			s30.1-4.3,41.1-12.1c11.8-8.3,18.3-19.7,18.3-31.9C315.5,258.6,312.3,255.5,308.5,255.5z M234.1,227.6H256h21.9L256,252.4
			L234.1,227.6z"/>
		<path class="st1" d="M345,176l-34.2-34.2c-2.7-2.7-7.2-2.7-9.9,0L276.8,166c-2.7,2.7-2.7,7.2,0,9.9c2.7,2.7,7.2,2.7,9.9,0
			l19.2-19.2l29.2,29.2c1.4,1.4,3.2,2.1,5,2.1s3.6-0.7,5-2.1C347.8,183.2,347.8,178.7,345,176z"/>
		<path class="st1" d="M225.3,173.7c2.7,2.7,7.2,2.7,9.9,0c2.7-2.7,2.7-7.2,0-9.9l-22-22c-1.3-1.3-3.1-2.1-5-2.1s-3.6,0.7-5,2.1
			L167,178.2c-2.7,2.7-2.7,7.2,0,9.9c1.4,1.4,3.2,2.1,5,2.1c1.8,0,3.6-0.7,5-2.1l31.4-31.4L225.3,173.7z"/>
	</g>
</g>
</svg>
