<?xml version="1.0" encoding="utf-8"?>
<!-- Generator: Adobe Illustrator 19.2.1, SVG Export Plug-In . SVG Version: 6.00 Build 0)  -->
<svg version="1.1" id="Layer_1" xmlns="http://www.w3.org/2000/svg" xmlns:xlink="http://www.w3.org/1999/xlink" x="0px" y="0px"
	 viewBox="0 0 512 512" style="enable-background:new 0 0 512 512;" xml:space="preserve">
<style type="text/css">
	.st0{fill:url(#SVGID_1_);}
	.st1{fill:#FFFFFF;}
</style>
<g>
	<linearGradient id="SVGID_1_" gradientUnits="userSpaceOnUse" x1="371.0553" y1="421.8318" x2="156.5787" y2="50.3474">
		<stop  offset="0" style="stop-color:#62738C"/>
		<stop  offset="1" style="stop-color:#68739D"/>
	</linearGradient>
	<path class="st0" d="M454.8,222.6c0-109.8-89-198.8-198.8-198.8s-198.8,89-198.8,198.8c0,87.6,56.7,162,135.4,188.5l63.4,77.2
		l63.4-77.2C398.1,384.6,454.8,310.2,454.8,222.6z"/>
	<g>
		<rect x="237.8" y="204.7" class="st1" width="36.4" height="36.4"/>
		<rect x="165.1" y="204.7" class="st1" width="36.4" height="36.4"/>
		<rect x="310.6" y="204.7" class="st1" width="36.4" height="36.4"/>
		<rect x="274.2" y="168.4" class="st1" width="36.4" height="36.4"/>
		<rect x="201.4" y="168.4" class="st1" width="36.4" height="36.4"/>
		<rect x="274.2" y="241.1" class="st1" width="36.4" height="36.4"/>
		<rect x="201.4" y="241.1" class="st1" width="36.4" height="36.4"/>
	</g>
</g>
</svg>
