<?xml version="1.0" encoding="utf-8"?>
<!-- Generator: Adobe Illustrator 19.2.1, SVG Export Plug-In . SVG Version: 6.00 Build 0)  -->
<svg version="1.1" id="Layer_1" xmlns="http://www.w3.org/2000/svg" xmlns:xlink="http://www.w3.org/1999/xlink" x="0px" y="0px"
	 viewBox="0 0 512 512" style="enable-background:new 0 0 512 512;" xml:space="preserve">
<style type="text/css">
	.st0{fill:url(#SVGID_1_);}
	.st1{fill:#FFFFFF;}
</style>
<g>
	<linearGradient id="SVGID_1_" gradientUnits="userSpaceOnUse" x1="371.0553" y1="421.8318" x2="156.5787" y2="50.3475">
		<stop  offset="0" style="stop-color:#674C3F"/>
		<stop  offset="0.7831" style="stop-color:#8E6D5D"/>
	</linearGradient>
	<path class="st0" d="M454.8,222.6c0-109.8-89-198.8-198.8-198.8s-198.8,89-198.8,198.8c0,87.6,56.7,162,135.4,188.5l63.4,77.2
		l63.4-77.2C398.1,384.6,454.8,310.2,454.8,222.6z"/>
	<g>
		<path class="st1" d="M363.6,261.1l-41.4-49.4l-15.6-51.3l-50.8-14L233,174.9l-43.8-4.8l-41.5,71.3c-1.9,3.3-0.8,7.6,2.5,9.6
			c3.3,1.9,7.6,0.8,9.6-2.5l36.9-63.4l42.4,4.6l21.8-27.3l34.5,9.5l14.2,46.7l43.2,51.6c1.4,1.7,3.4,2.5,5.4,2.5
			c1.6,0,3.2-0.5,4.5-1.6C365.7,268.5,366.1,264.1,363.6,261.1z"/>
		<path class="st1" d="M258.4,210.9c-19.6,0-35.6,16-35.6,35.6v23.9c0,3.9,3.1,7,7,7s7-3.1,7-7v-23.9c0-11.9,9.7-21.6,21.6-21.6
			c11.9,0,21.6,9.7,21.6,21.6v23.9c0,3.9,3.1,7,7,7s7-3.1,7-7v-23.9C293.9,226.9,278,210.9,258.4,210.9z"/>
	</g>
</g>
</svg>
