<?xml version="1.0" encoding="utf-8"?>
<!-- Generator: Adobe Illustrator 19.2.1, SVG Export Plug-In . SVG Version: 6.00 Build 0)  -->
<svg version="1.1" id="Layer_1" xmlns="http://www.w3.org/2000/svg" xmlns:xlink="http://www.w3.org/1999/xlink" x="0px" y="0px"
	 viewBox="0 0 512 512" style="enable-background:new 0 0 512 512;" xml:space="preserve">
<style type="text/css">
	.st0{fill:url(#SVGID_1_);}
	.st1{fill:#FFFFFF;}
</style>
<g>
	<linearGradient id="SVGID_1_" gradientUnits="userSpaceOnUse" x1="371.0553" y1="421.8318" x2="156.5787" y2="50.3474">
		<stop  offset="0" style="stop-color:#674C3F"/>
		<stop  offset="0.7831" style="stop-color:#8E6D5D"/>
	</linearGradient>
	<path class="st0" d="M454.8,222.6c0-109.8-89-198.8-198.8-198.8s-198.8,89-198.8,198.8c0,87.6,56.7,162,135.4,188.5l63.4,77.2
		l63.4-77.2C398.1,384.6,454.8,310.2,454.8,222.6z"/>
	<path class="st1" d="M365.5,271.5l-43.9-40.2L305,202.8l-11.7-3.2v-82.2c0-3.9-3.1-7-7-7s-7,3.1-7,7v19.9h-20.8v-14.1
		c0-3.9-3.1-7-7-7s-7,3.1-7,7v14.1h-20.8v-19.9c0-3.9-3.1-7-7-7s-7,3.1-7,7v99l-28.1-3.1l-31,76.1c-1.5,3.6,0.3,7.7,3.8,9.1
		c0.9,0.4,1.8,0.5,2.6,0.5c2.8,0,5.4-1.6,6.5-4.4l27-66.3l25.4,2.8c0,0,0,0,0,0l18.7,2l23.1-28.9l37.9,10.5l14.8,25.4l45.5,41.6
		c2.9,2.6,7.3,2.4,9.9-0.4C368.6,278.6,368.4,274.2,365.5,271.5z M279.3,195.8l-26.6-7.3l-24.1,30.1l-4.8-0.5v-66.6h55.5V195.8z"/>
</g>
</svg>
