<?xml version="1.0" encoding="utf-8"?>
<!-- Generator: Adobe Illustrator 19.2.1, SVG Export Plug-In . SVG Version: 6.00 Build 0)  -->
<svg version="1.1" id="Layer_1" xmlns="http://www.w3.org/2000/svg" xmlns:xlink="http://www.w3.org/1999/xlink" x="0px" y="0px"
	 viewBox="0 0 512 512" style="enable-background:new 0 0 512 512;" xml:space="preserve">
<style type="text/css">
	.st0{fill:url(#SVGID_1_);stroke:url(#SVGID_2_);stroke-miterlimit:10;}
	.st1{fill:#FFFFFF;}
</style>
<g>
	<linearGradient id="SVGID_1_" gradientUnits="userSpaceOnUse" x1="371.0553" y1="421.8318" x2="156.5787" y2="50.3475">
		<stop  offset="0" style="stop-color:#793798"/>
		<stop  offset="0.7831" style="stop-color:#824CB4"/>
	</linearGradient>
	<linearGradient id="SVGID_2_" gradientUnits="userSpaceOnUse" x1="56.6895" y1="256.144" x2="455.3105" y2="256.144">
		<stop  offset="0" style="stop-color:#FFFFFF;stop-opacity:0.3"/>
		<stop  offset="1" style="stop-color:#FFFFFF;stop-opacity:0"/>
	</linearGradient>
	<path class="st0" d="M454.8,222.6c0-109.8-89-198.8-198.8-198.8s-198.8,89-198.8,198.8c0,87.6,56.7,162,135.4,188.5l63.4,77.2
		l63.4-77.2C398.1,384.6,454.8,310.2,454.8,222.6z"/>
	<g>
		<path class="st1" d="M355.3,179.5c-1.3-1.8-3.4-2.8-5.6-2.8h-77.3l43.2-43.2c2.7-2.7,2.7-7.2,0-9.9c-2.7-2.7-7.2-2.7-9.9,0
			L256,173.2l-49.7-49.7c-2.7-2.7-7.2-2.7-9.9,0s-2.7,7.2,0,9.9l43.2,43.2h-77.3c-2.2,0-4.3,1.1-5.6,2.8s-1.7,4.1-1.1,6.2
			l35.7,117.5c0.9,2.9,3.6,5,6.7,5h115.8c3.1,0,5.8-2,6.7-5l35.7-117.5C357,183.5,356.6,181.2,355.3,179.5z M308.7,294.1H203.3
			l-31.5-103.5h168.4L308.7,294.1z"/>
		<path class="st1" d="M256,271c3.9,0,7-3.1,7-7v-47.9c0-3.9-3.1-7-7-7s-7,3.1-7,7V264C249,267.9,252.1,271,256,271z"/>
		<path class="st1" d="M284.6,271c3.9,0,7-3.1,7-7v-47.9c0-3.9-3.1-7-7-7s-7,3.1-7,7V264C277.6,267.9,280.7,271,284.6,271z"/>
		<path class="st1" d="M227.4,271c3.9,0,7-3.1,7-7v-47.9c0-3.9-3.1-7-7-7s-7,3.1-7,7V264C220.4,267.9,223.6,271,227.4,271z"/>
	</g>
</g>
</svg>
