<?xml version="1.0" encoding="utf-8"?>
<!-- Generator: Adobe Illustrator 19.2.1, SVG Export Plug-In . SVG Version: 6.00 Build 0)  -->
<svg version="1.1" id="Layer_1" xmlns="http://www.w3.org/2000/svg" xmlns:xlink="http://www.w3.org/1999/xlink" x="0px" y="0px"
	 viewBox="0 0 512 512" style="enable-background:new 0 0 512 512;" xml:space="preserve">
<style type="text/css">
	.st0{fill:url(#SVGID_1_);}
	.st1{fill:#FFFFFF;}
</style>
<g>
	<linearGradient id="SVGID_1_" gradientUnits="userSpaceOnUse" x1="371.0553" y1="421.8318" x2="156.5787" y2="50.3474">
		<stop  offset="0" style="stop-color:#674C3F"/>
		<stop  offset="0.7831" style="stop-color:#8E6D5D"/>
	</linearGradient>
	<path class="st0" d="M454.8,222.6c0-109.8-89-198.8-198.8-198.8s-198.8,89-198.8,198.8c0,87.6,56.7,162,135.4,188.5l63.4,77.2
		l63.4-77.2C398.1,384.6,454.8,310.2,454.8,222.6z"/>
	<path class="st1" d="M323.7,180.3H260v-63.7c0-3.9-3.1-7-7-7s-7,3.1-7,7v63.7h-63.7c-3.9,0-7,3.1-7,7s3.1,7,7,7H246v124.5
		c0,3.9,3.1,7,7,7s7-3.1,7-7V194.3h63.7c3.9,0,7-3.1,7-7S327.6,180.3,323.7,180.3z"/>
</g>
</svg>
