<?xml version="1.0" encoding="utf-8"?>
<!-- Generator: Adobe Illustrator 19.2.1, SVG Export Plug-In . SVG Version: 6.00 Build 0)  -->
<svg version="1.1" id="Layer_1" xmlns="http://www.w3.org/2000/svg" xmlns:xlink="http://www.w3.org/1999/xlink" x="0px" y="0px"
	 viewBox="0 0 512 512" style="enable-background:new 0 0 512 512;" xml:space="preserve">
<style type="text/css">
	.st0{fill:url(#SVGID_1_);}
	.st1{fill:#FFFFFF;}
</style>
<g>
	<linearGradient id="SVGID_1_" gradientUnits="userSpaceOnUse" x1="371.0553" y1="421.8318" x2="156.5787" y2="50.3475">
		<stop  offset="1.359216e-02" style="stop-color:#B84E3F"/>
		<stop  offset="0.5828" style="stop-color:#D04E3F"/>
	</linearGradient>
	<path class="st0" d="M454.8,222.6c0-109.8-89-198.8-198.8-198.8s-198.8,89-198.8,198.8c0,87.6,56.7,162,135.4,188.5l63.4,77.2
		l63.4-77.2C398.1,384.6,454.8,310.2,454.8,222.6z"/>
	<path class="st1" d="M256,105.6c-64.7,0-117.3,52.6-117.3,117.3S191.3,340.3,256,340.3s117.3-52.6,117.3-117.3
		S320.7,105.6,256,105.6z M265,230.7c4.1-4.3,11.8-11.5,22.5-17.9c21.7-13.1,45.1-17,69.5-11.7c1.5,7.1,2.3,14.4,2.3,21.9
		c0,7.3-0.8,14.5-2.2,21.4c-29.7-6.1-59.9,12.3-72.6,21.4C279,252.5,272.4,240.9,265,230.7z M352.5,186
		c-25.3-3.8-50.2,1.4-72.7,15.1c-10.7,6.5-18.6,13.6-23.5,18.6c-8.7-10-18-18.4-27.4-25.4c11.8-14.5,47.8-52.6,96.2-47.2
		c0.3,0,0.7,0,1,0C337.6,157.7,346.8,171,352.5,186z M256,119.6c18.4,0,35.7,4.9,50.7,13.3c-21.6,2-43,11.1-62.8,26.8
		c-12.7,10.1-21.8,20.5-26.7,26.6c-17.4-10.8-34.3-17.3-47-21C188.8,137.8,220.3,119.6,256,119.6z M152.8,228.9
		c12.7,4.8,30.4,14.1,45.6,27.6c21.6,19.2,33.4,41.8,35.2,67.3C189.3,314,155.5,275.5,152.8,228.9z M247.8,325.9
		c-1.3-30.1-15.1-57.8-40-79.9c-18.6-16.5-40-27.1-54.7-31.9c1.1-12.9,4.6-25.1,10-36.3c33.8,9.3,107.8,40.9,121.1,141.6
		c0.1,1,0.5,1.9,0.9,2.7c-9.2,2.7-19,4.2-29.1,4.2C253.2,326.3,250.5,326.1,247.8,325.9z M298,317.3c-1.8-13.8-4.7-26.4-8.5-37.9
		c8-6.1,37-26.4,63.7-21.6C343.7,284.4,323.6,305.9,298,317.3z"/>
</g>
</svg>
