<?xml version="1.0" encoding="utf-8"?>
<!-- Generator: Adobe Illustrator 19.2.1, SVG Export Plug-In . SVG Version: 6.00 Build 0)  -->
<svg version="1.1" id="Layer_1" xmlns="http://www.w3.org/2000/svg" xmlns:xlink="http://www.w3.org/1999/xlink" x="0px" y="0px"
	 viewBox="0 0 512 512" style="enable-background:new 0 0 512 512;" xml:space="preserve">
<style type="text/css">
	.st0{fill:url(#SVGID_1_);}
	.st1{fill:#FFFFFF;}
</style>
<g>
	<linearGradient id="SVGID_1_" gradientUnits="userSpaceOnUse" x1="371.0553" y1="421.8318" x2="156.5787" y2="50.3475">
		<stop  offset="0" style="stop-color:#1CB0D4"/>
		<stop  offset="0.6863" style="stop-color:#56C8FF"/>
	</linearGradient>
	<path class="st0" d="M454.8,222.6c0-109.8-89-198.8-198.8-198.8s-198.8,89-198.8,198.8c0,87.6,56.7,162,135.4,188.5l63.4,77.2
		l63.4-77.2C398.1,384.6,454.8,310.2,454.8,222.6z"/>
	<g>
		<path class="st1" d="M354.5,120.4c-1.5-3.5-5.7-5.2-9.2-3.6l-91.9,40.2c0,0,0,0-0.1,0l-122.2,53.4c-3.5,1.5-5.2,5.7-3.6,9.2
			c1.1,2.6,3.7,4.2,6.4,4.2c0.9,0,1.9-0.2,2.8-0.6l112.4-49.1V225h-28.6v94.6h71.2V225h-28.6v-57l87.8-38.4
			C354.5,128,356.1,123.9,354.5,120.4z M277.7,305.6h-43.2V239h43.2V305.6z"/>
		<path class="st1" d="M256.1,279.3c3.9,0,7-3.1,7-7v-14.6c0-3.9-3.1-7-7-7s-7,3.1-7,7v14.6C249.1,276.2,252.2,279.3,256.1,279.3z"
			/>
	</g>
</g>
</svg>
