<?xml version="1.0" encoding="utf-8"?>
<!-- Generator: Adobe Illustrator 19.2.1, SVG Export Plug-In . SVG Version: 6.00 Build 0)  -->
<svg version="1.1" id="Layer_1" xmlns="http://www.w3.org/2000/svg" xmlns:xlink="http://www.w3.org/1999/xlink" x="0px" y="0px"
	 viewBox="0 0 512 512" style="enable-background:new 0 0 512 512;" xml:space="preserve">
<style type="text/css">
	.st0{fill:url(#SVGID_1_);}
	.st1{fill:#FFFFFF;}
</style>
<g>
	<linearGradient id="SVGID_1_" gradientUnits="userSpaceOnUse" x1="371.0553" y1="421.8318" x2="156.5787" y2="50.3474">
		<stop  offset="0" style="stop-color:#D22242"/>
		<stop  offset="1" style="stop-color:#FF2242"/>
	</linearGradient>
	<path class="st0" d="M454.8,222.6c0-109.8-89-198.8-198.8-198.8s-198.8,89-198.8,198.8c0,87.6,56.7,162,135.4,188.5l63.4,77.2
		l63.4-77.2C398.1,384.6,454.8,310.2,454.8,222.6z"/>
	<path class="st1" d="M360.5,268.7l-3.1-2.1c-0.5-0.4-54.4-37.6-94.5-118.4v-15.4l19.1-12.1c0.1,0,0.1-0.1,0.2-0.1
		c0.1-0.1,0.2-0.1,0.3-0.2c0.1-0.1,0.3-0.2,0.4-0.3c0.1-0.1,0.1-0.1,0.2-0.2c0.2-0.2,0.4-0.4,0.6-0.6c0,0,0-0.1,0.1-0.1
		c0.2-0.2,0.3-0.4,0.4-0.6c0,0,0,0,0.1-0.1c0,0,0-0.1,0.1-0.1c0.1-0.1,0.1-0.2,0.2-0.4c0-0.1,0.1-0.2,0.1-0.3
		c0.1-0.1,0.1-0.2,0.1-0.3c0-0.1,0.1-0.2,0.1-0.3c0-0.1,0.1-0.2,0.1-0.3c0-0.1,0.1-0.3,0.1-0.4c0-0.1,0-0.2,0.1-0.3
		c0-0.1,0.1-0.3,0.1-0.4c0-0.1,0-0.2,0-0.3c0-0.1,0-0.2,0-0.4c0-0.1,0-0.2,0-0.3c0-0.1,0-0.2,0-0.3c0-0.1,0-0.2,0-0.4
		c0-0.1,0-0.2,0-0.3c0-0.1,0-0.3-0.1-0.4c0-0.1,0-0.2-0.1-0.3c0-0.1-0.1-0.3-0.1-0.4c0-0.1-0.1-0.2-0.1-0.3c0-0.1-0.1-0.2-0.1-0.3
		c0-0.1-0.1-0.2-0.1-0.3c0-0.1-0.1-0.2-0.1-0.3c-0.1-0.1-0.1-0.2-0.2-0.4c0,0,0-0.1-0.1-0.1c0,0,0-0.1-0.1-0.1
		c-0.1-0.1-0.2-0.2-0.3-0.4c-0.1-0.1-0.1-0.1-0.2-0.2c-0.1-0.1-0.2-0.2-0.3-0.3c-0.1-0.1-0.1-0.2-0.2-0.2c-0.1-0.1-0.2-0.2-0.2-0.2
		c-0.1-0.1-0.2-0.2-0.3-0.3c-0.1-0.1-0.1-0.1-0.2-0.2c-0.1-0.1-0.2-0.2-0.4-0.3c0,0-0.1,0-0.1-0.1l-22.4-14.2
		c-3.3-2.1-7.6-1.1-9.7,2.2c-0.8,1.3-1.1,2.7-1.1,4.1c0,0.1,0,0.2,0,0.3v46.8c-40.1,80.8-93.9,118.1-94.4,118.4l-3.1,2.1v28.9
		c0,3.9,3.1,7,7,7s7-3.1,7-7v-16.7c12.6,2.9,32.3,9.1,43.1,19.5v30.2c0,3.9,3.1,7,7,7s7-3.1,7-7v-28.2c7.1-2.5,21.5-6.9,33.5-6.9
		c12,0,26.4,4.4,33.5,6.9v28.1c0,3.9,3.1,7,7,7s7-3.1,7-7v-30.2c11.4-11,31.8-16.9,43.1-19.5v16.6c0,3.9,3.1,7,7,7s7-3.1,7-7
		L360.5,268.7z M337.4,268.7c-10.8,2.9-25.3,7.9-36.8,16l-23.3-84.2C300.6,234.9,323.8,257.2,337.4,268.7z M256,281.5
		c-10.5,0-22.1,2.7-30.7,5.3L256,176l30.7,110.7C278.1,284.2,266.5,281.5,256,281.5z M263,113.3l2.3,1.5l-2.3,1.5V113.3z
		 M234.7,200.5l-23.3,84.2c-11.5-8.1-26-13.1-36.8-16C188.2,257.2,211.4,234.9,234.7,200.5z"/>
</g>
</svg>
