<?xml version="1.0" encoding="utf-8"?>
<!-- Generator: Adobe Illustrator 19.2.1, SVG Export Plug-In . SVG Version: 6.00 Build 0)  -->
<svg version="1.1" id="Layer_1" xmlns="http://www.w3.org/2000/svg" xmlns:xlink="http://www.w3.org/1999/xlink" x="0px" y="0px"
	 viewBox="0 0 512 512" style="enable-background:new 0 0 512 512;" xml:space="preserve">
<style type="text/css">
	.st0{fill:url(#SVGID_1_);}
	.st1{fill:#FFFFFF;}
</style>
<g>
	<linearGradient id="SVGID_1_" gradientUnits="userSpaceOnUse" x1="371.0553" y1="421.8318" x2="156.5787" y2="50.3475">
		<stop  offset="0" style="stop-color:#674C3F"/>
		<stop  offset="0.7831" style="stop-color:#8E6D5D"/>
	</linearGradient>
	<path class="st0" d="M454.8,222.6c0-109.8-89-198.8-198.8-198.8s-198.8,89-198.8,198.8c0,87.6,56.7,162,135.4,188.5l63.4,77.2
		l63.4-77.2C398.1,384.6,454.8,310.2,454.8,222.6z"/>
	<path class="st1" d="M336.7,143.2c-16.6-16.6-40.6-23.4-67.8-19.4c-26.4,4-52.6,17.9-73.9,39.2c-21.3,21.3-35.2,47.5-39.2,73.9
		c-4.1,27.1,2.8,51.2,19.4,67.8v0c0.1,0.1,0.1,0.1,0.2,0.2c0,0,0,0,0.1,0.1c13.4,13.3,31.7,20.3,52.6,20.3c4.9,0,9.9-0.4,15-1.1
		c26.4-4,52.6-17.9,73.9-39.2c21.3-21.3,35.2-47.5,39.2-73.9C360.2,183.8,353.3,159.8,336.7,143.2z M169.7,239
		c3.5-23.4,16-46.9,35.2-66.1c19.2-19.2,42.7-31.7,66.1-35.2c4.4-0.7,8.7-1,12.8-1c15.9,0,29.9,4.8,40.4,14
		c-4.4,23.3-17,41.4-37.3,53.8c-16.3,10-31.7,12.5-32,12.5c0,0,0,0,0,0c-36.7,5.6-57,27.5-67.5,44.9c-4.9,8.1-8.2,16-10.3,22.3
		C169.7,271.9,167.2,256.3,169.7,239z M342.3,208.9c-3.5,23.4-16,46.9-35.2,66.1c-19.2,19.2-42.7,31.7-66.1,35.2
		c-21.2,3.2-39.8-1.4-53.1-12.9c3.1-13,17.5-58.6,69.2-66.4c0.8-0.1,18.1-2.8,36.7-14.1c14.9-9,33.1-25.1,41.5-52.6
		C342.3,176.4,344.8,191.9,342.3,208.9z"/>
</g>
</svg>
