<?xml version="1.0" encoding="utf-8"?>
<!-- Generator: Adobe Illustrator 19.2.1, SVG Export Plug-In . SVG Version: 6.00 Build 0)  -->
<svg version="1.1" id="Layer_1" xmlns="http://www.w3.org/2000/svg" xmlns:xlink="http://www.w3.org/1999/xlink" x="0px" y="0px"
	 viewBox="0 0 512 512" style="enable-background:new 0 0 512 512;" xml:space="preserve">
<style type="text/css">
	.st0{fill:url(#SVGID_1_);}
	.st1{fill:#FFFFFF;}
</style>
<g>
	<linearGradient id="SVGID_1_" gradientUnits="userSpaceOnUse" x1="371.0553" y1="421.8318" x2="156.5787" y2="50.3474">
		<stop  offset="0" style="stop-color:#62738C"/>
		<stop  offset="1" style="stop-color:#68739D"/>
	</linearGradient>
	<path class="st0" d="M454.8,222.6c0-109.8-89-198.8-198.8-198.8s-198.8,89-198.8,198.8c0,87.6,56.7,162,135.4,188.5l63.4,77.2
		l63.4-77.2C398.1,384.6,454.8,310.2,454.8,222.6z"/>
	<path class="st1" d="M337,301.2l-45.8-163.3c-1-3.7-4.9-5.9-8.6-4.9c-3.7,1-5.9,4.9-4.9,8.6l7.2,25.8h-57.9l7.2-25.8
		c1-3.7-1.1-7.6-4.9-8.6c-3.7-1-7.6,1.1-8.6,4.9L175,301.2c-1,3.7,1.1,7.6,4.9,8.6c0.6,0.2,1.3,0.3,1.9,0.3c3.1,0,5.9-2,6.7-5.1
		l10.4-37h114.3l10.4,37c0.9,3.1,3.7,5.1,6.7,5.1c0.6,0,1.3-0.1,1.9-0.3C335.9,308.8,338,304.9,337,301.2z M288.9,181.4l6.5,23.1
		h-78.7l6.5-23.1H288.9z M202.8,254l10-35.5h86.5l10,35.5H202.8z"/>
</g>
</svg>
