<?xml version="1.0" encoding="utf-8"?>
<!-- Generator: Adobe Illustrator 19.2.1, SVG Export Plug-In . SVG Version: 6.00 Build 0)  -->
<svg version="1.1" id="Layer_1" xmlns="http://www.w3.org/2000/svg" xmlns:xlink="http://www.w3.org/1999/xlink" x="0px" y="0px"
	 viewBox="0 0 512 512" style="enable-background:new 0 0 512 512;" xml:space="preserve">
<style type="text/css">
	.st0{fill:url(#SVGID_1_);}
	.st1{fill:#FFFFFF;}
</style>
<g>
	<linearGradient id="SVGID_1_" gradientUnits="userSpaceOnUse" x1="371.0553" y1="421.8318" x2="156.5787" y2="50.3475">
		<stop  offset="0" style="stop-color:#62738C"/>
		<stop  offset="1" style="stop-color:#68739D"/>
	</linearGradient>
	<path class="st0" d="M454.8,222.6c0-109.8-89-198.8-198.8-198.8s-198.8,89-198.8,198.8c0,87.6,56.7,162,135.4,188.5l63.4,77.2
		l63.4-77.2C398.1,384.6,454.8,310.2,454.8,222.6z"/>
	<path class="st1" d="M323.4,134.1c-0.1,0-0.2,0-0.3-0.1c-1-0.5-2-0.8-3.2-0.8H192.1c-1.2,0-2.2,0.3-3.2,0.8c-0.1,0-0.2,0-0.3,0.1
		c-3.8,0.9-6.1,4.6-5.3,8.4l38,165.9c0.7,3.2,3.6,5.4,6.8,5.4c0.2,0,0.4,0,0.5,0c0.1,0,0.3,0,0.4,0h54.6c0.1,0,0.1,0,0.2,0
		c0.1,0,0.1,0,0.2,0c0.3,0,0.6,0,0.9-0.1c0,0,0.1,0,0.1,0c3.1-0.5,5.5-3.1,5.8-6.3l37.8-164.9C329.5,138.7,327.2,134.9,323.4,134.1z
		 M270.4,147.2l0.9,0.9L256,163.4l-15.3-15.3l0.9-0.9H270.4z M310.2,159.7l-3.8,3.8l-16.2-16.2h23l-2.8,12.2
		C310.3,159.5,310.3,159.6,310.2,159.7z M295.4,225.1c-0.4,0.2-0.7,0.5-1,0.8l-13.2,13.2l-15.3-15.3l15.3-15.3l14.6,14.6
		L295.4,225.1z M216.6,224.8l-0.4-1.8c0.2-0.2,0.4-0.3,0.6-0.5l14-14l15.3,15.3l-15.3,15.3L216.6,224.8z M230.8,158l15.3,15.3
		l-15.3,15.3l-15.3-15.3L230.8,158z M256,183.2l15.3,15.3L256,213.8l-15.3-15.3L256,183.2z M220.9,198.5l-8.4,8.4l-5-21.9
		L220.9,198.5z M256,233.6l15.3,15.3L256,264.3L240.7,249L256,233.6z M291.1,198.5l13.4-13.4l-5,21.9L291.1,198.5z M281.2,188.6
		l-15.3-15.3l15.3-15.3l15.3,15.3L281.2,188.6z M205.6,163.4l-3.9-3.9c0,0-0.1-0.1-0.1-0.1l-2.8-12.2h23L205.6,163.4z M230.8,258.9
		l15.3,15.3l-13.2,13.2h-2.1l-5.3-23.2L230.8,258.9z M252.7,287.3l3.3-3.3l3.3,3.3H252.7z M281.1,287.3h-2.1l-13.2-13.2l15.3-15.3
		l5.2,5.2L281.1,287.3z"/>
</g>
</svg>
