<?xml version="1.0" encoding="utf-8"?>
<!-- Generator: Adobe Illustrator 19.2.1, SVG Export Plug-In . SVG Version: 6.00 Build 0)  -->
<svg version="1.1" id="Layer_1" xmlns="http://www.w3.org/2000/svg" xmlns:xlink="http://www.w3.org/1999/xlink" x="0px" y="0px"
	 viewBox="0 0 512 512" style="enable-background:new 0 0 512 512;" xml:space="preserve">
<style type="text/css">
	.st0{fill:url(#SVGID_1_);}
	.st1{fill:#FFFFFF;}
</style>
<g>
	<linearGradient id="SVGID_1_" gradientUnits="userSpaceOnUse" x1="371.0553" y1="421.8318" x2="156.5787" y2="50.3474">
		<stop  offset="0" style="stop-color:#EC7AB5"/>
		<stop  offset="1" style="stop-color:#FF94D5"/>
	</linearGradient>
	<path class="st0" d="M454.8,222.6c0-109.8-89-198.8-198.8-198.8s-198.8,89-198.8,198.8c0,87.6,56.7,162,135.4,188.5l63.4,77.2
		l63.4-77.2C398.1,384.6,454.8,310.2,454.8,222.6z"/>
	<g>
		<path class="st1" d="M308.1,155.6c-3.7-2.1-24.7-13.6-49.2-22.2c-37.5-13.1-64.1-12.8-79.1,1c-21.7,20-15.8,64.5,17.9,136.1
			c12.7,33.1,44.8,56.7,82.3,56.7c48.6,0,88.1-39.5,88.1-88.1C368.1,200.4,342.9,167.4,308.1,155.6z M189.3,144.7
			c10.7-9.9,33.1-9.2,64.8,1.8c4.8,1.7,9.4,3.5,13.8,5.3c-37.9,5.2-68.2,34.7-74.7,72.2C174.9,173.9,180.2,153.2,189.3,144.7z
			 M280,313.2c-40.9,0-74.1-33.2-74.1-74.1S239.1,165,280,165s74.1,33.2,74.1,74.1S320.9,313.2,280,313.2z"/>
		<path class="st1" d="M294.7,194.3c-13.5,0-24.5,11-24.5,24.5s11,24.5,24.5,24.5s24.5-11,24.5-24.5S308.2,194.3,294.7,194.3z
			 M294.7,229.2c-5.8,0-10.5-4.7-10.5-10.5c0-5.8,4.7-10.5,10.5-10.5s10.5,4.7,10.5,10.5C305.2,224.5,300.5,229.2,294.7,229.2z"/>
	</g>
</g>
</svg>
