<?xml version="1.0" encoding="utf-8"?>
<!-- Generator: Adobe Illustrator 19.2.1, SVG Export Plug-In . SVG Version: 6.00 Build 0)  -->
<svg version="1.1" id="Layer_1" xmlns="http://www.w3.org/2000/svg" xmlns:xlink="http://www.w3.org/1999/xlink" x="0px" y="0px"
	 viewBox="0 0 512 512" style="enable-background:new 0 0 512 512;" xml:space="preserve">
<style type="text/css">
	.st0{fill:url(#SVGID_1_);}
	.st1{fill:#FFFFFF;}
</style>
<g>
	<linearGradient id="SVGID_1_" gradientUnits="userSpaceOnUse" x1="371.0552" y1="421.8318" x2="156.5787" y2="50.3475">
		<stop  offset="0" style="stop-color:#EC7AB5"/>
		<stop  offset="1" style="stop-color:#FF94D5"/>
	</linearGradient>
	<path class="st0" d="M454.8,222.6c0-109.8-89-198.8-198.8-198.8s-198.8,89-198.8,198.8c0,87.6,56.7,162,135.4,188.5l63.4,77.2
		l63.4-77.2C398.1,384.6,454.8,310.2,454.8,222.6z"/>
	<g>
		<path class="st1" d="M373.1,175.4l-55.4-55.4c-6.8-6.8-14.1-9.9-21.8-9.4c-11.2,0.7-18.7,9.1-20.4,11.2l-77.1,77.1
			c-2.5,2.5-2.5,6.6,0,9.1l5.7,5.7l-47.8,47.8c-5.7,5.7-8.8,13.2-8.8,21.2s3.1,15.6,8.8,21.2c5.9,5.9,13.5,8.8,21.2,8.8
			s15.4-2.9,21.2-8.8c9.5-9.5,11.3-24.3,5-35.7l27.4-27.4l38.3,38.3c1.3,1.3,2.9,1.9,4.5,1.9c1.6,0,3.3-0.6,4.5-1.9l94.6-94.6
			c1.2-1.2,1.9-2.8,1.9-4.5S374.3,176.6,373.1,175.4z M191.3,262.5c-2.7,2.3-3,6.3-0.7,9c5.8,6.8,5.4,17-0.9,23.3
			c-6.7,6.7-17.6,6.7-24.3,0c-3.2-3.2-5-7.6-5-12.2s1.8-8.9,5-12.2l47.8-47.8l9,9L191.3,262.5z M274,265.5l-9.8-9.8l70.1-70.1
			c2.5-2.5,2.5-6.6,0-9.1s-6.6-2.5-9.1,0l-70.1,70.1L212,203.5l72.8-72.8c0.2-0.2,0.4-0.4,0.5-0.6c0-0.1,5-6.2,11.4-6.6
			c3.8-0.3,7.9,1.7,11.9,5.7l50.8,50.8L274,265.5z"/>
		
			<ellipse transform="matrix(0.7071 -0.7071 0.7071 0.7071 -18.019 253.8211)" class="st1" cx="297.4" cy="148.7" rx="11.6" ry="11.6"/>
		
			<ellipse transform="matrix(0.7071 -0.7071 0.7071 0.7071 -147.9166 208.3002)" class="st1" cx="177.5" cy="282.7" rx="8.1" ry="8.1"/>
	</g>
</g>
</svg>
