<?xml version="1.0" encoding="utf-8"?>
<!-- Generator: Adobe Illustrator 19.2.1, SVG Export Plug-In . SVG Version: 6.00 Build 0)  -->
<svg version="1.1" id="Layer_1" xmlns="http://www.w3.org/2000/svg" xmlns:xlink="http://www.w3.org/1999/xlink" x="0px" y="0px"
	 viewBox="0 0 512 512" style="enable-background:new 0 0 512 512;" xml:space="preserve">
<style type="text/css">
	.st0{fill:url(#SVGID_1_);}
	.st1{fill:#FFFFFF;}
</style>
<g>
	<linearGradient id="SVGID_1_" gradientUnits="userSpaceOnUse" x1="371.0553" y1="421.8318" x2="156.5787" y2="50.3475">
		<stop  offset="0" style="stop-color:#315DFF"/>
		<stop  offset="0.725" style="stop-color:#128FFF"/>
	</linearGradient>
	<path class="st0" d="M454.8,222.6c0-109.8-89-198.8-198.8-198.8s-198.8,89-198.8,198.8c0,87.6,56.7,162,135.4,188.5l63.4,77.2
		l63.4-77.2C398.1,384.6,454.8,310.2,454.8,222.6z"/>
	<g>
		<path class="st1" d="M290.6,196.3h-33.9h-1.5h-33.9l-14.6,39.8h-0.5v50h10.6v9.4c0,3.9,3.1,7,7,7s7-3.1,7-7v-9.4h50.1v9.4
			c0,3.9,3.1,7,7,7s7-3.1,7-7v-9.4h10.6v-50h-0.5L290.6,196.3z M220.3,272.1v-22h71.3v22H220.3z M231.2,210.3h24.1h1.5h24.1
			l9.4,25.8h-68.5L231.2,210.3z"/>
		<path class="st1" d="M256.7,178.5c15.5,0,28.1-12.6,28.1-28.1c0-4-0.9-8-2.5-11.6c-0.1-0.4-0.3-0.8-0.5-1.2L263,99.5
			c-1.2-2.4-3.6-3.9-6.3-3.9s-5.1,1.5-6.3,3.9l-18.8,38.1c-0.2,0.4-0.4,0.8-0.5,1.2c-1.7,3.6-2.5,7.6-2.5,11.6
			C228.6,165.9,241.2,178.5,256.7,178.5z M244.2,144c0.2-0.4,0.4-0.8,0.5-1.3l12-24.3l12,24.3c0.1,0.4,0.3,0.9,0.5,1.3
			c1,2,1.6,4.2,1.6,6.5c0,7.8-6.3,14.1-14.1,14.1s-14.1-6.3-14.1-14.1C242.6,148.1,243.2,146,244.2,144z"/>
		<path class="st1" d="M180.6,195.8c3.9,0,7-3.1,7-7s-3.1-7-7-7H166c-0.5-3.4-3.4-6.1-6.9-6.1s-6.5,2.6-6.9,6.1h-14.7
			c-3.9,0-7,3.1-7,7s3.1,7,7,7h14.6v6.1h-14.6c-3.9,0-7,3.1-7,7s3.1,7,7,7h14.6v6.1h-14.6c-3.9,0-7,3.1-7,7s3.1,7,7,7h14.6v6.1
			h-14.6c-3.9,0-7,3.1-7,7s3.1,7,7,7h14.6v6.1h-14.6c-3.9,0-7,3.1-7,7s3.1,7,7,7h14.6v6.1h-14.6c-3.9,0-7,3.1-7,7s3.1,7,7,7h14.7
			c0.5,3.4,3.4,6.1,6.9,6.1s6.5-2.6,6.9-6.1h14.7c3.9,0,7-3.1,7-7s-3.1-7-7-7h-14.6v-6.1h14.6c3.9,0,7-3.1,7-7s-3.1-7-7-7h-14.6
			v-6.1h14.6c3.9,0,7-3.1,7-7s-3.1-7-7-7h-14.6v-6.1h14.6c3.9,0,7-3.1,7-7s-3.1-7-7-7h-14.6v-6.1h14.6c3.9,0,7-3.1,7-7s-3.1-7-7-7
			h-14.6v-6.1H180.6z"/>
		<path class="st1" d="M374.5,215.9c3.9,0,7-3.1,7-7s-3.1-7-7-7h-14.6v-6.1h14.6c3.9,0,7-3.1,7-7s-3.1-7-7-7h-14.7
			c-0.5-3.4-3.4-6.1-6.9-6.1s-6.5,2.6-6.9,6.1h-14.7c-3.9,0-7,3.1-7,7s3.1,7,7,7h14.6v6.1h-14.6c-3.9,0-7,3.1-7,7s3.1,7,7,7h14.6
			v6.1h-14.6c-3.9,0-7,3.1-7,7s3.1,7,7,7h14.6v6.1h-14.6c-3.9,0-7,3.1-7,7s3.1,7,7,7h14.6v6.1h-14.6c-3.9,0-7,3.1-7,7s3.1,7,7,7
			h14.6v6.1h-14.6c-3.9,0-7,3.1-7,7s3.1,7,7,7H346c0.5,3.4,3.4,6.1,6.9,6.1s6.5-2.6,6.9-6.1h14.7c3.9,0,7-3.1,7-7s-3.1-7-7-7h-14.6
			v-6.1h14.6c3.9,0,7-3.1,7-7s-3.1-7-7-7h-14.6v-6.1h14.6c3.9,0,7-3.1,7-7s-3.1-7-7-7h-14.6v-6.1h14.6c3.9,0,7-3.1,7-7s-3.1-7-7-7
			h-14.6v-6.1H374.5z"/>
	</g>
</g>
</svg>
