<?xml version="1.0" encoding="utf-8"?>
<!-- Generator: Adobe Illustrator 19.2.1, SVG Export Plug-In . SVG Version: 6.00 Build 0)  -->
<svg version="1.1" id="Layer_1" xmlns="http://www.w3.org/2000/svg" xmlns:xlink="http://www.w3.org/1999/xlink" x="0px" y="0px"
	 viewBox="0 0 512 512" style="enable-background:new 0 0 512 512;" xml:space="preserve">
<style type="text/css">
	.st0{fill:url(#SVGID_1_);}
	.st1{fill:#FFFFFF;}
</style>
<g>
	<linearGradient id="SVGID_1_" gradientUnits="userSpaceOnUse" x1="371.0553" y1="421.8318" x2="156.5787" y2="50.3475">
		<stop  offset="0" style="stop-color:#62738C"/>
		<stop  offset="1" style="stop-color:#68739D"/>
	</linearGradient>
	<path class="st0" d="M454.8,222.6c0-109.8-89-198.8-198.8-198.8s-198.8,89-198.8,198.8c0,87.6,56.7,162,135.4,188.5l63.4,77.2
		l63.4-77.2C398.1,384.6,454.8,310.2,454.8,222.6z"/>
	<g>
		<path class="st1" d="M335,254H177c-3.9,0-7,3.1-7,7s3.1,7,7,7h158c3.9,0,7-3.1,7-7S338.8,254,335,254z"/>
		<path class="st1" d="M199.4,218.5h113.2c3.9,0,7-3.1,7-7s-3.1-7-7-7H199.4c-3.9,0-7,3.1-7,7S195.5,218.5,199.4,218.5z"/>
		<path class="st1" d="M219.3,181.4h73.4c3.9,0,7-3.1,7-7s-3.1-7-7-7h-73.4c-3.9,0-7,3.1-7,7S215.4,181.4,219.3,181.4z"/>
	</g>
</g>
</svg>
