<?xml version="1.0" encoding="utf-8"?>
<!-- Generator: Adobe Illustrator 19.2.1, SVG Export Plug-In . SVG Version: 6.00 Build 0)  -->
<svg version="1.1" id="Layer_1" xmlns="http://www.w3.org/2000/svg" xmlns:xlink="http://www.w3.org/1999/xlink" x="0px" y="0px"
	 viewBox="0 0 512 512" style="enable-background:new 0 0 512 512;" xml:space="preserve">
<style type="text/css">
	.st0{fill:url(#SVGID_1_);}
	.st1{fill:#259EBA;}
	.st2{fill:#DB218C;}
	.st3{fill:#FFFFFF;}
</style>
<g>
			<linearGradient id="SVGID_1_" gradientUnits="userSpaceOnUse" x1="371.0553" y1="421.8318" x2="156.5787" y2="50.3474">
				<stop  offset="0" style="stop-color:#D22242"/>
				<stop  offset="1" style="stop-color:#FF2242"/>
			</linearGradient>
	<path class="st0" d="M454.8,222.6c0-109.8-89-198.8-198.8-198.8s-198.8,89-198.8,198.8c0,87.6,56.7,162,135.4,188.5l63.4,77.2
		l63.4-77.2C398.1,384.6,454.8,310.2,454.8,222.6z"/>
	<path class="st1" d="M168.8,194h49.8c7.7,0,14,6.3,14,14v49.8c0,7.7-6.3,14-14,14h-49.8c-7.7,0-14-6.3-14-14V208
		C154.8,200.3,161.1,194,168.8,194z"/>
	<path class="st2" d="M293.9,194h49.8c7.7,0,14,6.3,14,14v49.8c0,7.7-6.3,14-14,14h-49.8c-7.7,0-14-6.3-14-14V208
		C279.9,200.3,286.2,194,293.9,194z"/>
	<path class="st3" d="M394.9,194.7c-2.8-2.7-7.2-2.5-9.9,0.3l-20.3,21.5V208c0-11.6-9.4-21-21-21h-49.8c-11.6,0-21,9.4-21,21v18.8
		h-33.3V208c0-11.6-9.4-21-21-21h-49.8c-11.6,0-21,9.4-21,21v8.8l-20.8-22c-2.7-2.8-7.1-2.9-9.9-0.3c-2.8,2.7-2.9,7.1-0.3,9.9
		l30.9,32.7v20.6c0,11.6,9.4,21,21,21h49.8c11.6,0,21-9.4,21-21v-16.9h33.3v16.9c0,11.6,9.4,21,21,21h49.8c11.6,0,21-9.4,21-21
		v-21.1l30.5-32.2C397.8,201.8,397.7,197.3,394.9,194.7z M225.6,257.8c0,3.9-3.1,7-7,7h-49.8c-3.9,0-7-3.1-7-7V208c0-3.9,3.1-7,7-7
		h49.8c3.9,0,7,3.1,7,7V257.8z M350.7,257.8c0,3.9-3.1,7-7,7h-49.8c-3.9,0-7-3.1-7-7V208c0-3.9,3.1-7,7-7h49.8c3.9,0,7,3.1,7,7
		V257.8z"/>
</g>
</svg>
