<?xml version="1.0" encoding="utf-8"?>
<!-- Generator: Adobe Illustrator 19.2.1, SVG Export Plug-In . SVG Version: 6.00 Build 0)  -->
<svg version="1.1" id="Layer_1" xmlns="http://www.w3.org/2000/svg" xmlns:xlink="http://www.w3.org/1999/xlink" x="0px" y="0px"
	 viewBox="0 0 512 512" style="enable-background:new 0 0 512 512;" xml:space="preserve">
<style type="text/css">
	.st0{fill:url(#SVGID_1_);}
	.st1{fill:#FFFFFF;}
</style>
<g>
	<linearGradient id="SVGID_1_" gradientUnits="userSpaceOnUse" x1="371.0553" y1="421.8318" x2="156.5787" y2="50.3475">
		<stop  offset="0" style="stop-color:#674C3F"/>
		<stop  offset="0.7831" style="stop-color:#8E6D5D"/>
	</linearGradient>
	<path class="st0" d="M454.8,222.6c0-109.8-89-198.8-198.8-198.8s-198.8,89-198.8,198.8c0,87.6,56.7,162,135.4,188.5l63.4,77.2
		l63.4-77.2C398.1,384.6,454.8,310.2,454.8,222.6z"/>
	<path class="st1" d="M368.7,241c-0.4-2.2-1.9-4.2-3.9-5.1L280,196.3c0.2-1.2,0.3-2.4,0.3-3.6c0-1.5-0.1-2.9-0.4-4.3l82.4-41.6
		c2-1,3.4-2.9,3.8-5.1c0.4-2.2-0.4-4.5-2-6.1l-53.9-53.9c-1.6-1.6-3.9-2.3-6.2-1.9c-2.2,0.4-4.2,1.9-5.1,3.9l-39.5,84.8
		c-1.2-0.2-2.4-0.3-3.6-0.3c-1.5,0-2.9,0.1-4.3,0.4l-41.6-82.4c-1-2-2.9-3.4-5.1-3.8c-2.2-0.4-4.5,0.4-6.1,2l-53.9,53.9
		c-1.6,1.6-2.3,3.9-1.9,6.2c0.4,2.2,1.9,4.2,3.9,5.1l84.8,39.5c-0.2,1.2-0.3,2.4-0.3,3.6c0,1.5,0.1,2.9,0.4,4.3l-82.4,41.6
		c-2,1-3.4,2.9-3.8,5.1c-0.4,2.2,0.4,4.5,2,6.1l53.9,53.9c1.3,1.3,3.1,2.1,4.9,2.1c0.4,0,0.8,0,1.2-0.1c2.2-0.4,4.2-1.9,5.1-3.9
		l0.2-0.4l-4,37.7c-0.2,2,0.4,3.9,1.8,5.4c1.3,1.5,3.2,2.3,5.2,2.3h80.5c2,0,3.9-0.8,5.2-2.3c1.3-1.5,2-3.4,1.8-5.4l-5-46.7l3.5,6.9
		c1,2,2.9,3.4,5.1,3.8c0.4,0.1,0.7,0.1,1.1,0.1c1.8,0,3.6-0.7,4.9-2.1l53.9-53.9C368.4,245.5,369.1,243.2,368.7,241z M307.3,98.7
		l40,40l-73.8,37.2c-0.5-0.5-1-1-1.5-1.5L307.3,98.7z M266.3,192.7c0,5.8-4.7,10.5-10.5,10.5s-10.5-4.7-10.5-10.5
		s4.7-10.5,10.5-10.5S266.3,187,266.3,192.7z M161.7,141.2l40-40L239,175c-0.5,0.5-1,1-1.5,1.5L161.7,141.2z M204.2,286.8l-40-40
		l73.8-37.2c0.5,0.5,1,1,1.5,1.5L204.2,286.8z M280.4,257.9l8,74.9h-64.9l7.4-68.8c0.1-0.5,0.1-0.9,0-1.4l21.3-45.6
		c1.2,0.2,2.4,0.3,3.6,0.3c1.5,0,2.9-0.1,4.3-0.4l20.3,40.2C280.4,257.3,280.4,257.6,280.4,257.9z M309.8,284.3l-37.2-73.8
		c0.5-0.5,1-1,1.5-1.5l75.7,35.3L309.8,284.3z"/>
</g>
</svg>
