<?xml version="1.0" encoding="utf-8"?>
<!-- Generator: Adobe Illustrator 19.2.1, SVG Export Plug-In . SVG Version: 6.00 Build 0)  -->
<svg version="1.1" id="Layer_1" xmlns="http://www.w3.org/2000/svg" xmlns:xlink="http://www.w3.org/1999/xlink" x="0px" y="0px"
	 viewBox="0 0 512 512" style="enable-background:new 0 0 512 512;" xml:space="preserve">
<style type="text/css">
	.st0{fill:url(#SVGID_1_);}
	.st1{fill:#FFFFFF;}
</style>
<g>
	<linearGradient id="SVGID_1_" gradientUnits="userSpaceOnUse" x1="371.0553" y1="421.8318" x2="156.5787" y2="50.3475">
		<stop  offset="0" style="stop-color:#0BA13E"/>
		<stop  offset="0.6099" style="stop-color:#35BF27"/>
	</linearGradient>
	<path class="st0" d="M454.8,222.6c0-109.8-89-198.8-198.8-198.8s-198.8,89-198.8,198.8c0,87.6,56.7,162,135.4,188.5l63.4,77.2
		l63.4-77.2C398.1,384.6,454.8,310.2,454.8,222.6z"/>
	<path class="st1" d="M401.1,218.9c-22.8-13.7-53.7-25-86.7-31.9l23.3-13.1l-97-54.6c-3.4-1.9-7.6-0.7-9.5,2.7
		c-1,1.8-1.1,3.9-0.5,5.7c-0.2,0.7-0.4,1.5-0.4,2.2v50.2c-42.4,0.5-82,7.3-117.7,20.4c-3.6,1.3-5.5,5.3-4.2,9c1,2.8,3.7,4.6,6.6,4.6
		c0.8,0,1.6-0.1,2.4-0.4c34.1-12.5,72.1-19,112.9-19.5v28.4c0,0,0,0,0,0v66.2c-20.8,1.9-35.7,11.9-35.7,24.8
		c0,14.3,18.4,25.1,42.7,25.1c24.3,0,42.7-10.8,42.7-25.1c0-12.9-14.9-23-35.7-24.8v-62.3l51.1-28.8c37.4,5.9,73.3,18,98.5,33.1
		c1.1,0.7,2.4,1,3.6,1c2.4,0,4.7-1.2,6-3.4C405.5,225.2,404.4,220.9,401.1,218.9z M266,313.6c0,3.8-10.1,11.1-28.7,11.1
		c-18.6,0-28.7-7.4-28.7-11.1c0-3.3,7.6-9.2,21.7-10.8v4.9c0,3.9,3.1,7,7,7s7-3.1,7-7v-4.9C258.4,304.4,266,310.3,266,313.6z
		 M244.3,137.4l64.9,36.5l-64.9,36.5V137.4z"/>
</g>
</svg>
