<?xml version="1.0" encoding="utf-8"?>
<!-- Generator: Adobe Illustrator 19.2.1, SVG Export Plug-In . SVG Version: 6.00 Build 0)  -->
<svg version="1.1" id="Layer_1" xmlns="http://www.w3.org/2000/svg" xmlns:xlink="http://www.w3.org/1999/xlink" x="0px" y="0px"
	 viewBox="0 0 512 512" style="enable-background:new 0 0 512 512;" xml:space="preserve">
<style type="text/css">
	.st0{fill:url(#SVGID_1_);}
	.st1{fill:#FFFFFF;}
</style>
<g>
	<linearGradient id="SVGID_1_" gradientUnits="userSpaceOnUse" x1="371.0553" y1="421.8318" x2="156.5787" y2="50.3474">
		<stop  offset="0" style="stop-color:#674C3F"/>
		<stop  offset="0.7831" style="stop-color:#8E6D5D"/>
	</linearGradient>
	<path class="st0" d="M454.8,222.6c0-109.8-89-198.8-198.8-198.8s-198.8,89-198.8,198.8c0,87.6,56.7,162,135.4,188.5l63.4,77.2
		l63.4-77.2C398.1,384.6,454.8,310.2,454.8,222.6z"/>
	<g>
		<path class="st1" d="M367.5,251.5l-31.9-18.4l31.2-41.2h-36.8l6.4-51.3L304.6,159l-20.1-47.6l-18.4,31.9L225,112.1v36.8l-51.3-6.4
			l18.4,31.9l-47.6,20.1l31.9,18.4L145.1,254h36.8l-6.4,51.3l31.9-18.4l20.1,47.6l18.4-31.9l41.2,31.2V297l51.3,6.4l-18.4-31.9
			L367.5,251.5z M273,281.1v24.5l-31.4-23.8l-12.2,21.2l-15.3-36.3L192.9,279l4.9-39.1h-24.5l23.8-31.4l-21.2-12.2l36.3-15.3
			l-12.2-21.2l39.1,4.9v-24.5l31.4,23.8l12.2-21.2l15.3,36.3l21.2-12.2l-4.9,39.1h24.5l-23.8,31.4l21.2,12.2l-36.3,15.3l12.2,21.2
			L273,281.1z"/>
		<path class="st1" d="M256,193.4c-16.3,0-29.5,13.2-29.5,29.5s13.2,29.5,29.5,29.5s29.5-13.2,29.5-29.5S272.3,193.4,256,193.4z
			 M256,238.4c-8.6,0-15.5-7-15.5-15.5s7-15.5,15.5-15.5s15.5,7,15.5,15.5S264.6,238.4,256,238.4z"/>
	</g>
</g>
</svg>
