<?xml version="1.0" encoding="utf-8"?>
<!-- Generator: Adobe Illustrator 19.2.1, SVG Export Plug-In . SVG Version: 6.00 Build 0)  -->
<svg version="1.1" id="Layer_1" xmlns="http://www.w3.org/2000/svg" xmlns:xlink="http://www.w3.org/1999/xlink" x="0px" y="0px"
	 viewBox="0 0 512 512" style="enable-background:new 0 0 512 512;" xml:space="preserve">
<style type="text/css">
	.st0{fill:url(#SVGID_1_);}
	.st1{fill:#FFFFFF;}
</style>
<g>
	<linearGradient id="SVGID_1_" gradientUnits="userSpaceOnUse" x1="371.0553" y1="421.8318" x2="156.5787" y2="50.3475">
		<stop  offset="1.359216e-02" style="stop-color:#B84E3F"/>
		<stop  offset="0.5828" style="stop-color:#D04E3F"/>
	</linearGradient>
	<path class="st0" d="M454.8,222.6c0-109.8-89-198.8-198.8-198.8s-198.8,89-198.8,198.8c0,87.6,56.7,162,135.4,188.5l63.4,77.2
		l63.4-77.2C398.1,384.6,454.8,310.2,454.8,222.6z"/>
	<g>
		<path class="st1" d="M337.8,167.7c-21.9-13.9-51-21.5-81.8-21.5s-59.8,7.6-81.8,21.5c-22.9,14.5-35.6,34.1-35.6,55.2
			s12.6,40.7,35.6,55.2c21.9,13.9,51,21.5,81.8,21.5s59.8-7.6,81.8-21.5c22.9-14.5,35.6-34.1,35.6-55.2S360.7,182.2,337.8,167.7z
			 M330.3,266.3c-19.7,12.5-46.1,19.3-74.3,19.3s-54.5-6.9-74.3-19.3c-18.7-11.8-29.1-27.2-29.1-43.4s10.3-31.5,29.1-43.4
			c19.7-12.5,46.1-19.3,74.3-19.3s54.5,6.9,74.3,19.3c18.7,11.8,29.1,27.2,29.1,43.4S349,254.5,330.3,266.3z"/>
		<path class="st1" d="M311,215.6h-12v-9.2c0-3.9-3.1-7-7-7s-7,3.1-7,7v9.2h-10v-9.2c0-3.9-3.1-7-7-7s-7,3.1-7,7v9.2h-10v-9.2
			c0-3.9-3.1-7-7-7s-7,3.1-7,7v9.2h-10v-9.2c0-3.9-3.1-7-7-7s-7,3.1-7,7v9.2h-12c-3.9,0-7,3.1-7,7s3.1,7,7,7h12v9.2c0,3.9,3.1,7,7,7
			s7-3.1,7-7v-9.2h10v9.2c0,3.9,3.1,7,7,7s7-3.1,7-7v-9.2h10v9.2c0,3.9,3.1,7,7,7s7-3.1,7-7v-9.2h10v9.2c0,3.9,3.1,7,7,7s7-3.1,7-7
			v-9.2h12c3.9,0,7-3.1,7-7S314.9,215.6,311,215.6z"/>
	</g>
</g>
</svg>
