<?xml version="1.0" encoding="utf-8"?>
<!-- Generator: Adobe Illustrator 19.2.1, SVG Export Plug-In . SVG Version: 6.00 Build 0)  -->
<svg version="1.1" id="Layer_1" xmlns="http://www.w3.org/2000/svg" xmlns:xlink="http://www.w3.org/1999/xlink" x="0px" y="0px"
	 viewBox="0 0 512 512" style="enable-background:new 0 0 512 512;" xml:space="preserve">
<style type="text/css">
	.st0{fill:url(#SVGID_1_);}
	.st1{fill:#FFFFFF;}
</style>
<g>
	<linearGradient id="SVGID_1_" gradientUnits="userSpaceOnUse" x1="371.0553" y1="421.8318" x2="156.5787" y2="50.3475">
		<stop  offset="0" style="stop-color:#0BA13E"/>
		<stop  offset="0.6099" style="stop-color:#35BF27"/>
	</linearGradient>
	<path class="st0" d="M454.8,222.6c0-109.8-89-198.8-198.8-198.8s-198.8,89-198.8,198.8c0,87.6,56.7,162,135.4,188.5l63.4,77.2
		l63.4-77.2C398.1,384.6,454.8,310.2,454.8,222.6z"/>
	<g>
		<path class="st1" d="M311.6,180.4H200.4c-3.9,0-7,3.1-7,7s3.1,7,7,7h22.9l-22.1,62c-1.3,3.6,0.6,7.6,4.2,8.9
			c0.8,0.3,1.6,0.4,2.4,0.4c2.9,0,5.6-1.8,6.6-4.7l23.8-66.7h35.7l23.8,66.7c1,2.9,3.7,4.7,6.6,4.7c0.8,0,1.6-0.1,2.4-0.4
			c3.6-1.3,5.5-5.3,4.2-8.9l-22.1-62h22.9c3.9,0,7-3.1,7-7S315.5,180.4,311.6,180.4z"/>
		<path class="st1" d="M175.1,208.5h-29.8c-3.9,0-7,3.1-7,7s3.1,7,7,7h7.9v36.3c0,3.9,3.1,7,7,7s7-3.1,7-7v-36.3h7.9
			c3.9,0,7-3.1,7-7S179,208.5,175.1,208.5z"/>
		<path class="st1" d="M366.7,208.5h-29.8c-3.9,0-7,3.1-7,7s3.1,7,7,7h7.9v36.3c0,3.9,3.1,7,7,7s7-3.1,7-7v-36.3h7.9
			c3.9,0,7-3.1,7-7S370.5,208.5,366.7,208.5z"/>
	</g>
</g>
</svg>
