<?xml version="1.0" encoding="utf-8"?>
<!-- Generator: Adobe Illustrator 19.2.1, SVG Export Plug-In . SVG Version: 6.00 Build 0)  -->
<svg version="1.1" id="Layer_1" xmlns="http://www.w3.org/2000/svg" xmlns:xlink="http://www.w3.org/1999/xlink" x="0px" y="0px"
	 viewBox="0 0 512 512" style="enable-background:new 0 0 512 512;" xml:space="preserve">
<style type="text/css">
	.st0{fill:url(#SVGID_1_);}
	.st1{fill:#FFFFFF;}
</style>
<g>
	<linearGradient id="SVGID_1_" gradientUnits="userSpaceOnUse" x1="368.6669" y1="425.8068" x2="159.5977" y2="48.6358">
		<stop  offset="0" style="stop-color:#315DFF"/>
		<stop  offset="0.725" style="stop-color:#128FFF"/>
	</linearGradient>
	<path class="st0" d="M454.8,222.6c0-109.8-89-198.8-198.8-198.8s-198.8,89-198.8,198.8c0,87.6,56.7,162,135.4,188.5l63.4,77.2
		l63.4-77.2C398.1,384.6,454.8,310.2,454.8,222.6z"/>
	<g>
		<path class="st1" d="M256,165.8c3.9,0,7-3.1,7-7V122c0-3.9-3.1-7-7-7s-7,3.1-7,7v36.8C249,162.7,252.1,165.8,256,165.8z"/>
		<path class="st1" d="M276.5,181.9c0.9,0.4,1.8,0.5,2.7,0.5c2.8,0,5.4-1.6,6.5-4.3c6.6-16.2,16.5-26.4,29.4-30.6
			c3.7-1.2,5.7-5.1,4.5-8.8c-1.2-3.7-5.1-5.7-8.8-4.5c-17,5.5-29.8,18.4-38,38.6C271.2,176.3,272.9,180.4,276.5,181.9z"/>
		<path class="st1" d="M343.6,204.4c-13.1-5.6-33.3-6.7-55.1,19.5c-3.6,4.4-6.8,8.9-9.5,13.1l-5.8-30.9c-0.7-3.8-4.4-6.3-8.2-5.6
			c-3.8,0.7-6.3,4.4-5.6,8.2l9.2,48.9c-0.1,1,0.1,2.1,0.5,3H256h-13.2c0.4-0.9,0.5-2,0.5-3l9.2-48.9c0.7-3.8-1.8-7.5-5.6-8.2
			c-3.8-0.7-7.5,1.8-8.2,5.6l-5.8,30.9c-2.7-4.2-5.8-8.7-9.5-13.1c-21.8-26.2-42-25-55.1-19.5c-3.6,1.5-5.2,5.6-3.7,9.2
			c1.5,3.6,5.6,5.2,9.2,3.7c27.8-11.8,50.1,30.9,55,41.3l-0.4,2h-37.7c-3.1,0-5.9,2.1-6.7,5.1l-9.5,33.7c-0.6,2.1-0.2,4.4,1.2,6.1
			s3.4,2.8,5.6,2.8h149.6c0,0,0,0,0,0c0,0,0.1,0,0.1,0c0.3,0,0.5,0,0.8-0.1c0.1,0,0.2,0,0.2,0c0.2,0,0.5-0.1,0.7-0.1
			c0,0,0.1,0,0.1,0c0,0,0,0,0.1,0c0.1,0,0.3-0.1,0.4-0.1c0.1,0,0.2-0.1,0.2-0.1c0.1-0.1,0.2-0.1,0.4-0.2c0.1,0,0.2-0.1,0.3-0.1
			c0.1-0.1,0.2-0.1,0.3-0.2c0.1-0.1,0.2-0.1,0.3-0.2c0.1,0,0.1-0.1,0.2-0.2c0.1-0.1,0.2-0.2,0.3-0.3c0.1,0,0.1-0.1,0.2-0.1
			c0.1-0.1,0.2-0.2,0.3-0.3c0.1-0.1,0.1-0.1,0.2-0.2c0.1-0.1,0.2-0.2,0.3-0.3c0.1-0.1,0.1-0.2,0.2-0.3c0.1-0.1,0.1-0.2,0.2-0.3
			c0.1-0.1,0.1-0.2,0.2-0.3c0-0.1,0.1-0.2,0.1-0.2c0.1-0.1,0.1-0.3,0.2-0.4c0-0.1,0.1-0.1,0.1-0.2c0.1-0.1,0.1-0.3,0.1-0.4
			c0-0.1,0.1-0.2,0.1-0.3c0-0.1,0.1-0.2,0.1-0.3c0-0.1,0.1-0.2,0.1-0.3c0-0.1,0-0.2,0-0.3c0-0.1,0-0.3,0.1-0.4c0-0.1,0-0.2,0-0.2
			c0-0.2,0-0.3,0-0.5c0,0,0,0,0-0.1c0-0.1,0-0.1,0-0.2c0-0.1,0-0.3,0-0.4c0-0.1,0-0.2,0-0.3c0-0.1,0-0.2-0.1-0.4
			c0-0.1-0.1-0.3-0.1-0.4c0-0.1,0-0.1,0-0.2l-9.5-33.7c-0.8-3-3.6-5.1-6.7-5.1h-37.7l-0.4-2c4.9-10.4,27.2-53.1,55-41.3
			c3.6,1.5,7.7-0.2,9.2-3.7C348.9,210,347.2,205.9,343.6,204.4z M321.6,294.3H190.4l5.5-19.7h60h60L321.6,294.3z"/>
		<path class="st1" d="M349,160.3c-20.3-2.6-39.4,7.4-56.8,29.5c-2.4,3-1.9,7.4,1.2,9.8c1.3,1,2.8,1.5,4.3,1.5
			c2.1,0,4.1-0.9,5.5-2.7c14.1-18,29-26.2,44-24.3c3.8,0.5,7.3-2.2,7.8-6.1C355.6,164.3,352.8,160.8,349,160.3z"/>
		<path class="st1" d="M197,147.5c12.9,4.1,22.7,14.4,29.4,30.6c1.1,2.7,3.7,4.3,6.5,4.3c0.9,0,1.8-0.2,2.7-0.5
			c3.6-1.5,5.3-5.6,3.8-9.1c-8.3-20.1-21.1-33.1-38-38.6c-3.7-1.2-7.6,0.8-8.8,4.5C191.3,142.4,193.3,146.3,197,147.5z"/>
		<path class="st1" d="M208.8,198.5c1.4,1.8,3.4,2.7,5.5,2.7c1.5,0,3-0.5,4.3-1.5c3-2.4,3.6-6.8,1.2-9.8
			c-17.4-22.1-36.5-32.1-56.8-29.5c-3.8,0.5-6.6,4-6.1,7.8c0.5,3.8,4,6.6,7.8,6.1C179.8,172.3,194.6,180.5,208.8,198.5z"/>
	</g>
</g>
</svg>
