<?xml version="1.0" encoding="utf-8"?>
<!-- Generator: Adobe Illustrator 19.2.1, SVG Export Plug-In . SVG Version: 6.00 Build 0)  -->
<svg version="1.1" id="Layer_1" xmlns="http://www.w3.org/2000/svg" xmlns:xlink="http://www.w3.org/1999/xlink" x="0px" y="0px"
	 viewBox="0 0 512 512" style="enable-background:new 0 0 512 512;" xml:space="preserve">
<style type="text/css">
	.st0{fill:url(#SVGID_1_);}
	.st1{fill:#FFFFFF;}
</style>
<g>
	<linearGradient id="SVGID_1_" gradientUnits="userSpaceOnUse" x1="371.0552" y1="421.8318" x2="156.5787" y2="50.3475">
		<stop  offset="0" style="stop-color:#FB9F3F"/>
		<stop  offset="0.6344" style="stop-color:#E5A810"/>
	</linearGradient>
	<path class="st0" d="M454.8,222.6c0-109.8-89-198.8-198.8-198.8s-198.8,89-198.8,198.8c0,87.6,56.7,162,135.4,188.5l63.4,77.2
		l63.4-77.2C398.1,384.6,454.8,310.2,454.8,222.6z"/>
	<path class="st1" d="M278.1,282.2l-19.1,18.4l37.6-126.2L236,202.9l21.8-95.3c0.9-3.8-1.5-7.5-5.3-8.4c-3.8-0.9-7.5,1.5-8.4,5.3
		L216,227.9l58.2-27.5l-28.7,96.3l-6-26c-0.9-3.8-4.6-6.1-8.4-5.2c-3.8,0.9-6.1,4.6-5.2,8.4l14.8,63.8l47.2-45.4
		c2.8-2.7,2.9-7.1,0.2-9.9C285.3,279.6,280.8,279.5,278.1,282.2z"/>
</g>
</svg>
