<?xml version="1.0" encoding="utf-8"?>
<!-- Generator: Adobe Illustrator 19.2.1, SVG Export Plug-In . SVG Version: 6.00 Build 0)  -->
<svg version="1.1" id="Layer_1" xmlns="http://www.w3.org/2000/svg" xmlns:xlink="http://www.w3.org/1999/xlink" x="0px" y="0px"
	 viewBox="0 0 512 512" style="enable-background:new 0 0 512 512;" xml:space="preserve">
<style type="text/css">
	.st0{fill:url(#SVGID_1_);}
	.st1{fill:#FFFFFF;}
</style>
<g>
	<linearGradient id="SVGID_1_" gradientUnits="userSpaceOnUse" x1="371.0552" y1="421.8318" x2="156.5787" y2="50.3476">
		<stop  offset="1.359216e-02" style="stop-color:#B84E3F"/>
		<stop  offset="0.5828" style="stop-color:#D04E3F"/>
	</linearGradient>
	<path class="st0" d="M454.8,222.6c0-109.8-89-198.8-198.8-198.8s-198.8,89-198.8,198.8c0,87.6,56.7,162,135.4,188.5l63.4,77.2
		l63.4-77.2C398.1,384.6,454.8,310.2,454.8,222.6z"/>
	<path class="st1" d="M340.6,186.3c0-46.6-37.9-84.6-84.6-84.6s-84.6,37.9-84.6,84.6c0,35.4,21.9,65.7,52.8,78.4l23.3,42.4h-7.3
		v31.7h31.7v-31.7h-7.3l23.3-42.4C318.7,252.1,340.6,221.7,340.6,186.3z M286.4,237.3c-2.9,4.4-6.1,8.1-9.6,11.1
		c0.6-1.7,1.1-3.4,1.7-5.3c4.4-15.3,6.8-35.4,6.8-56.8s-2.4-41.5-6.8-56.8c-0.5-1.9-1.1-3.6-1.7-5.3c3.4,3,6.6,6.7,9.6,11.1
		c8.9,13.5,13.8,31.6,13.8,51S295.3,223.8,286.4,237.3z M240.7,186.3c0-46,11-69.3,15.3-70.6c4.3,1.3,15.3,24.6,15.3,70.6
		c0,46-11,69.3-15.3,70.6C251.7,255.6,240.7,232.3,240.7,186.3z M225.6,135.3c2.9-4.4,6.1-8.1,9.6-11.1c-0.6,1.7-1.2,3.4-1.7,5.3
		c-4.4,15.3-6.8,35.4-6.8,56.8s2.4,41.5,6.8,56.8c0.5,1.9,1.1,3.6,1.7,5.3c-3.4-3-6.6-6.7-9.6-11.1c-8.9-13.5-13.8-31.6-13.8-51
		S216.7,148.8,225.6,135.3z M326.6,186.3c0,22.1-10.2,41.8-26.1,54.7c8.9-15.2,13.7-34.5,13.7-54.7c0-20.3-4.9-39.5-13.7-54.7
		C316.4,144.5,326.6,164.3,326.6,186.3z M185.4,186.3c0-22.1,10.2-41.8,26.1-54.7c-8.9,15.2-13.7,34.5-13.7,54.7
		c0,20.3,4.9,39.5,13.7,54.7C195.6,228.1,185.4,208.4,185.4,186.3z M256,293.6l-13-23.6c4.2,0.7,8.6,1,13,1s8.7-0.3,13-1L256,293.6z
		"/>
</g>
</svg>
