<?xml version="1.0" encoding="utf-8"?>
<!-- Generator: Adobe Illustrator 19.2.1, SVG Export Plug-In . SVG Version: 6.00 Build 0)  -->
<svg version="1.1" id="Layer_1" xmlns="http://www.w3.org/2000/svg" xmlns:xlink="http://www.w3.org/1999/xlink" x="0px" y="0px"
	 viewBox="0 0 512 512" style="enable-background:new 0 0 512 512;" xml:space="preserve">
<style type="text/css">
	.st0{fill:url(#SVGID_1_);}
	.st1{fill:#FFFFFF;}
</style>
<g>
	<linearGradient id="SVGID_1_" gradientUnits="userSpaceOnUse" x1="371.0553" y1="421.8318" x2="156.5787" y2="50.3475">
		<stop  offset="1.359216e-02" style="stop-color:#B84E3F"/>
		<stop  offset="0.5828" style="stop-color:#D04E3F"/>
	</linearGradient>
	<path class="st0" d="M454.8,222.6c0-109.8-89-198.8-198.8-198.8s-198.8,89-198.8,198.8c0,87.6,56.7,162,135.4,188.5l63.4,77.2
		l63.4-77.2C398.1,384.6,454.8,310.2,454.8,222.6z"/>
	<path class="st1" d="M334.5,203.8c-0.1,0-0.1,0-0.2,0c-1-0.5-2.1-0.9-3.4-0.9h-4.2c8.8-26.7,2-56.2-18.1-76.2
		c-14.1-14.1-32.8-21.9-52.8-21.9s-38.7,7.8-52.8,21.9c-20,20-26.8,49.8-18.1,76.2H181c-1.2,0-2.4,0.3-3.4,0.9c-0.1,0-0.1,0-0.2,0
		c-3.8,0.7-6.3,4.4-5.6,8.2L193,324.4c0.6,3.4,3.6,5.7,6.9,5.7c0.4,0,0.9,0,1.3-0.1c3.2-0.6,5.5-3.3,5.7-6.4l19,19
		c1.4,1.4,3.2,2.1,5,2.1c1.8,0,3.6-0.7,5-2.1c2.3-2.3,2.7-5.8,1.1-8.5L256,315l18.4,18.4c-2.1,2.7-1.9,6.6,0.5,9.1
		c1.4,1.4,3.2,2.1,5,2.1c1.8,0,3.5-0.7,4.9-2l20.3-19.6c0,3.3,2.3,6.2,5.7,6.9c0.4,0.1,0.9,0.1,1.3,0.1c3.3,0,6.2-2.3,6.9-5.7
		L340.1,212C340.8,208.2,338.3,204.5,334.5,203.8z M218.3,216.9c0,0.1,0,0.3,0,0.4l-20.1,20.1l-9-9l-2.2-11.5H218.3z M324.9,216.9
		l-2.2,11.5c0,0-0.1,0.1-0.1,0.1l-8.9,8.9l-20.1-20.1c0-0.1,0-0.3,0-0.4H324.9z M273.4,216.9l1.5,1.5l-19,19l-19-19l1.5-1.5H273.4z
		 M195.2,260.2c0.3-0.2,0.5-0.4,0.8-0.7l2.3-2.3l19,19l-16,16L195.2,260.2z M208.1,247.3l19-19l19,19l-19,19L208.1,247.3z
		 M256,257.3l19,19l-19,19l-19-19L256,257.3z M265.9,247.4l19-19l19,19l-19,19L265.9,247.4z M313.8,257.3l3,3l-6,32l-16-16
		L313.8,257.3z M282.5,202.9c11-10.6,23.1-19,34.1-23.6c0,7.5-1.3,15-4.2,22.3c-0.2,0.4-0.3,0.9-0.4,1.4H282.5z M213.1,136.6
		c11.4-11.4,26.7-17.7,42.9-17.7c0,0,0.1,0,0.1,0c-4.8,11.5-13.7,24.2-25.1,35.6c-11.4,11.4-24.1,20.3-35.6,25.1
		C195.5,163.8,201.6,148.2,213.1,136.6z M197.2,193.9c14.2-5.1,29.9-15.7,43.8-29.6c13.8-13.8,24.4-29.6,29.6-43.8
		c10.7,2.6,20.4,8.1,28.4,16c8,8,13.4,17.9,16,28.4c-14.2,5.1-30,15.8-43.8,29.6c-1.9,1.9-3.8,3.9-5.6,5.9c-0.7,0.7-1.1,1.6-1.4,2.4
		h-63.9C198.9,200,197.9,197,197.2,193.9z M227.1,324.1l-19-19c0.1-0.1,0.2-0.2,0.3-0.3l18.7-18.7l19,19L227.1,324.1z M284.9,286.1
		l18.9,18.9l-19.3,18.7l-18.5-18.5L284.9,286.1z"/>
</g>
</svg>
