<?xml version="1.0" encoding="utf-8"?>
<!-- Generator: Adobe Illustrator 19.2.1, SVG Export Plug-In . SVG Version: 6.00 Build 0)  -->
<svg version="1.1" id="Layer_1" xmlns="http://www.w3.org/2000/svg" xmlns:xlink="http://www.w3.org/1999/xlink" x="0px" y="0px"
	 viewBox="0 0 512 512" style="enable-background:new 0 0 512 512;" xml:space="preserve">
<style type="text/css">
	.st0{fill:url(#SVGID_1_);}
	.st1{fill:#FFFFFF;}
</style>
<g>
	<linearGradient id="SVGID_1_" gradientUnits="userSpaceOnUse" x1="371.0553" y1="421.8318" x2="156.5787" y2="50.3475">
		<stop  offset="0" style="stop-color:#62738C"/>
		<stop  offset="1" style="stop-color:#68739D"/>
	</linearGradient>
	<path class="st0" d="M454.8,222.6c0-109.8-89-198.8-198.8-198.8s-198.8,89-198.8,198.8c0,87.6,56.7,162,135.4,188.5l63.4,77.2
		l63.4-77.2C398.1,384.6,454.8,310.2,454.8,222.6z"/>
	<g>
		<path class="st1" d="M304.5,175.9v-41.7h-60.3h-60.3v156.1c0,3.9,3.1,7,7,7s7-3.1,7-7V148.2h46.3h46.3v142.1c0,3.9,3.1,7,7,7
			s7-3.1,7-7V189.9h27.7v100.4c0,3.9,3.1,7,7,7s7-3.1,7-7V175.9H304.5z"/>
		<circle class="st1" cx="227.5" cy="177.4" r="12.6"/>
		<circle class="st1" cx="260.8" cy="208" r="12.6"/>
		<circle class="st1" cx="227.5" cy="238.6" r="12.6"/>
		<circle class="st1" cx="227.5" cy="269.1" r="12.6"/>
		<circle class="st1" cx="260.8" cy="269.1" r="12.6"/>
	</g>
</g>
</svg>
