<?xml version="1.0" encoding="utf-8"?>
<!-- Generator: Adobe Illustrator 19.2.1, SVG Export Plug-In . SVG Version: 6.00 Build 0)  -->
<svg version="1.1" id="Layer_1" xmlns="http://www.w3.org/2000/svg" xmlns:xlink="http://www.w3.org/1999/xlink" x="0px" y="0px"
	 viewBox="0 0 512 512" style="enable-background:new 0 0 512 512;" xml:space="preserve">
<style type="text/css">
	.st0{fill:url(#SVGID_1_);}
	.st1{fill:#FFFFFF;}
</style>
<g>
	<linearGradient id="SVGID_1_" gradientUnits="userSpaceOnUse" x1="371.0553" y1="421.8318" x2="156.5787" y2="50.3474">
		<stop  offset="0" style="stop-color:#0BA13E"/>
		<stop  offset="0.6099" style="stop-color:#35BF27"/>
	</linearGradient>
	<path class="st0" d="M454.8,222.6c0-109.8-89-198.8-198.8-198.8s-198.8,89-198.8,198.8c0,87.6,56.7,162,135.4,188.5l63.4,77.2
		l63.4-77.2C398.1,384.6,454.8,310.2,454.8,222.6z"/>
	<g>
		<path class="st1" d="M244.5,135.9c-3.9,0-7,3.1-7,7v38.4c0,8.7,0,33.7-20,38v-76.5c0-3.9-3.1-7-7-7s-7,3.1-7,7v76.6
			c-8.4-1.6-20-8.6-20-38.2v-38.4c0-3.9-3.1-7-7-7s-7,3.1-7,7v38.4c0,40.1,19.3,50.4,34.2,52.3c-0.2,0.6-0.3,1.2-0.3,1.9v77.9
			c0,3.9,3.1,7,7,7s7-3.1,7-7v-77.9c0-0.7-0.1-1.3-0.3-1.9c14.9-2,34.2-12.2,34.2-52.3v-38.4C251.5,139,248.4,135.9,244.5,135.9z"/>
		<path class="st1" d="M302.1,138.1C302.1,138.1,302.1,138.1,302.1,138.1c-0.2-0.2-0.3-0.3-0.4-0.3c-0.1-0.1-0.2-0.1-0.2-0.2
			c-0.1-0.1-0.2-0.1-0.3-0.2c-0.1-0.1-0.2-0.1-0.3-0.2c-0.1-0.1-0.2-0.1-0.3-0.2c-0.1-0.1-0.2-0.1-0.3-0.2c-0.1-0.1-0.2-0.1-0.3-0.1
			c-0.1-0.1-0.2-0.1-0.3-0.1c-0.1,0-0.2-0.1-0.3-0.1c-0.1,0-0.2-0.1-0.3-0.1c-0.1,0-0.2-0.1-0.3-0.1c-0.1,0-0.2-0.1-0.3-0.1
			c-0.1,0-0.2,0-0.3-0.1c-0.1,0-0.2,0-0.3-0.1c-0.1,0-0.2,0-0.3,0c-0.1,0-0.3,0-0.4,0c0,0-0.1,0-0.1,0c-0.1,0-0.1,0-0.2,0
			c-0.1,0-0.3,0-0.4,0c-0.1,0-0.2,0-0.3,0c-0.1,0-0.2,0-0.4,0.1c-0.1,0-0.2,0-0.3,0.1c-0.1,0-0.2,0.1-0.3,0.1
			c-0.1,0-0.2,0.1-0.3,0.1c-0.1,0-0.2,0.1-0.3,0.1c-0.1,0-0.2,0.1-0.3,0.1c-0.1,0-0.2,0.1-0.3,0.2c-0.1,0.1-0.2,0.1-0.3,0.2
			c-0.1,0.1-0.2,0.1-0.3,0.2c-0.1,0.1-0.2,0.1-0.3,0.2c-0.1,0.1-0.2,0.1-0.3,0.2c-0.1,0.1-0.2,0.2-0.3,0.2c0,0-0.1,0.1-0.2,0.1
			c0,0-0.1,0.1-0.1,0.1c-0.1,0.1-0.2,0.2-0.3,0.3c-0.1,0.1-0.1,0.2-0.2,0.2c-0.1,0.1-0.1,0.2-0.2,0.3c-0.1,0.1-0.1,0.2-0.2,0.3
			c-0.1,0.1-0.1,0.2-0.2,0.3c-0.1,0.1-0.1,0.2-0.2,0.3c-0.1,0.1-0.1,0.2-0.1,0.3c-0.1,0.1-0.1,0.2-0.2,0.3c0,0.1-0.1,0.2-0.1,0.3
			c0,0.1-0.1,0.2-0.1,0.3c0,0.1-0.1,0.2-0.1,0.3c0,0.1-0.1,0.2-0.1,0.3c0,0.1,0,0.2-0.1,0.3c0,0.1,0,0.2-0.1,0.3c0,0.1,0,0.2,0,0.3
			c0,0.1,0,0.3,0,0.4c0,0,0,0.1,0,0.1v170.5c0,3.9,3.1,7,7,7s7-3.1,7-7v-71.1c19-1.2,31.2-7.6,36.1-18.9
			C352.9,193.8,307.4,143.7,302.1,138.1z M327.3,217.8c-3.1,7.2-13.3,9.7-23.3,10.5v-66.1c3.1,4,6.5,8.7,9.8,13.6
			C326.1,194.6,330.9,209.5,327.3,217.8z"/>
	</g>
</g>
</svg>
