<?xml version="1.0" encoding="utf-8"?>
<!-- Generator: Adobe Illustrator 19.2.1, SVG Export Plug-In . SVG Version: 6.00 Build 0)  -->
<svg version="1.1" id="Layer_1" xmlns="http://www.w3.org/2000/svg" xmlns:xlink="http://www.w3.org/1999/xlink" x="0px" y="0px"
	 viewBox="0 0 512 512" style="enable-background:new 0 0 512 512;" xml:space="preserve">
<style type="text/css">
	.st0{fill:url(#SVGID_1_);}
	.st1{fill:#FFFFFF;}
</style>
<g>
	<linearGradient id="SVGID_1_" gradientUnits="userSpaceOnUse" x1="371.0553" y1="421.8318" x2="156.5787" y2="50.3474">
		<stop  offset="1.359216e-02" style="stop-color:#B84E3F"/>
		<stop  offset="0.5828" style="stop-color:#D04E3F"/>
	</linearGradient>
	<path class="st0" d="M454.8,222.6c0-109.8-89-198.8-198.8-198.8s-198.8,89-198.8,198.8c0,87.6,56.7,162,135.4,188.5l63.4,77.2
		l63.4-77.2C398.1,384.6,454.8,310.2,454.8,222.6z"/>
	<g>
		<path class="st1" d="M336.8,295.6H175.2c-3.9,0-7,3.1-7,7s3.1,7,7,7h161.7c3.9,0,7-3.1,7-7S340.7,295.6,336.8,295.6z"/>
		<path class="st1" d="M315.3,177.7l24.9-24.9l-38.6-38.6l-38.6,38.6l24.9,24.9h-86.4l24.9-24.9l-33.7-33.7c-2.7-2.7-7.2-2.7-9.9,0
			c-2.7,2.7-2.7,7.2,0,9.9l23.8,23.8l-23.8,23.8c-0.3,0.3-0.7,0.7-0.9,1.1h-21.1v71.8v9.5v20.6h95.5l18.2-26.3h62.8v5.7
			c0,3.9,3.1,7,7,7s7-3.1,7-7v-81.2H315.3z M301.5,134l18.8,18.8l-18.8,18.8l-18.8-18.8L301.5,134z M267.1,239.2l-18.2,26.3h-14.4
			c0-0.1,0-0.3,0-0.5v-15.6c0-3.9-3.1-7-7-7s-7,3.1-7,7v15.6c0,0.2,0,0.3,0,0.5h-8.8c0-0.1,0-0.3,0-0.5v-15.6c0-3.9-3.1-7-7-7
			s-7,3.1-7,7v15.6c0,0.2,0,0.3,0,0.5h-23.1V259v-9.5v-57.8h162.6v47.5H267.1z"/>
		<circle class="st1" cx="284.5" cy="272.5" r="10.3"/>
		<circle class="st1" cx="314.1" cy="272.5" r="10.3"/>
		<path class="st1" d="M227.5,204.9c-3.9,0-7,3.1-7,7v15.6c0,3.9,3.1,7,7,7s7-3.1,7-7v-15.6C234.5,208,231.4,204.9,227.5,204.9z"/>
		<path class="st1" d="M204.8,204.9c-3.9,0-7,3.1-7,7v15.6c0,3.9,3.1,7,7,7s7-3.1,7-7v-15.6C211.8,208,208.6,204.9,204.8,204.9z"/>
		<path class="st1" d="M308.7,208.2h-43.5c-3.9,0-7,3.1-7,7s3.1,7,7,7h43.5c3.9,0,7-3.1,7-7S312.6,208.2,308.7,208.2z"/>
	</g>
</g>
</svg>
