<?xml version="1.0" encoding="utf-8"?>
<!-- Generator: Adobe Illustrator 19.2.1, SVG Export Plug-In . SVG Version: 6.00 Build 0)  -->
<svg version="1.1" id="Layer_1" xmlns="http://www.w3.org/2000/svg" xmlns:xlink="http://www.w3.org/1999/xlink" x="0px" y="0px"
	 viewBox="0 0 512 512" style="enable-background:new 0 0 512 512;" xml:space="preserve">
<style type="text/css">
	.st0{fill:url(#SVGID_1_);}
	.st1{fill:#FFFFFF;}
</style>
<g>
	<linearGradient id="SVGID_1_" gradientUnits="userSpaceOnUse" x1="371.0552" y1="421.8318" x2="156.5787" y2="50.3476">
		<stop  offset="0" style="stop-color:#D22242"/>
		<stop  offset="1" style="stop-color:#FF2242"/>
	</linearGradient>
	<path class="st0" d="M454.8,222.6c0-109.8-89-198.8-198.8-198.8s-198.8,89-198.8,198.8c0,87.6,56.7,162,135.4,188.5l63.4,77.2
		l63.4-77.2C398.1,384.6,454.8,310.2,454.8,222.6z"/>
	<path class="st1" d="M364.1,288.8l-33-12l33-12c3.6-1.3,5.5-5.3,4.2-9l-12.8-35.1c-1.3-3.6-5.3-5.5-9-4.2l-30.7,11.2
		c0.7-3.6,1-7.3,1-11.1c0-3.7-0.3-7.4-1-11.1c-0.7-3.6-4-6.1-7.6-5.7c-3.6,0.4-6.4,3.5-6.2,7.2c0,1.3-0.2,2.7-0.6,4
		c-1,2.8-3,5.1-5.7,6.4c-2.7,1.3-5.7,1.5-8.6,0.5c-2.8-1-5.1-3-6.4-5.7c-1.3-2.7-1.5-5.7-0.5-8.6c0.6-1.7,1.5-3.2,2.8-4.4
		c0.3-0.3,0.6-0.6,0.8-0.9l17.4-17.2c2.1-2.1,2.7-5.4,1.3-8.1l-39.7-80.3c-1.2-2.4-3.6-3.9-6.3-3.9s-5.1,1.5-6.3,3.9L224.9,144
		c-1.5,3-0.6,6.6,2,8.6l18.8,14.5c0.3,0.3,0.6,0.6,1,0.9c1.5,1.1,2.6,2.4,3.4,4.1c2.7,5.5,0.4,12.3-5.1,15c-5.5,2.7-12.3,0.4-15-5.1
		c-0.8-1.6-1.2-3.3-1.1-5.2c0-0.4,0-0.8-0.1-1.2l0-9.2c0-3.3-2.2-6.1-5.4-6.8c-3.2-0.7-6.4,0.8-7.9,3.7l-12.7,25.8
		c-0.3,0.6-0.5,1.2-0.6,1.9c-3.9,8.1-5.8,16.8-5.8,25.8c0,3.9,0.4,7.8,1.1,11.5l-32-11.6c-3.6-1.3-7.7,0.6-9,4.2l-12.8,35.1
		c-1.3,3.6,0.6,7.6,4.2,9l33,12l-33,12c-3.6,1.3-5.5,5.3-4.2,9l12.8,35.1c1,2.8,3.7,4.6,6.6,4.6c0.8,0,1.6-0.1,2.4-0.4l89-32.4
		c0.5-0.2,0.9-0.4,1.3-0.6l90.7,33c0.8,0.3,1.6,0.4,2.4,0.4c1,0,2-0.2,3-0.7c1.7-0.8,3-2.2,3.6-4l12.8-35.1
		C369.6,294.1,367.7,290.1,364.1,288.8z M310.4,244.5l34.3-12.5l8,21.9l-42.1,15.3l-16.2-5.9c6.3-5.1,11.6-11.5,15.4-18.7
		C310,244.7,310.2,244.6,310.4,244.5z M215.5,195.4c0.3-0.6,0.6-1.3,0.7-2l1.9-3.9c6.5,11.5,21,16,33,10.2
		c12.5-6.1,17.7-21.2,11.6-33.7c-1.6-3.2-3.8-6-6.6-8.3c-0.3-0.3-0.6-0.6-0.9-0.8L240,145.1l16.5-33.5l31.1,63.1l-14.6,14.5
		c-0.3,0.3-0.5,0.6-0.8,0.9c-2.4,2.6-4.3,5.7-5.5,9.1c-2.2,6.4-1.8,13.2,1.2,19.2s8.1,10.6,14.5,12.8c6,2.1,12.4,1.8,18.1-0.7
		c-5.9,18.7-23.5,32.4-44.1,32.4c-25.5,0-46.2-20.7-46.2-46.2C210.3,209.2,212.1,202,215.5,195.4z M167.3,321.5l-8-21.9l41.2-15
		c0.3-0.1,0.6-0.2,0.8-0.4l34.2,12.5L167.3,321.5z M344.7,321.5L159.3,254l8-21.9l36.3,13.2c10.2,18.8,30.1,31.6,53,31.6
		c7.8,0,15.3-1.5,22.2-4.3c0.3,0.1,0.5,0.3,0.8,0.4l73.1,26.6L344.7,321.5z"/>
</g>
</svg>
