<?xml version="1.0" encoding="utf-8"?>
<!-- Generator: Adobe Illustrator 19.2.1, SVG Export Plug-In . SVG Version: 6.00 Build 0)  -->
<svg version="1.1" id="Layer_1" xmlns="http://www.w3.org/2000/svg" xmlns:xlink="http://www.w3.org/1999/xlink" x="0px" y="0px"
	 viewBox="0 0 512 512" style="enable-background:new 0 0 512 512;" xml:space="preserve">
<style type="text/css">
	.st0{fill:url(#SVGID_1_);}
	.st1{fill:#FFFFFF;}
</style>
<g>
	<linearGradient id="SVGID_1_" gradientUnits="userSpaceOnUse" x1="371.0553" y1="421.8318" x2="156.5787" y2="50.3474">
		<stop  offset="0" style="stop-color:#674C3F"/>
		<stop  offset="0.7831" style="stop-color:#8E6D5D"/>
	</linearGradient>
	<path class="st0" d="M454.8,222.6c0-109.8-89-198.8-198.8-198.8s-198.8,89-198.8,198.8c0,87.6,56.7,162,135.4,188.5l63.4,77.2
		l63.4-77.2C398.1,384.6,454.8,310.2,454.8,222.6z"/>
	<g>
		<path class="st1" d="M327.8,299.4l-44.3-107.3l-7.4,7.4c-0.7,0.7-18.3,17.8-40.7-0.5l-7.3-6l-43.9,106.3c-1.5,3.6,0.2,7.7,3.8,9.1
			c3.6,1.5,7.7-0.2,9.1-3.8l36.9-89.5c6.7,3.9,13.2,5.7,19.2,6.2c-1.2,3-2,6.5-1.9,10.4c0.2,6.4,3.2,12.5,8.5,17.4
			c6.4,5.9,10.1,15.2,9.3,23.6c-0.5,5.2-2.8,12.5-11.5,18c-3.3,2.1-4.2,6.4-2.2,9.7c1.3,2.1,3.6,3.3,5.9,3.3c1.3,0,2.6-0.4,3.7-1.1
			c10.5-6.7,16.8-16.8,17.9-28.5c1.2-12.8-4.1-26.2-13.8-35.1c-3.7-3.4-4.8-6.9-3.5-11.2c1.2-3.8,3.8-6.7,3.9-6.8
			c0.6-0.6,1.1-1.4,1.4-2.2c2.5-0.9,4.8-2,6.8-3.2l36.8,89.2c1.1,2.7,3.7,4.3,6.5,4.3c0.9,0,1.8-0.2,2.7-0.5
			C327.5,307.1,329.2,303,327.8,299.4z"/>
		<path class="st1" d="M266,164.2c-7.3,11.2-10.5,22.3-10.6,22.8c-1,3.7,1.1,7.6,4.9,8.6c0.6,0.2,1.3,0.3,1.9,0.3
			c3.1,0,5.9-2,6.7-5.1c0.1-0.4,10.6-36.6,36.1-36.6c3.9,0,7-3.1,7-7s-3.1-7-7-7C289.7,140.2,276.3,148.5,266,164.2z"/>
		<path class="st1" d="M210.1,163.8c15.4-3.6,22.4,11,23.2,12.7c1.2,2.6,3.7,4.2,6.4,4.2c0.9,0,1.9-0.2,2.8-0.6
			c3.5-1.5,5.2-5.7,3.6-9.2c-4.1-9.4-17.5-25.8-39.2-20.7c-3.8,0.9-6.1,4.6-5.2,8.4C202.5,162.3,206.3,164.7,210.1,163.8z"/>
		<path class="st1" d="M253.7,157c0.4,0.1,0.8,0.1,1.2,0.1c3.3,0,6.3-2.4,6.9-5.8c0-0.2,3.4-18.5,18.7-33.2c2.8-2.7,2.9-7.1,0.2-9.9
			s-7.1-2.9-9.9-0.2c-18.4,17.8-22.5,39.9-22.7,40.8C247.3,152.7,249.9,156.3,253.7,157z"/>
	</g>
</g>
</svg>
