<?xml version="1.0" encoding="utf-8"?>
<!-- Generator: Adobe Illustrator 19.2.1, SVG Export Plug-In . SVG Version: 6.00 Build 0)  -->
<svg version="1.1" id="Layer_1" xmlns="http://www.w3.org/2000/svg" xmlns:xlink="http://www.w3.org/1999/xlink" x="0px" y="0px"
	 viewBox="0 0 512 512" style="enable-background:new 0 0 512 512;" xml:space="preserve">
<style type="text/css">
	.st0{fill:url(#SVGID_1_);}
	.st1{fill:#FFFFFF;}
</style>
<g>
	<linearGradient id="SVGID_1_" gradientUnits="userSpaceOnUse" x1="371.0552" y1="421.8318" x2="156.5787" y2="50.3476">
		<stop  offset="0" style="stop-color:#AAE412"/>
		<stop  offset="0.6099" style="stop-color:#CEE416"/>
	</linearGradient>
	<path class="st0" d="M454.8,222.6c0-109.8-89-198.8-198.8-198.8s-198.8,89-198.8,198.8c0,87.6,56.7,162,135.4,188.5l63.4,77.2
		l63.4-77.2C398.1,384.6,454.8,310.2,454.8,222.6z"/>
	<path class="st1" d="M342.1,145.9c-1.2-1.4-2.5-2.9-3.8-4.2c-0.1-0.1-0.2-0.2-0.3-0.3c-0.4-0.4-0.8-0.8-1.2-1.2
		c-21.6-21.6-50.2-33.4-80.7-33.4s-59.2,11.9-80.7,33.4c-44.5,44.5-44.5,116.9,0,161.5c0.6,0.6,1.2,1.2,1.8,1.8
		c0.3,0.3,0.6,0.6,0.8,0.9c0.3,0.3,0.6,0.6,0.9,0.8c21.1,19.4,48.3,30,77.1,30c30.5,0,59.2-11.9,80.7-33.4
		C379.4,259,381.2,190.7,342.1,145.9z M185.2,150.1c18.9-18.9,44.1-29.3,70.8-29.3s51.9,10.4,70.8,29.3c1.7,1.7,3.2,3.4,4.7,5.1
		c14.9,18.3,13.8,45.3-3.2,62.3c-18.2,18.2-47.7,18.2-65.9,0c-0.2-0.2-0.4-0.4-0.7-0.6c-11.2-10.4-25.7-16-41-16
		c-16.2,0-31.4,6.3-42.8,17.7c-9.5,9.5-15.2,21.4-17,33.7C149.5,217.6,157.6,177.7,185.2,150.1z M326.8,291.8
		c-18.9,18.9-44.1,29.3-70.8,29.3c-25.9,0-50.3-9.8-69-27.6c-17.3-18.2-17-47.1,0.9-65c8.8-8.8,20.5-13.6,32.9-13.6
		c12.4,0,24.1,4.8,32.9,13.6c0.2,0.2,0.4,0.4,0.7,0.6c11.6,10.7,26.3,16,41,16c15.5,0,31-5.9,42.8-17.7c7.8-7.8,13-17.3,15.7-27.3
		C360.7,232.2,351.7,266.9,326.8,291.8z"/>
</g>
</svg>
