<?xml version="1.0" encoding="utf-8"?>
<!-- Generator: Adobe Illustrator 19.2.1, SVG Export Plug-In . SVG Version: 6.00 Build 0)  -->
<svg version="1.1" id="Layer_1" xmlns="http://www.w3.org/2000/svg" xmlns:xlink="http://www.w3.org/1999/xlink" x="0px" y="0px"
	 viewBox="0 0 512 512" style="enable-background:new 0 0 512 512;" xml:space="preserve">
<style type="text/css">
	.st0{fill:url(#SVGID_1_);stroke:url(#SVGID_2_);stroke-miterlimit:10;}
	.st1{fill:#FFFFFF;}
</style>
<g>
	<linearGradient id="SVGID_1_" gradientUnits="userSpaceOnUse" x1="371.0553" y1="421.8318" x2="156.5787" y2="50.3475">
		<stop  offset="0" style="stop-color:#793798"/>
		<stop  offset="0.7831" style="stop-color:#824CB4"/>
	</linearGradient>
	<linearGradient id="SVGID_2_" gradientUnits="userSpaceOnUse" x1="56.6895" y1="256.144" x2="455.3105" y2="256.144">
		<stop  offset="0" style="stop-color:#FFFFFF;stop-opacity:0.3"/>
		<stop  offset="1" style="stop-color:#FFFFFF;stop-opacity:0"/>
	</linearGradient>
	<path class="st0" d="M454.8,222.6c0-109.8-89-198.8-198.8-198.8s-198.8,89-198.8,198.8c0,87.6,56.7,162,135.4,188.5l63.4,77.2
		l63.4-77.2C398.1,384.6,454.8,310.2,454.8,222.6z"/>
	<g>
		<path class="st1" d="M256,202.2c21.8,0,39.4-17.1,39.4-38.1c0-3.9-3.1-7-7-7s-7,3.1-7,7c0,13.3-11.4,24.1-25.4,24.1
			s-25.4-10.8-25.4-24.1c0-3.9-3.1-7-7-7s-7,3.1-7,7C216.6,185.1,234.2,202.2,256,202.2z"/>
		<path class="st1" d="M183.1,114.9v197.7h145.7V114.9H183.1z M314.9,298.6H197.1V128.9h117.7V298.6z"/>
	</g>
</g>
</svg>
