<?xml version="1.0" encoding="utf-8"?>
<!-- Generator: Adobe Illustrator 19.2.1, SVG Export Plug-In . SVG Version: 6.00 Build 0)  -->
<svg version="1.1" id="Layer_1" xmlns="http://www.w3.org/2000/svg" xmlns:xlink="http://www.w3.org/1999/xlink" x="0px" y="0px"
	 viewBox="0 0 512 512" style="enable-background:new 0 0 512 512;" xml:space="preserve">
<style type="text/css">
	.st0{fill:url(#SVGID_1_);}
	.st1{fill:#FFFFFF;}
</style>
<g>
	<linearGradient id="SVGID_1_" gradientUnits="userSpaceOnUse" x1="371.0553" y1="421.8318" x2="156.5787" y2="50.3475">
		<stop  offset="1.359216e-02" style="stop-color:#B84E3F"/>
		<stop  offset="0.5828" style="stop-color:#D04E3F"/>
	</linearGradient>
	<path class="st0" d="M454.8,222.6c0-109.8-89-198.8-198.8-198.8s-198.8,89-198.8,198.8c0,87.6,56.7,162,135.4,188.5l63.4,77.2
		l63.4-77.2C398.1,384.6,454.8,310.2,454.8,222.6z"/>
	<g>
		<path class="st1" d="M332.5,292c-5-5-11.6-7.7-18.6-7.7c-1.2,0-2.4,0.1-3.6,0.3c-0.3-0.6-0.7-1.2-1.1-1.7L193.1,152.6
			c-0.2-0.2-0.3-0.4-0.5-0.5c-0.1-0.1-0.1-0.2-0.2-0.2c-10.2-10.2-26.9-10.2-37.2,0c-5,5-7.7,11.6-7.7,18.6s2.7,13.6,7.7,18.6
			c0.1,0.1,0.2,0.2,0.3,0.2c0.2,0.2,0.3,0.3,0.5,0.5l130.3,116.1c0.5,0.5,1.1,0.8,1.7,1.1c-1.1,7.9,1.4,16.2,7.4,22.2l0,0
			c5,5,11.6,7.7,18.6,7.7s13.6-2.7,18.6-7.7c5-5,7.7-11.6,7.7-18.6C340.2,303.6,337.5,297,332.5,292z M165.3,179.3
			C165.2,179.2,165.2,179.2,165.3,179.3c-0.1-0.1-0.1-0.1-0.2-0.2c-2.3-2.3-3.6-5.4-3.6-8.7s1.3-6.4,3.6-8.7
			c4.8-4.8,12.6-4.8,17.4,0c0,0,0.1,0.1,0.1,0.1c0,0,0,0,0,0.1l114.5,128.5c-0.6,0.5-1.2,1-1.8,1.6c-0.6,0.6-1.1,1.2-1.6,1.8
			L165.3,179.3z M322.6,319.3c-2.3,2.3-5.4,3.6-8.7,3.6c-3.3,0-6.4-1.3-8.7-3.6c-4.8-4.8-4.8-12.6,0-17.4c2.3-2.3,5.4-3.6,8.7-3.6
			c3.3,0,6.4,1.3,8.7,3.6s3.6,5.4,3.6,8.7S325,317,322.6,319.3z"/>
		<path class="st1" d="M234.6,139.1c5.4,5.4,12.6,8.1,19.7,8.1c7.1,0,14.3-2.7,19.7-8.1c5.3-5.3,8.2-12.2,8.2-19.7
			c0-7.4-2.9-14.4-8.2-19.7c-5.3-5.3-12.2-8.2-19.7-8.2c-7.4,0-14.4,2.9-19.7,8.2C223.8,110.6,223.8,128.2,234.6,139.1L234.6,139.1z
			 M244.5,109.6c2.6-2.6,6.1-4.1,9.8-4.1c3.7,0,7.2,1.4,9.8,4.1c2.6,2.6,4.1,6.1,4.1,9.8c0,3.7-1.4,7.2-4.1,9.8
			c-5.4,5.4-14.2,5.4-19.6,0h0C239.1,123.8,239.1,115,244.5,109.6z"/>
	</g>
</g>
</svg>
