<?xml version="1.0" encoding="utf-8"?>
<!-- Generator: Adobe Illustrator 19.2.1, SVG Export Plug-In . SVG Version: 6.00 Build 0)  -->
<svg version="1.1" id="Layer_1" xmlns="http://www.w3.org/2000/svg" xmlns:xlink="http://www.w3.org/1999/xlink" x="0px" y="0px"
	 viewBox="0 0 512 512" style="enable-background:new 0 0 512 512;" xml:space="preserve">
<style type="text/css">
	.st0{fill:url(#SVGID_1_);}
	.st1{fill:#FFFFFF;}
</style>
<g>
	<linearGradient id="SVGID_1_" gradientUnits="userSpaceOnUse" x1="371.0553" y1="421.8318" x2="156.5787" y2="50.3475">
		<stop  offset="0" style="stop-color:#0BA13E"/>
		<stop  offset="0.6099" style="stop-color:#35BF27"/>
	</linearGradient>
	<path class="st0" d="M454.8,222.6c0-109.8-89-198.8-198.8-198.8s-198.8,89-198.8,198.8c0,87.6,56.7,162,135.4,188.5l63.4,77.2
		l63.4-77.2C398.1,384.6,454.8,310.2,454.8,222.6z"/>
	<path class="st1" d="M345.2,135.4c0-2.1-1-4-2.6-5.3c-1.3-1.6-3.2-2.6-5.3-2.6c-4.5-0.1-111.7-1.4-143.7,45.9
		c-13.5,20-17.4,43.8-11.2,68.7c2.5,10,6.1,18.3,9,23.9c-11.6,7.1-25.8,12.3-38.1,8.1c-3.7-1.2-7.6,0.7-8.9,4.4
		c-1.2,3.7,0.7,7.6,4.4,8.9c4.7,1.6,9.4,2.3,14,2.3c13.5,0,26.5-5.8,36.9-12.3c3.2,2.1,14.9,9,30.9,13c7.7,1.9,15.4,2.9,22.8,2.9
		c16.5,0,32.1-4.7,45.9-14.1C346.7,247.1,345.3,140,345.2,135.4z M195.9,238.3c-5.2-21.1-2-40.3,9.3-57
		c11.3-16.7,37.3-28.8,75.4-35.2c14.9-2.5,28.9-3.6,39.3-4.2l-27,27h-52c-3.9,0-7,3.1-7,7s3.1,7,7,7h38l-66.7,66.7
		c0,0-0.1,0.1-0.1,0.1c-0.1,0.1-0.2,0.2-0.3,0.3l-1.7,1.7c-1.9,1.8-4.3,4-7.1,6.2C200.6,253,197.8,246.3,195.9,238.3z M326.7,192.2
		c-6.4,38.1-18.6,64.2-35.2,75.4c-16.7,11.3-35.9,14.5-57,9.3c-8.3-2-15.3-5-20.2-7.4l40.3-40.3v26c0,3.9,3.1,7,7,7s7-3.1,7-7v-40
		l62.3-62.3C330.3,163.3,329.2,177.3,326.7,192.2z"/>
</g>
</svg>
