<?xml version="1.0" encoding="utf-8"?>
<!-- Generator: Adobe Illustrator 19.2.1, SVG Export Plug-In . SVG Version: 6.00 Build 0)  -->
<svg version="1.1" id="Layer_1" xmlns="http://www.w3.org/2000/svg" xmlns:xlink="http://www.w3.org/1999/xlink" x="0px" y="0px"
	 viewBox="0 0 512 512" style="enable-background:new 0 0 512 512;" xml:space="preserve">
<style type="text/css">
	.st0{fill:url(#SVGID_1_);stroke:url(#SVGID_2_);stroke-miterlimit:10;}
	.st1{fill:#FFFFFF;}
</style>
<g>
	<linearGradient id="SVGID_1_" gradientUnits="userSpaceOnUse" x1="371.0553" y1="421.8318" x2="156.5787" y2="50.3475">
		<stop  offset="0" style="stop-color:#793798"/>
		<stop  offset="0.7831" style="stop-color:#824CB4"/>
	</linearGradient>
	<linearGradient id="SVGID_2_" gradientUnits="userSpaceOnUse" x1="56.6895" y1="256.144" x2="455.3105" y2="256.144">
		<stop  offset="0" style="stop-color:#FFFFFF;stop-opacity:0.3"/>
		<stop  offset="1" style="stop-color:#FFFFFF;stop-opacity:0"/>
	</linearGradient>
	<path class="st0" d="M454.8,222.6c0-109.8-89-198.8-198.8-198.8s-198.8,89-198.8,198.8c0,87.6,56.7,162,135.4,188.5l63.4,77.2
		l63.4-77.2C398.1,384.6,454.8,310.2,454.8,222.6z"/>
	<path class="st1" d="M347.1,182.3c0.6-2.1,0.2-4.4-1.1-6.1s-3.4-2.8-5.6-2.8H182.5c-0.4,0-0.8,0-1.1,0.1l-6-21.7
		c-0.8-3-3.6-5.1-6.7-5.1H146c-3.9,0-7,3.1-7,7s3.1,7,7,7h17.2l29.3,105.5c0.1,0.4,0.3,0.9,0.5,1.2c-1,2.8-1.6,5.9-1.6,9.1
		c0,14.7,12,26.7,26.7,26.7c12.8,0,23.5-9,26.1-21.1H271c2.6,12,13.3,21.1,26.1,21.1c14.7,0,26.7-12,26.7-26.7
		c0-3.1-0.5-6.1-1.5-8.9c0.2-0.4,0.4-0.8,0.5-1.3L347.1,182.3z M185.2,187.4H331l-19.3,66.7c-4.2-2.8-9.2-4.4-14.7-4.4
		c-11.8,0-21.9,7.7-25.4,18.4h-28.2c-3.5-10.7-13.6-18.4-25.4-18.4c-5.3,0-10.3,1.6-14.5,4.3L185.2,187.4z M218.2,289.2
		c-7,0-12.7-5.7-12.7-12.7c0-7,5.7-12.7,12.7-12.7s12.7,5.7,12.7,12.7C230.9,283.5,225.2,289.2,218.2,289.2z M297.1,289.2
		c-7,0-12.7-5.7-12.7-12.7c0-7,5.7-12.7,12.7-12.7s12.7,5.7,12.7,12.7C309.8,283.5,304.1,289.2,297.1,289.2z"/>
</g>
</svg>
