<?xml version="1.0" encoding="utf-8"?>
<!-- Generator: Adobe Illustrator 19.2.1, SVG Export Plug-In . SVG Version: 6.00 Build 0)  -->
<svg version="1.1" id="Layer_1" xmlns="http://www.w3.org/2000/svg" xmlns:xlink="http://www.w3.org/1999/xlink" x="0px" y="0px"
	 viewBox="0 0 512 512" style="enable-background:new 0 0 512 512;" xml:space="preserve">
<style type="text/css">
	.st0{fill:url(#SVGID_1_);}
	.st1{fill:#FFFFFF;}
</style>
<g>
	<linearGradient id="SVGID_1_" gradientUnits="userSpaceOnUse" x1="371.0553" y1="421.8318" x2="156.5787" y2="50.3475">
		<stop  offset="0" style="stop-color:#62738C"/>
		<stop  offset="1" style="stop-color:#68739D"/>
	</linearGradient>
	<path class="st0" d="M454.8,222.6c0-109.8-89-198.8-198.8-198.8s-198.8,89-198.8,198.8c0,87.6,56.7,162,135.4,188.5l63.4,77.2
		l63.4-77.2C398.1,384.6,454.8,310.2,454.8,222.6z"/>
	<path class="st1" d="M352.5,186.2l-51.7-89.5l-35.1,45.6l25.4,43.9l-21,36.4h-27.6l-21-36.4l25.4-43.9l-35.1-45.6l-51.7,89.5
		l45.5,78.8v56.3c0,3.9,3.1,7,7,7s7-3.1,7-7v-58.2c0,0,0,0,0-0.1c0-0.2,0-0.3,0-0.5c0-0.1,0-0.2,0-0.2c0-0.1,0-0.3-0.1-0.4
		c0-0.1,0-0.2,0-0.3c0-0.1-0.1-0.2-0.1-0.4c0-0.1-0.1-0.2-0.1-0.3c0-0.1-0.1-0.2-0.1-0.3c0-0.1-0.1-0.3-0.1-0.4
		c0-0.1-0.1-0.2-0.1-0.2c-0.1-0.1-0.1-0.3-0.2-0.4c0,0,0,0,0-0.1l-42.4-73.4l37.2-64.4l16.6,21.6l-24.7,42.8l29.1,50.4h43.7
		l29.1-50.4l-24.7-42.8l16.6-21.6l37.2,64.4l-42.4,73.4c0,0,0,0,0,0.1c-0.1,0.1-0.1,0.3-0.2,0.4c0,0.1-0.1,0.2-0.1,0.2
		c-0.1,0.1-0.1,0.3-0.1,0.4c0,0.1-0.1,0.2-0.1,0.3c0,0.1-0.1,0.2-0.1,0.3c0,0.1-0.1,0.2-0.1,0.4c0,0.1,0,0.2,0,0.3
		c0,0.1,0,0.3-0.1,0.4c0,0.1,0,0.2,0,0.2c0,0.2,0,0.3,0,0.5c0,0,0,0,0,0.1v58.2c0,3.9,3.1,7,7,7s7-3.1,7-7V265L352.5,186.2z"/>
</g>
</svg>
