<?xml version="1.0" encoding="utf-8"?>
<!-- Generator: Adobe Illustrator 19.2.1, SVG Export Plug-In . SVG Version: 6.00 Build 0)  -->
<svg version="1.1" id="Layer_1" xmlns="http://www.w3.org/2000/svg" xmlns:xlink="http://www.w3.org/1999/xlink" x="0px" y="0px"
	 viewBox="0 0 512 512" style="enable-background:new 0 0 512 512;" xml:space="preserve">
<style type="text/css">
	.st0{fill:url(#SVGID_1_);}
	.st1{fill:#FFFFFF;}
</style>
<g>
	<linearGradient id="SVGID_1_" gradientUnits="userSpaceOnUse" x1="256" y1="488.259" x2="256" y2="23.741">
		<stop  offset="0" style="stop-color:#FB9F3F"/>
		<stop  offset="0.6344" style="stop-color:#E5A810"/>
	</linearGradient>
	<path class="st0" d="M454.8,222.6c0-109.8-89-198.8-198.8-198.8s-198.8,89-198.8,198.8c0,87.6,56.7,162,135.4,188.5l63.4,77.2
		l63.4-77.2C398.1,384.6,454.8,310.2,454.8,222.6z"/>
	<path class="st1" d="M301.6,141.8c-0.8-6.2-2.2-11.7-4.1-16.1c-1.6-3.5-5.7-5.1-9.2-3.5c-3.5,1.6-5.1,5.7-3.5,9.2
		c0.5,1.1,1,2.4,1.4,3.7c-9.5-3.1-19.5-4.8-30-4.8s-20.6,1.7-30,4.8c0.4-1.3,0.9-2.6,1.4-3.7c1.6-3.5,0-7.7-3.5-9.2
		c-3.5-1.6-7.7,0-9.2,3.5c-2,4.4-3.4,9.9-4.1,16.1c-30.5,16.3-51.3,48.5-51.3,85.5c0,2,0.2,30.4,0.8,35l0.8,6.1h16
		c0,0.4,0,0.9,0.1,1.4c0.4,1.7,9.5,42.2,78.9,42.2c0.1,0,0.2,0,0.3,0c0.1,0,0.2,0,0.3,0c69.4,0,78.6-40.5,78.9-42.2
		c0.1-0.5,0.1-0.9,0.1-1.4h15.8l0.8-6.1c0.6-4.6,0.8-33.1,0.8-35C352.9,190.3,332.1,158.1,301.6,141.8z M256.4,297.9
		c-0.1,0-0.2,0-0.3,0c-0.1,0-0.2,0-0.3,0c-50.6,0-62.4-23.2-64.7-29.5h130.1C318.8,274.8,307,297.9,256.4,297.9z M338.5,254.4H173.5
		c-0.3-8.6-0.4-23.1-0.4-27.1c0-28.6,14.5-53.8,36.5-68.7c0.4,20.5,5.3,45.5,14.1,69.7c1.4,3.9,3,8,4.8,12c1.1,2.7,3.7,4.3,6.4,4.3
		c0.9,0,1.8-0.2,2.7-0.6c3.6-1.5,5.2-5.6,3.7-9.2c-1.6-3.8-3.1-7.6-4.5-11.3c-9.2-25.4-14-52.8-13.2-72.5c9.9-4.2,20.9-6.6,32.3-6.6
		s22.4,2.3,32.3,6.6c0.8,19.7-4,47.1-13.2,72.5c-1.3,3.7-2.8,7.5-4.5,11.3c-1.5,3.6,0.1,7.7,3.7,9.2c0.9,0.4,1.8,0.6,2.7,0.6
		c2.7,0,5.3-1.6,6.4-4.3c1.7-4.1,3.3-8.1,4.8-12c8.8-24.2,13.7-49.2,14.1-69.7c22,14.9,36.5,40.1,36.5,68.7
		C338.9,231.3,338.7,245.8,338.5,254.4z"/>
</g>
</svg>
