<?xml version="1.0" encoding="utf-8"?>
<!-- Generator: Adobe Illustrator 19.2.1, SVG Export Plug-In . SVG Version: 6.00 Build 0)  -->
<svg version="1.1" id="Layer_1" xmlns="http://www.w3.org/2000/svg" xmlns:xlink="http://www.w3.org/1999/xlink" x="0px" y="0px"
	 viewBox="0 0 512 512" style="enable-background:new 0 0 512 512;" xml:space="preserve">
<style type="text/css">
	.st0{fill:url(#SVGID_1_);}
	.st1{fill:#FFFFFF;}
</style>
<g>
	<linearGradient id="SVGID_1_" gradientUnits="userSpaceOnUse" x1="371.0553" y1="421.8318" x2="156.5787" y2="50.3475">
		<stop  offset="0" style="stop-color:#674C3F"/>
		<stop  offset="0.7831" style="stop-color:#8E6D5D"/>
	</linearGradient>
	<path class="st0" d="M454.8,222.6c0-109.8-89-198.8-198.8-198.8s-198.8,89-198.8,198.8c0,87.6,56.7,162,135.4,188.5l63.4,77.2
		l63.4-77.2C398.1,384.6,454.8,310.2,454.8,222.6z"/>
	<g>
		<path class="st1" d="M347,301.7H165.1c-3.9,0-7,3.1-7,7c0,3.9,3.1,7,7,7H347c3.9,0,7-3.1,7-7C354,304.9,350.8,301.7,347,301.7z"/>
		<path class="st1" d="M313.3,277.9v-50.3v-14v-50.3H263h-14h-50.3v50.3v14v50.3H249h14H313.3z M299.3,263.9H263v-36.3h36.3V263.9z
			 M263,177.4h36.3v36.3H263V177.4z M212.8,177.4H249v36.3h-36.3V177.4z M249,263.9h-36.3v-36.3H249V263.9z"/>
		<path class="st1" d="M371.8,135.9L256,108.4l-115.8,27.5c-3.8,0.9-6.1,4.7-5.2,8.4c0.9,3.8,4.7,6.1,8.4,5.2L256,122.8l112.6,26.7
			c0.5,0.1,1.1,0.2,1.6,0.2c3.2,0,6-2.2,6.8-5.4C377.9,140.6,375.6,136.8,371.8,135.9z"/>
	</g>
</g>
</svg>
