<?xml version="1.0" encoding="utf-8"?>
<!-- Generator: Adobe Illustrator 19.2.1, SVG Export Plug-In . SVG Version: 6.00 Build 0)  -->
<svg version="1.1" id="Layer_1" xmlns="http://www.w3.org/2000/svg" xmlns:xlink="http://www.w3.org/1999/xlink" x="0px" y="0px"
	 viewBox="0 0 512 512" style="enable-background:new 0 0 512 512;" xml:space="preserve">
<style type="text/css">
	.st0{fill:url(#SVGID_1_);}
	.st1{fill:#FFFFFF;}
</style>
<g>
	<linearGradient id="SVGID_1_" gradientUnits="userSpaceOnUse" x1="371.0553" y1="421.8318" x2="156.5787" y2="50.3475">
		<stop  offset="0" style="stop-color:#D22242"/>
		<stop  offset="1" style="stop-color:#FF2242"/>
	</linearGradient>
	<path class="st0" d="M454.8,222.6c0-109.8-89-198.8-198.8-198.8s-198.8,89-198.8,198.8c0,87.6,56.7,162,135.4,188.5l63.4,77.2
		l63.4-77.2C398.1,384.6,454.8,310.2,454.8,222.6z"/>
	<path class="st1" d="M322.5,235.6c-0.7-3.6-4-6.1-7.6-5.7c-3.6,0.4-6.4,3.5-6.2,7.2c0.1,1.6-0.2,3.2-0.7,4.8
		c-1.2,3.4-3.6,6.2-6.9,7.8c-3.2,1.6-6.9,1.8-10.3,0.6c-3.4-1.2-6.2-3.6-7.8-6.9s-1.8-6.9-0.6-10.3c0.7-2.1,1.9-3.9,3.4-5.4
		c0.3-0.3,0.6-0.7,0.9-1l19.6-19.5c2.1-2.1,2.7-5.4,1.3-8.1l-44.8-90.7c-1.2-2.4-3.6-3.9-6.3-3.9s-5.1,1.5-6.3,3.9l-28.6,58
		c-1.5,3-0.6,6.6,2,8.6l21.3,16.4c0.3,0.3,0.6,0.6,1,0.9c1.8,1.3,3.1,3,4.1,4.9c1.6,3.2,1.8,6.9,0.6,10.3c-1.2,3.4-3.6,6.2-6.9,7.8
		c-6.7,3.3-14.8,0.5-18.1-6.2c-1-1.9-1.4-4-1.4-6.2c0-0.5,0-0.9-0.1-1.3l0-10.5c0-3.3-2.2-6.1-5.4-6.8c-3.2-0.7-6.4,0.8-7.9,3.7
		l-14.4,29.1c-0.3,0.6-0.5,1.3-0.6,2c-4.3,9.1-6.5,18.8-6.5,28.8c0,37,30.1,67.1,67.1,67.1s67.1-30.1,67.1-67.1
		C323.7,243.8,323.3,239.6,322.5,235.6z M256.6,301c-29.3,0-53.1-23.8-53.1-53.1c0-8.5,2-16.7,5.9-24.3c0.3-0.7,0.6-1.4,0.7-2.1
		l3-6.1c0,0,0,0,0,0c6.7,13.6,23.2,19.3,36.8,12.6c6.6-3.2,11.6-8.8,13.9-15.8c2.4-7,1.9-14.4-1.3-21c-1.7-3.5-4.2-6.6-7.2-9.1
		c-0.3-0.3-0.6-0.6-0.9-0.9l-17.7-13.7l19.8-40.1l36.2,73.5l-16.9,16.8c-0.3,0.3-0.6,0.6-0.8,1c-2.7,2.8-4.8,6.3-6,10
		c-2.4,7-1.9,14.4,1.3,21c3.2,6.6,8.8,11.6,15.8,13.9c7,2.4,14.4,1.9,21-1.3c0.2-0.1,0.4-0.2,0.6-0.3C301.7,284.4,281,301,256.6,301
		z"/>
</g>
</svg>
