<?xml version="1.0" encoding="utf-8"?>
<!-- Generator: Adobe Illustrator 19.2.1, SVG Export Plug-In . SVG Version: 6.00 Build 0)  -->
<svg version="1.1" id="Layer_1" xmlns="http://www.w3.org/2000/svg" xmlns:xlink="http://www.w3.org/1999/xlink" x="0px" y="0px"
	 viewBox="0 0 512 512" style="enable-background:new 0 0 512 512;" xml:space="preserve">
<style type="text/css">
	.st0{fill:url(#SVGID_1_);}
	.st1{fill:#FFFFFF;}
</style>
<g>
	<linearGradient id="SVGID_1_" gradientUnits="userSpaceOnUse" x1="371.0553" y1="421.8318" x2="156.5787" y2="50.3474">
		<stop  offset="0" style="stop-color:#315DFF"/>
		<stop  offset="0.725" style="stop-color:#128FFF"/>
	</linearGradient>
	<path class="st0" d="M454.8,222.6c0-109.8-89-198.8-198.8-198.8s-198.8,89-198.8,198.8c0,87.6,56.7,162,135.4,188.5l63.4,77.2
		l63.4-77.2C398.1,384.6,454.8,310.2,454.8,222.6z"/>
	<g>
		<path class="st1" d="M314.5,237.1c-38.6-12.4-91.9,21-107.4,31.6l-35-32.6c-1.8-1.7-4.5-2.2-6.8-1.2c-2.3,1-3.8,3.3-3.8,5.8V313
			c0,2.5,1.5,4.8,3.8,5.8c0.8,0.4,1.7,0.5,2.5,0.5c1.6,0,3.1-0.6,4.3-1.7l35-32.6c13.1,9,53.4,34.3,88.9,34.3
			c6.4,0,12.6-0.8,18.5-2.7c16.5-5.3,28.2-18,34.6-37.8c0.4-1.3,0.4-2.6,0-3.9C342.6,255.1,331,242.4,314.5,237.1z M174.1,298.4
			v-43.2l23.1,21.6L174.1,298.4z M310.6,304.5c-30.6,9.8-75.4-16.3-92.9-27.7c17.5-11.4,62.3-37.5,92.9-27.7
			c12.1,3.9,20.5,12.9,25.8,27.7C331.2,291.6,322.7,300.7,310.6,304.5z"/>
		<circle class="st1" cx="308.7" cy="271.2" r="10.1"/>
		<path class="st1" d="M370.9,163.8c-2.7-2.7-7.2-2.7-9.9,0c-9.3,9.3-18.1,13.6-26.2,12.8c-10.9-1.1-17.8-11.4-17.9-11.6
			c0,0,0,0,0,0c-0.1-0.1-0.2-0.2-0.3-0.4c-0.1-0.1-0.1-0.2-0.2-0.2c-0.1-0.1-0.1-0.1-0.2-0.2c-0.1-0.1-0.2-0.2-0.3-0.4c0,0,0,0,0,0
			c-12.5-12.5-25.2-18.1-37.8-16.8c-15.6,1.7-25.3,13.9-27.6,17.2c-9.2,9-17.8,13.2-25.8,12.4c-10.9-1.1-17.8-11.4-17.9-11.6
			c0,0,0,0,0,0c-0.1-0.1-0.2-0.2-0.3-0.4c-0.1-0.1-0.1-0.2-0.2-0.2c-0.1-0.1-0.1-0.1-0.2-0.2c-0.1-0.1-0.2-0.2-0.3-0.4c0,0,0,0,0,0
			c-12.5-12.5-25.2-18.1-37.8-16.8c-17.7,1.9-27.7,17.3-28.1,18c-2.1,3.3-1.1,7.6,2.1,9.7c1.2,0.7,2.5,1.1,3.8,1.1
			c2.3,0,4.6-1.1,5.9-3.2c0.1-0.1,6.9-10.4,17.8-11.6c8-0.9,16.7,3.3,25.9,12.3c2.3,3.2,11.9,15.5,27.6,17.2
			c1.2,0.1,2.5,0.2,3.7,0.2c11.3,0,22.6-5.6,33.9-16.8c0,0,0,0,0,0c0.1-0.1,0.1-0.1,0.2-0.2c0.1-0.1,0.2-0.2,0.3-0.3
			c0.1-0.1,0.1-0.1,0.2-0.2c0.2-0.2,0.3-0.4,0.5-0.7c0,0,0,0,0,0c0.1-0.1,6.9-10.4,17.8-11.6c8-0.9,16.7,3.3,25.9,12.3
			c2.3,3.2,11.9,15.5,27.6,17.2c1.2,0.1,2.5,0.2,3.7,0.2c11.3,0,22.8-5.7,34.1-17C373.7,171,373.7,166.6,370.9,163.8z"/>
	</g>
</g>
</svg>
