<?xml version="1.0" encoding="utf-8"?>
<!-- Generator: Adobe Illustrator 19.2.1, SVG Export Plug-In . SVG Version: 6.00 Build 0)  -->
<svg version="1.1" id="Layer_1" xmlns="http://www.w3.org/2000/svg" xmlns:xlink="http://www.w3.org/1999/xlink" x="0px" y="0px"
	 viewBox="0 0 512 512" style="enable-background:new 0 0 512 512;" xml:space="preserve">
<style type="text/css">
	.st0{fill:url(#SVGID_1_);}
	.st1{fill:#FFFFFF;}
</style>
<g>
	<linearGradient id="SVGID_1_" gradientUnits="userSpaceOnUse" x1="371.0553" y1="421.8318" x2="156.5787" y2="50.3474">
		<stop  offset="0" style="stop-color:#0BA13E"/>
		<stop  offset="0.6099" style="stop-color:#35BF27"/>
	</linearGradient>
	<path class="st0" d="M454.8,222.6c0-109.8-89-198.8-198.8-198.8s-198.8,89-198.8,198.8c0,87.6,56.7,162,135.4,188.5l63.4,77.2
		l63.4-77.2C398.1,384.6,454.8,310.2,454.8,222.6z"/>
	<g>
		<path class="st1" d="M252.9,185.9c-8.6-4.9-15.5-3.8-19.7-1.9c-12.2,5.3-16.4,21.9-16.9,23.8c-0.9,3.8,1.4,7.5,5.2,8.4
			c0.5,0.1,1.1,0.2,1.6,0.2c3.2,0,6-2.2,6.8-5.4c0.8-3.6,4.3-12.2,8.8-14.2c0.7-0.3,2.9-1.2,7.2,1.2c3.4,1.9,7.6,0.7,9.5-2.6
			C257.4,192.1,256.3,187.8,252.9,185.9z"/>
		<path class="st1" d="M275.8,219.3c0.3,0,0.6,0,0.9,0c9.4,0,14.6-4.1,17.4-7.6c8.3-10.4,4.2-27.1,3.7-28.9c-1-3.7-4.8-6-8.6-5
			c-3.7,1-6,4.8-5,8.6c0.9,3.6,2,12.8-1.1,16.7c-0.5,0.6-1.9,2.4-7,2.3c-3.8-0.1-7.1,2.9-7.2,6.8C268.9,216,271.9,219.2,275.8,219.3
			z"/>
		<path class="st1" d="M335,317.5h-71.8v-55.9c37.8-3.6,67.5-35.6,67.5-74.3c0-41.2-33.5-74.7-74.7-74.7s-74.7,33.5-74.7,74.7
			c0,38.9,29.9,70.9,67.9,74.4v55.9H177c-3.9,0-7,3.1-7,7s3.1,7,7,7h158c3.9,0,7-3.1,7-7S338.9,317.5,335,317.5z M195.3,187.2
			c0-24,14-44.8,34.2-54.6c0.6,3.7,2.1,6.5,3.5,8.5c7.9,10.7,25.1,11,27,11c0,0,0,0,0,0c3.9,0,7-3.1,7-7c0-3.9-3.1-7-7-7
			c-3.7,0-12.8-1.4-15.8-5.4c-0.4-0.5-1.4-1.8-1-4.9c4.1-0.9,8.3-1.3,12.6-1.3c33.5,0,60.7,27.2,60.7,60.7
			c0,33.5-27.2,60.7-60.7,60.7S195.3,220.7,195.3,187.2z"/>
	</g>
</g>
</svg>
