<?xml version="1.0" encoding="utf-8"?>
<!-- Generator: Adobe Illustrator 19.2.1, SVG Export Plug-In . SVG Version: 6.00 Build 0)  -->
<svg version="1.1" id="Layer_1" xmlns="http://www.w3.org/2000/svg" xmlns:xlink="http://www.w3.org/1999/xlink" x="0px" y="0px"
	 viewBox="0 0 512 512" style="enable-background:new 0 0 512 512;" xml:space="preserve">
<style type="text/css">
	.st0{fill:url(#SVGID_1_);}
	.st1{fill:#FFFFFF;}
</style>
<g>
	<linearGradient id="SVGID_1_" gradientUnits="userSpaceOnUse" x1="371.0553" y1="421.8318" x2="156.5787" y2="50.3475">
		<stop  offset="0" style="stop-color:#0BA13E"/>
		<stop  offset="0.6099" style="stop-color:#35BF27"/>
	</linearGradient>
	<path class="st0" d="M454.8,222.6c0-109.8-89-198.8-198.8-198.8s-198.8,89-198.8,198.8c0,87.6,56.7,162,135.4,188.5l63.4,77.2
		l63.4-77.2C398.1,384.6,454.8,310.2,454.8,222.6z"/>
	<g>
		<circle class="st1" cx="232.4" cy="165.1" r="11.3"/>
		<circle class="st1" cx="270.2" cy="192.4" r="11.3"/>
		<circle class="st1" cx="243.7" cy="219.7" r="11.3"/>
		<path class="st1" d="M335,317.5h-71.8v-55.9c37.8-3.6,67.5-35.6,67.5-74.3c0-41.2-33.5-74.7-74.7-74.7s-74.7,33.5-74.7,74.7
			c0,38.9,29.9,70.9,67.9,74.4v55.9H177c-3.9,0-7,3.1-7,7s3.1,7,7,7h158c3.9,0,7-3.1,7-7S338.9,317.5,335,317.5z M199.1,208.4
			c1.6,0.9,3.5,1.4,5.4,1.4c6.2,0,11.3-5.1,11.3-11.3c0-6.2-5.1-11.3-11.3-11.3c-3.7,0-7,1.8-9.1,4.6c-0.1-1.5-0.2-3-0.2-4.6
			c0-33.5,27.2-60.7,60.7-60.7c1.4,0,2.8,0.1,4.2,0.2c-3.1,2-5.2,5.5-5.2,9.5c0,6.2,5.1,11.3,11.3,11.3c6.2,0,11.3-5.1,11.3-11.3
			c0-2.4-0.7-4.6-2-6.4c12.9,4.4,23.9,13.1,31.3,24.3c-0.9-0.2-1.8-0.4-2.7-0.4c-6.2,0-11.3,5.1-11.3,11.3c0,6.2,5.1,11.3,11.3,11.3
			c4.4,0,8.3-2.6,10.1-6.3c1.6,5.5,2.5,11.2,2.5,17.2c0,33.5-27.2,60.7-60.7,60.7C230,247.9,207.7,231.5,199.1,208.4z"/>
	</g>
</g>
</svg>
