<?xml version="1.0" encoding="utf-8"?>
<!-- Generator: Adobe Illustrator 19.2.1, SVG Export Plug-In . SVG Version: 6.00 Build 0)  -->
<svg version="1.1" id="Layer_1" xmlns="http://www.w3.org/2000/svg" xmlns:xlink="http://www.w3.org/1999/xlink" x="0px" y="0px"
	 viewBox="0 0 512 512" style="enable-background:new 0 0 512 512;" xml:space="preserve">
<style type="text/css">
	.st0{fill:url(#SVGID_1_);}
	.st1{fill:#FFFFFF;}
</style>
<g>
	<linearGradient id="SVGID_1_" gradientUnits="userSpaceOnUse" x1="371.0553" y1="421.8318" x2="156.5787" y2="50.3475">
		<stop  offset="0" style="stop-color:#2E20A8"/>
		<stop  offset="0.725" style="stop-color:#1F4BB6"/>
	</linearGradient>
	<path class="st0" d="M454.8,222.6c0-109.8-89-198.8-198.8-198.8s-198.8,89-198.8,198.8c0,87.6,56.7,162,135.4,188.5l63.4,77.2
		l63.4-77.2C398.1,384.6,454.8,310.2,454.8,222.6z"/>
	<g>
		<path class="st1" d="M367.1,171.5L346,133c-1.2-2.2-3.6-3.6-6.1-3.6h-1.6c-1.8,0-3.5,0.7-4.8,1.9c-12.4,11.8-48.9,17.1-77.5,17.1
			s-65.1-5.4-77.5-17.1c-1.3-1.2-3-1.9-4.8-1.9h-1.6c-2.6,0-4.9,1.4-6.1,3.6l-21.1,38.5c-1.3,2.3-1.1,5.2,0.4,7.4
			c1.5,2.2,4.2,3.3,6.8,2.9c4.9-0.8,8.6-0.1,11.1,2.1c4.1,3.4,5,10.4,5.1,12.7c0,80.3,13.1,102.2,22.9,111.8
			c10.5,10.2,22.7,9.8,31.7,9.6c1.4,0,2.7-0.1,4-0.1c6.4,0,12,3.1,16.8,9.1c4,5.1,5.8,10.3,5.8,10.3c0.9,2.8,3.6,4.8,6.6,4.8
			c0,0,0,0,0,0c3,0,5.7-1.9,6.6-4.7c0-0.1,1.8-5.3,5.8-10.4c4.7-6,10.4-9.1,16.8-9.1c1.3,0,2.6,0,4,0.1c9,0.2,21.2,0.6,31.7-9.6
			c9.8-9.6,22.9-31.6,22.9-111.8c0-2.4,1-9.3,5.1-12.8c2.6-2.2,6.2-2.9,11.1-2.1c2.6,0.4,5.3-0.7,6.8-2.9
			C368.3,176.7,368.4,173.8,367.1,171.5z M339.7,173.3c-9.6,8.3-9.9,21.8-9.9,23.3c0,55.5-6.3,89.7-18.7,101.8
			c-6.2,6-13.3,5.9-21.5,5.6c-1.5,0-2.9-0.1-4.4-0.1c-10.9,0-20.6,5.1-28.1,14.8c-0.4,0.5-0.8,1-1.1,1.5c-0.4-0.5-0.7-1-1.1-1.5
			c-7.5-9.7-17.2-14.8-28.1-14.8c-1.4,0-2.9,0-4.4,0.1c-8.2,0.2-15.3,0.4-21.5-5.6c-12.4-12-18.7-46.3-18.7-101.8
			c0-1.5-0.3-15.1-9.9-23.3c-2.2-1.9-5.4-3.9-9.8-5l12.3-22.4c16.1,10.1,46.6,16.4,81.2,16.4s65.1-6.3,81.2-16.4l12.3,22.4
			C345.1,169.4,341.9,171.4,339.7,173.3z"/>
		<path class="st1" d="M306.1,212.2h-33.2l-10.3-31.6c-0.9-2.9-3.6-4.8-6.7-4.8s-5.7,2-6.7,4.8l-10.3,31.6h-33.2c-3,0-5.7,2-6.7,4.8
			c-0.9,2.9,0.1,6,2.5,7.8l26.9,19.5L218.4,276c-0.9,2.9,0.1,6,2.5,7.8c2.5,1.8,5.8,1.8,8.2,0l26.9-19.5l26.9,19.5
			c1.2,0.9,2.7,1.3,4.1,1.3s2.9-0.4,4.1-1.3c2.5-1.8,3.5-4.9,2.5-7.8l-10.3-31.6l26.9-19.5c2.5-1.8,3.5-4.9,2.5-7.8
			C311.9,214.2,309.2,212.2,306.1,212.2z M271,236.1c-2.5,1.8-3.5,4.9-2.5,7.8l5.2,15.9l-13.6-9.9c-1.2-0.9-2.7-1.3-4.1-1.3
			s-2.9,0.4-4.1,1.3l-13.6,9.9l5.2-15.9c0.9-2.9-0.1-6-2.5-7.8l-13.6-9.9h16.8c3,0,5.7-2,6.7-4.8l5.2-15.9l5.2,15.9
			c0.9,2.9,3.6,4.8,6.7,4.8h16.8L271,236.1z"/>
	</g>
</g>
</svg>
