<?xml version="1.0" encoding="utf-8"?>
<!-- Generator: Adobe Illustrator 19.2.1, SVG Export Plug-In . SVG Version: 6.00 Build 0)  -->
<svg version="1.1" id="Layer_1" xmlns="http://www.w3.org/2000/svg" xmlns:xlink="http://www.w3.org/1999/xlink" x="0px" y="0px"
	 viewBox="0 0 512 512" style="enable-background:new 0 0 512 512;" xml:space="preserve">
<style type="text/css">
	.st0{fill:url(#SVGID_1_);stroke:url(#SVGID_2_);stroke-miterlimit:10;}
	.st1{fill:#FFFFFF;}
</style>
<g>
	<linearGradient id="SVGID_1_" gradientUnits="userSpaceOnUse" x1="371.0553" y1="421.8318" x2="156.5787" y2="50.3475">
		<stop  offset="0" style="stop-color:#793798"/>
		<stop  offset="0.7831" style="stop-color:#824CB4"/>
	</linearGradient>
	<linearGradient id="SVGID_2_" gradientUnits="userSpaceOnUse" x1="56.6895" y1="256.144" x2="455.3105" y2="256.144">
		<stop  offset="0" style="stop-color:#FFFFFF;stop-opacity:0.3"/>
		<stop  offset="1" style="stop-color:#FFFFFF;stop-opacity:0"/>
	</linearGradient>
	<path class="st0" d="M454.8,222.6c0-109.8-89-198.8-198.8-198.8s-198.8,89-198.8,198.8c0,87.6,56.7,162,135.4,188.5l63.4,77.2
		l63.4-77.2C398.1,384.6,454.8,310.2,454.8,222.6z"/>
	<path class="st1" d="M326.4,145.9c-9.1-12-32.5-23.3-48-23.3c-3.9,0-7,3.1-7,7v145.6c-0.9-0.5-1.9-1-2.9-1.4
		c-9.1-4-21-6.2-33.6-6.2s-24.5,2.2-33.6,6.2c-14.7,6.5-16.9,15.3-16.9,20s2.2,13.5,16.9,20c9.1,4,21,6.2,33.6,6.2
		s24.5-2.2,33.6-6.2c14.7-6.5,16.9-15.3,16.9-20c0-0.1,0-0.2,0-0.3c0,0,0,0,0-0.1V137.5c9.8,2.2,21.7,8.3,27.9,14.6l-2.7,13
		c-0.8,3.8,1.6,7.5,5.4,8.3c0.5,0.1,1,0.1,1.4,0.1c3.2,0,6.2-2.3,6.8-5.6l4-19.5L326.4,145.9z M234.8,305.9
		c-24.1,0-36.6-8.5-36.6-12.2s12.4-12.2,36.6-12.2s36.5,8.5,36.5,12.2S258.9,305.9,234.8,305.9z"/>
</g>
</svg>
