<?xml version="1.0" encoding="utf-8"?>
<!-- Generator: Adobe Illustrator 19.2.1, SVG Export Plug-In . SVG Version: 6.00 Build 0)  -->
<svg version="1.1" id="Layer_1" xmlns="http://www.w3.org/2000/svg" xmlns:xlink="http://www.w3.org/1999/xlink" x="0px" y="0px"
	 viewBox="0 0 512 512" style="enable-background:new 0 0 512 512;" xml:space="preserve">
<style type="text/css">
	.st0{fill:url(#SVGID_1_);}
	.st1{fill:#FFFFFF;}
</style>
<g>
	<linearGradient id="SVGID_1_" gradientUnits="userSpaceOnUse" x1="256" y1="488.259" x2="256" y2="23.741">
		<stop  offset="0" style="stop-color:#FB9F3F"/>
		<stop  offset="0.6344" style="stop-color:#E5A810"/>
	</linearGradient>
	<path class="st0" d="M454.8,222.6c0-109.8-89-198.8-198.8-198.8s-198.8,89-198.8,198.8c0,87.6,56.7,162,135.4,188.5l63.4,77.2
		l63.4-77.2C398.1,384.6,454.8,310.2,454.8,222.6z"/>
	<g>
		<path class="st1" d="M256,101.3l-107.1,159l1.4,3.5C167.8,307.1,209.3,335,256,335s88.2-28,105.7-71.2l1.4-3.5L256,101.3z
			 M275.7,155.6c-2.2-0.8-4.6-1.3-7.1-1.3c-11.5,0-20.8,9.3-20.8,20.8c0,11.5,9.3,20.8,20.8,20.8c11.3,0,20.4-8.9,20.8-20.1
			l40.9,60.7c-0.2,0.3-0.3,0.6-0.4,0.9c-12.3,32.4-41.3,53.3-73.8,53.3s-61.5-20.9-73.8-53.3c-0.1-0.3-0.3-0.6-0.4-0.9l9.3-13.8
			c0.9,10.6,9.8,19,20.7,19c11.5,0,20.8-9.3,20.8-20.8c0-11.5-9.3-20.8-20.8-20.8c-2.1,0-4.2,0.3-6.1,0.9l50.3-74.7L275.7,155.6z
			 M256,321c-39.7,0-75.2-23.1-91.3-59.1l7.8-11.6c15.9,33.3,47.8,54.4,83.5,54.4s67.6-21.1,83.5-54.4l7.8,11.6
			C331.2,297.9,295.7,321,256,321z"/>
		<circle class="st1" cx="281.4" cy="238.6" r="16.2"/>
	</g>
</g>
</svg>
