<?xml version="1.0" encoding="utf-8"?>
<!-- Generator: Adobe Illustrator 19.2.1, SVG Export Plug-In . SVG Version: 6.00 Build 0)  -->
<svg version="1.1" id="Layer_1" xmlns="http://www.w3.org/2000/svg" xmlns:xlink="http://www.w3.org/1999/xlink" x="0px" y="0px"
	 viewBox="0 0 512 512" style="enable-background:new 0 0 512 512;" xml:space="preserve">
<style type="text/css">
	.st0{fill:url(#SVGID_1_);stroke:url(#SVGID_2_);stroke-miterlimit:10;}
	.st1{fill:#FFFFFF;}
</style>
<g>
	<linearGradient id="SVGID_1_" gradientUnits="userSpaceOnUse" x1="371.0553" y1="421.8318" x2="156.5787" y2="50.3475">
		<stop  offset="0" style="stop-color:#4D3798"/>
		<stop  offset="0.7831" style="stop-color:#674CB4"/>
	</linearGradient>
	<linearGradient id="SVGID_2_" gradientUnits="userSpaceOnUse" x1="56.6895" y1="256.144" x2="455.3105" y2="256.144">
		<stop  offset="0" style="stop-color:#FFFFFF;stop-opacity:0.3"/>
		<stop  offset="1" style="stop-color:#FFFFFF;stop-opacity:0"/>
	</linearGradient>
	<path class="st0" d="M454.8,222.6c0-109.8-89-198.8-198.8-198.8s-198.8,89-198.8,198.8c0,87.6,56.7,162,135.4,188.5l63.4,77.2
		l63.4-77.2C398.1,384.6,454.8,310.2,454.8,222.6z"/>
	<path class="st1" d="M354.5,176.9c0-15.3-12.4-27.7-27.7-27.7c-10,0-18.8,5.3-23.6,13.3c-4.9-8-13.6-13.3-23.6-13.3
		c-5.4,0-10.5,1.6-14.8,4.3c0.2-1.2,0.5-2.5,0.8-3.8c2.5-10.7,7.9-24.7,19.5-30.4c3.5-1.7,4.9-5.9,3.2-9.4c-1.7-3.5-5.9-4.9-9.4-3.2
		c-19.4,9.6-26.3,32.8-28.7,49.1c-4.8-4.1-11.1-6.6-17.9-6.6c-10,0-18.8,5.3-23.6,13.3c-4.9-8-13.6-13.3-23.6-13.3
		c-15.3,0-27.7,12.4-27.7,27.7s12.4,27.7,27.7,27.7c0.1,0,0.2,0,0.3,0c-2.8,4.3-4.4,9.4-4.4,14.9c0,14.9,11.9,27.1,26.6,27.6
		c-1.9,3.8-3,8-3,12.5c0,14.9,11.9,27.1,26.6,27.6c-1.9,3.8-3,8-3,12.5c0,15.3,12.4,27.7,27.7,27.7s27.7-12.4,27.7-27.7
		c0-4.5-1.1-8.8-3-12.5c14.8-0.5,26.6-12.7,26.6-27.6c0-4.5-1.1-8.8-3-12.5c14.8-0.5,26.6-12.7,26.6-27.6c0-5.5-1.6-10.6-4.4-14.9
		c0.1,0,0.2,0,0.3,0C342.1,204.5,354.5,192.1,354.5,176.9z M326.9,163.2c7.5,0,13.7,6.1,13.7,13.7c0,7.5-6.1,13.7-13.7,13.7
		s-13.7-6.1-13.7-13.7C313.2,169.3,319.3,163.2,326.9,163.2z M256,205.7c7.5,0,13.7,6.1,13.7,13.7c0,7.5-6.1,13.7-13.7,13.7
		s-13.7-6.1-13.7-13.7C242.3,211.9,248.5,205.7,256,205.7z M256,191.3c0.1,0.2,0.2,0.3,0.3,0.5c-0.1,0-0.2,0-0.3,0s-0.2,0-0.3,0
		C255.8,191.6,255.9,191.4,256,191.3z M232.4,205c-0.1-0.2-0.2-0.3-0.3-0.5c0.1,0,0.2,0,0.3,0c0.1,0,0.2,0,0.3,0
		C232.6,204.7,232.5,204.9,232.4,205z M279.6,205c-0.1-0.2-0.2-0.3-0.3-0.5c0.1,0,0.2,0,0.3,0c0.1,0,0.2,0,0.3,0
		C279.8,204.7,279.7,204.9,279.6,205z M303.6,191.8c-0.1,0-0.2,0-0.3,0s-0.2,0-0.3,0c0.1-0.2,0.2-0.3,0.3-0.5
		C303.4,191.4,303.5,191.6,303.6,191.8z M279.6,163.2c7.5,0,13.7,6.1,13.7,13.7c0,7.5-6.1,13.7-13.7,13.7s-13.7-6.1-13.7-13.7
		C266,169.3,272.1,163.2,279.6,163.2z M232.4,163.2c7.5,0,13.7,6.1,13.7,13.7c0,7.5-6.1,13.7-13.7,13.7s-13.7-6.1-13.7-13.7
		C218.7,169.3,224.8,163.2,232.4,163.2z M209.1,191.8c-0.1,0-0.2,0-0.3,0s-0.2,0-0.3,0c0.1-0.2,0.2-0.3,0.3-0.5
		C208.9,191.4,209,191.6,209.1,191.8z M171.5,176.9c0-7.5,6.1-13.7,13.7-13.7s13.7,6.1,13.7,13.7c0,7.5-6.1,13.7-13.7,13.7
		S171.5,184.4,171.5,176.9z M195.1,219.4c0-7.5,6.1-13.7,13.7-13.7s13.7,6.1,13.7,13.7c0,7.5-6.1,13.7-13.7,13.7
		S195.1,226.9,195.1,219.4z M218.7,259.6c0-7.5,6.1-13.7,13.7-13.7S246,252,246,259.6s-6.1,13.7-13.7,13.7S218.7,267.1,218.7,259.6z
		 M256,313.4c-7.5,0-13.7-6.1-13.7-13.7s6.1-13.7,13.7-13.7s13.7,6.1,13.7,13.7S263.5,313.4,256,313.4z M279.6,273.2
		c-7.5,0-13.7-6.1-13.7-13.7s6.1-13.7,13.7-13.7s13.7,6.1,13.7,13.7S287.2,273.2,279.6,273.2z M303.3,233.1
		c-7.5,0-13.7-6.1-13.7-13.7c0-7.5,6.1-13.7,13.7-13.7s13.7,6.1,13.7,13.7C316.9,226.9,310.8,233.1,303.3,233.1z"/>
</g>
</svg>
