<?xml version="1.0" encoding="utf-8"?>
<!-- Generator: Adobe Illustrator 19.2.1, SVG Export Plug-In . SVG Version: 6.00 Build 0)  -->
<svg version="1.1" id="Layer_1" xmlns="http://www.w3.org/2000/svg" xmlns:xlink="http://www.w3.org/1999/xlink" x="0px" y="0px"
	 viewBox="0 0 512 512" style="enable-background:new 0 0 512 512;" xml:space="preserve">
<style type="text/css">
	.st0{fill:url(#SVGID_1_);}
	.st1{fill:#FFFFFF;}
</style>
<g>
	<linearGradient id="SVGID_1_" gradientUnits="userSpaceOnUse" x1="371.0552" y1="421.8318" x2="156.5787" y2="50.3476">
		<stop  offset="0" style="stop-color:#315DFF"/>
		<stop  offset="0.725" style="stop-color:#128FFF"/>
	</linearGradient>
	<path class="st0" d="M454.8,222.6c0-109.8-89-198.8-198.8-198.8s-198.8,89-198.8,198.8c0,87.6,56.7,162,135.4,188.5l63.4,77.2
		l63.4-77.2C398.1,384.6,454.8,310.2,454.8,222.6z"/>
	<g>
		<circle class="st1" cx="250.5" cy="214.8" r="10.1"/>
		<path class="st1" d="M371,253.8c-2.7-2.7-7.2-2.7-9.9,0c-9.3,9.3-18.1,13.6-26.2,12.8c-10.9-1.1-17.8-11.4-17.9-11.6c0,0,0,0,0,0
			c-0.1-0.1-0.2-0.3-0.3-0.4c0-0.1-0.1-0.1-0.1-0.2c-0.1-0.1-0.1-0.1-0.2-0.2c-0.1-0.1-0.2-0.2-0.3-0.3c0,0,0,0,0,0
			c-6.1-6.1-12.2-10.5-18.3-13.3c1.6-10.8,1.5-21.6-1.7-31.4c-4.8-15.1-15.8-26.1-32.7-32.8V69.1c0-3.9-3.1-7-7-7s-7,3.1-7,7v107.2
			c-16.9,6.7-27.9,17.7-32.7,32.8c-5.6,17.6-1.8,38.2,5.1,56.9c-9-2.5-14.5-10.8-14.7-11c0,0,0,0,0,0c-0.1-0.1-0.2-0.3-0.3-0.4
			c0-0.1-0.1-0.1-0.1-0.2c-0.1-0.1-0.1-0.1-0.2-0.2c-0.1-0.1-0.2-0.2-0.3-0.3c0,0,0,0,0,0c-12.5-12.5-25.2-18.1-37.8-16.8
			c-17.7,1.9-27.7,17.3-28.1,18c-2.1,3.2-1.1,7.5,2.1,9.6c3.2,2.1,7.6,1.2,9.7-2.1c0.1-0.1,7-10.5,17.9-11.6
			c8-0.8,16.7,3.3,25.8,12.4c2.3,3.2,11.9,15.5,27.6,17.2c1.2,0.1,2.5,0.2,3.7,0.2c0.3,0,0.5,0,0.8,0c7.4,16,15.9,29.3,20.4,35.8
			l-32.6,35c-1.7,1.8-2.2,4.5-1.2,6.8c1,2.3,3.3,3.8,5.8,3.8h72.3c2.5,0,4.8-1.5,5.8-3.8c1-2.3,0.5-5-1.2-6.8l-32.6-35
			c6.7-9.8,22.7-34.9,30.2-61.8c3.6,2.1,7.3,5,11.1,8.7c2.3,3.2,11.9,15.5,27.6,17.2c1.2,0.1,2.5,0.2,3.7,0.2
			c11.3,0,22.8-5.7,34.1-17C373.7,261,373.7,256.6,371,253.8z M228.5,212.9c3.8-11.9,12.6-20.2,27-25.5c0.3,0,0.5,0,0.8,0
			s0.5,0,0.8,0c14.3,5.3,23.1,13.6,26.9,25.5c2.4,7.4,2.6,15.7,1.5,24.1c-2.4-0.2-4.8-0.2-7.2,0c-15.6,1.7-25.3,13.9-27.6,17.2
			c-5.5,5.4-10.8,9.1-15.9,10.9C227.8,247.7,223.5,228.5,228.5,212.9z M234.6,349.4l21.6-23.1l21.6,23.1H234.6z M256.2,305.8
			c-4.1-6.4-10.2-16.3-15.8-27.8c6.9-2.7,13.7-7.5,20.6-14.3c0.4-0.4,0.7-0.7,0.9-1.1c0,0,0,0,0,0c0.1-0.1,7-10.5,17.9-11.6
			c0.9-0.1,1.8-0.1,2.7-0.1C276.3,273.1,263.4,294.8,256.2,305.8z"/>
	</g>
</g>
</svg>
