<?xml version="1.0" encoding="utf-8"?>
<!-- Generator: Adobe Illustrator 19.2.1, SVG Export Plug-In . SVG Version: 6.00 Build 0)  -->
<svg version="1.1" id="Layer_1" xmlns="http://www.w3.org/2000/svg" xmlns:xlink="http://www.w3.org/1999/xlink" x="0px" y="0px"
	 viewBox="0 0 512 512" style="enable-background:new 0 0 512 512;" xml:space="preserve">
<style type="text/css">
	.st0{fill:url(#SVGID_1_);}
	.st1{fill:#FFFFFF;}
</style>
<g>
	<linearGradient id="SVGID_1_" gradientUnits="userSpaceOnUse" x1="371.0553" y1="421.8318" x2="156.5787" y2="50.3475">
		<stop  offset="0" style="stop-color:#62738C"/>
		<stop  offset="1" style="stop-color:#68739D"/>
	</linearGradient>
	<path class="st0" d="M454.8,222.6c0-109.8-89-198.8-198.8-198.8s-198.8,89-198.8,198.8c0,87.6,56.7,162,135.4,188.5l63.4,77.2
		l63.4-77.2C398.1,384.6,454.8,310.2,454.8,222.6z"/>
	<g>
		<path class="st1" d="M279,167.8H233c-3.9,0-7,3.1-7,7c0,3.9,3.1,7,7,7H279c3.9,0,7-3.1,7-7C286,170.9,282.9,167.8,279,167.8z"/>
		<path class="st1" d="M279,193H233c-3.9,0-7,3.1-7,7c0,3.9,3.1,7,7,7H279c3.9,0,7-3.1,7-7C286,196.1,282.9,193,279,193z"/>
		<path class="st1" d="M342.1,297.2h-28.2v-10.4l28.3-27.6v-52.6l-27-52c-0.4-0.7-0.8-1.3-1.3-1.8v-26.1H198.1v170.4h-28.2
			c-3.9,0-7,3.1-7,7c0,3.9,3.1,7,7,7h28.2h115.8h28.2c3.9,0,7-3.1,7-7C349.1,300.3,346,297.2,342.1,297.2z M328.2,210v43.3
			l-14.3,13.9v-84.8L328.2,210z M212.1,297.2V140.7h87.8v156.4H212.1z"/>
	</g>
</g>
</svg>
